<svg xmlns="http://www.w3.org/2000/svg" width="1983.437" height="1178.342" viewBox="0 0 1983.437 1178.342"><g transform="translate(49.436 -243.58)"><g transform="matrix(-0.242, -0.97, 0.97, -0.242, 160.048, 1116.063)" opacity="0.59"><path d="M6746.962,991.308a87.758,87.758,0,1,0,71.5,86.245A88.206,88.206,0,0,0,6746.962,991.308Z" transform="translate(-6352.886 -527.916)" fill="none"/><path d="M6745.964,988.871a87.762,87.762,0,0,0-62.986,160.524,87.759,87.759,0,1,0,62.986-160.524Z" transform="translate(-6352.353 -526.62)" fill="none" stroke="#f2d898" stroke-width="5"/><path d="M6827.952,721.517a2.28,2.28,0,0,1-2.272-2.286l.571-211.974a2.278,2.278,0,0,1,2.278-2.273h.006a2.28,2.28,0,0,1,2.273,2.285l-.569,211.975Z" transform="translate(-6450.134 -269.89)" fill="#f2d898"/><path d="M6639.771,756.169a2.276,2.276,0,0,1-2.081-1.351l-88.328-197.9a2.279,2.279,0,1,1,4.162-1.857l88.329,197.9a2.283,2.283,0,0,1-2.082,3.209Z" transform="translate(-6302.967 -295.822)" fill="#f2d898"/><path d="M6439.871,837.87a2.259,2.259,0,0,1-1.483-.552L6238.114,664.91a2.279,2.279,0,0,1,2.973-3.455L6441.36,833.864a2.279,2.279,0,0,1-1.489,4.007Z" transform="translate(-6137 -352.873)" fill="#f2d898"/><path d="M157.279,83.37a.793.793,0,0,1-.361-.09L.942,4.471C.25,4.121-.148,2.858.052,1.649S.971-.261,1.665.091L157.642,78.9c.692.35,1.09,1.613.89,2.823C158.367,82.72,157.846,83.37,157.279,83.37Z" transform="translate(111.032 459.81) rotate(-8)" fill="#f2d898"/><path d="M.828,17.5C.409,17.5.05,17.047,0,16.433c-.048-.657.282-1.247.736-1.318L98.326.007c.459-.072.863.405.912,1.063s-.28,1.247-.735,1.318L.917,17.5A.571.571,0,0,1,.828,17.5Z" transform="matrix(0.998, 0.07, -0.07, 0.998, 181.286, 555.029)" fill="#f2d898" stroke="#f2d898" stroke-width="2"/><path d="M6195.095,1378a1.634,1.634,0,0,1-1.369-.732,1.572,1.572,0,0,1,.491-2.2l148.457-93.271a1.644,1.644,0,0,1,2.243.48,1.572,1.572,0,0,1-.49,2.2l-128.555,80.767-19.9,12.5A1.643,1.643,0,0,1,6195.095,1378Z" transform="translate(-6052.414 -683.187)" fill="#f2d898" stroke="#f2d898" stroke-width="1"/><path d="M6438.669,1475.4a1.625,1.625,0,0,1-.855-.241,1.453,1.453,0,0,1-.466-2.072l84.778-124.232a1.63,1.63,0,0,1,2.181-.443,1.453,1.453,0,0,1,.467,2.072L6440,1474.715A1.6,1.6,0,0,1,6438.669,1475.4Z" transform="translate(-6204.206 -718.647)" fill="#f2d898" stroke="#f2d898" stroke-width="1"/><path d="M7060.088,1498.489a2.269,2.269,0,0,1-1.847-.943l-105.4-145.763a2.28,2.28,0,0,1,3.7-2.671l105.4,145.763a2.279,2.279,0,0,1-1.846,3.614Z" transform="translate(-6517.581 -718.645)" fill="#f2d898"/><path d="M7152.983,1365.95a2.275,2.275,0,0,1-1.139-.306l-138.3-79.849a2.28,2.28,0,1,1,2.281-3.948l138.3,79.849a2.279,2.279,0,0,1-1.14,4.254Z" transform="translate(-6549.509 -683.185)" fill="#f2d898"/><path d="M7316.456,1218.212c-.048,0-.1,0-.147,0l-274.067-17.379a2.279,2.279,0,0,1,.289-4.55l274.066,17.379a2.279,2.279,0,0,1-.141,4.554Z" transform="translate(-6564.254 -637.805)" fill="#f2d898"/><path d="M7033.016,1020.709a2.28,2.28,0,0,1-.758-4.43l227.167-79.948a2.279,2.279,0,1,1,1.513,4.3L7033.77,1020.58A2.255,2.255,0,0,1,7033.016,1020.709Z" transform="translate(-6559.266 -499.391)" fill="#f2d898"/><path d="M6988.189,867.693a2.279,2.279,0,0,1-1.525-3.974l162.664-146.2a2.279,2.279,0,0,1,3.046,3.39l-162.661,146.2A2.271,2.271,0,0,1,6988.189,867.693Z" transform="translate(-6535.41 -382.695)" fill="#f2d898"/><path d="M6915.652,763.949a2.281,2.281,0,0,1-2.084-3.205l84.908-191.063a2.28,2.28,0,0,1,4.168,1.851L6917.736,762.6A2.281,2.281,0,0,1,6915.652,763.949Z" transform="translate(-6496.803 -303.603)" fill="#f2d898"/><path d="M6897.944,804.6a2.282,2.282,0,0,1-2.254-2.644l1.47-9.073a2.28,2.28,0,0,1,4.5.729l-1.47,9.073A2.282,2.282,0,0,1,6897.944,804.6Z" transform="translate(-6487.378 -422.093)" fill="#f2d898"/><path d="M6880.412,877.732a2.331,2.331,0,0,1-.369-.03,2.28,2.28,0,0,1-1.885-2.615l6.467-39.912a2.28,2.28,0,0,1,4.5.729l-6.467,39.913A2.282,2.282,0,0,1,6880.412,877.732Z" transform="translate(-6478.047 -444.603)" fill="#f2d898"/><path d="M6873.788,952.282a2.284,2.284,0,0,1-2.253-2.645l1.671-10.32a2.28,2.28,0,0,1,4.5.729l-1.673,10.32A2.278,2.278,0,0,1,6873.788,952.282Z" transform="translate(-6474.521 -500.03)" fill="#f2d898"/><path d="M6742.021,808.151a2.279,2.279,0,0,1-2.2-1.7l-2.35-8.886a2.28,2.28,0,0,1,4.408-1.164l2.349,8.887a2.283,2.283,0,0,1-2.206,2.862Z" transform="translate(-6403.146 -424.084)" fill="#f2d898"/><path d="M6760.941,879.782a2.28,2.28,0,0,1-2.2-1.7l-10.326-39.092a2.279,2.279,0,1,1,4.406-1.164l10.328,39.092a2.282,2.282,0,0,1-2.207,2.862Z" transform="translate(-6408.97 -446.132)" fill="#f2d898"/><path d="M6780.23,952.8a2.277,2.277,0,0,1-2.2-1.7l-2.672-10.108a2.28,2.28,0,0,1,4.408-1.164l2.672,10.108a2.283,2.283,0,0,1-2.208,2.862Z" transform="translate(-6423.311 -500.417)" fill="#f2d898"/><path d="M6599.5,875.494a2.278,2.278,0,0,1-1.778-.851l-5.76-7.163a2.279,2.279,0,0,1,3.553-2.857l5.761,7.163a2.279,2.279,0,0,1-1.775,3.708Z" transform="translate(-6325.479 -460.843)" fill="#f2d898"/><path d="M6645.924,933.235a2.276,2.276,0,0,1-1.778-.852l-25.332-31.512a2.278,2.278,0,1,1,3.55-2.855l25.335,31.512a2.279,2.279,0,0,1-1.774,3.707Z" transform="translate(-6339.768 -478.614)" fill="#f2d898"/><path d="M6693.243,992.1a2.277,2.277,0,0,1-1.778-.852l-6.551-8.148a2.279,2.279,0,0,1,3.553-2.856l6.55,8.148a2.28,2.28,0,0,1-1.773,3.708Z" transform="translate(-6374.948 -522.376)" fill="#f2d898"/><path d="M6562.584,1028.853a2.251,2.251,0,0,1-1.039-.252l-35.963-18.483a2.279,2.279,0,1,1,2.084-4.054l35.961,18.483a2.28,2.28,0,0,1-1.043,4.307Z" transform="translate(-6289.757 -536.438)" fill="#f2d898"/><path d="M6629.752,1063.377a2.254,2.254,0,0,1-1.039-.253l-9.3-4.78a2.279,2.279,0,0,1,2.082-4.055l9.3,4.78a2.28,2.28,0,0,1-1.044,4.307Z" transform="translate(-6339.697 -562.105)" fill="#f2d898"/><path d="M6525.346,1150.1c-.043,0-.085,0-.129,0l-40.369-2.259a2.279,2.279,0,0,1,.254-4.552l40.371,2.259a2.279,2.279,0,0,1-.127,4.555Z" transform="translate(-6267.591 -609.603)" fill="#f2d898"/><path d="M6600.75,1154.32c-.041,0-.084,0-.128,0l-10.439-.584a2.28,2.28,0,0,1,.256-4.552l10.438.584a2.28,2.28,0,0,1-.127,4.555Z" transform="translate(-6323.653 -612.74)" fill="#f2d898"/><path d="M6502.843,1274.033a2.28,2.28,0,0,1-.811-4.411l37.8-14.357a2.279,2.279,0,1,1,1.618,4.261l-37.8,14.356A2.259,2.259,0,0,1,6502.843,1274.033Z" transform="translate(-6277.101 -669.122)" fill="#f2d898"/><path d="M6601.469,1248.684a2.28,2.28,0,0,1-.81-4.411l9.774-3.712a2.279,2.279,0,0,1,1.618,4.262l-9.774,3.712A2.265,2.265,0,0,1,6601.469,1248.684Z" transform="translate(-6329.592 -661.295)" fill="#f2d898"/><path d="M6546.73,1436.126a2.278,2.278,0,0,1-1.6-3.9l6.521-6.476a2.279,2.279,0,1,1,3.212,3.235l-6.522,6.477A2.275,2.275,0,0,1,6546.73,1436.126Z" transform="translate(-6300.458 -759.585)" fill="#f2d898"/><path d="M6577.135,1380.892a2.28,2.28,0,0,1-1.606-3.9l28.693-28.488a2.279,2.279,0,1,1,3.21,3.235l-28.691,28.488A2.266,2.266,0,0,1,6577.135,1380.892Z" transform="translate(-6316.642 -718.473)" fill="#f2d898"/><path d="M6652,1330.588a2.279,2.279,0,0,1-1.605-3.9l7.417-7.366a2.28,2.28,0,1,1,3.214,3.235l-7.42,7.367A2.27,2.27,0,0,1,6652,1330.588Z" transform="translate(-6356.483 -702.942)" fill="#f2d898"/><path d="M6679.509,1525.594a2.281,2.281,0,0,1-2.124-3.1l3.323-8.569a2.279,2.279,0,1,1,4.25,1.649l-3.324,8.569A2.277,2.277,0,0,1,6679.509,1525.594Z" transform="translate(-6371.125 -806.087)" fill="#f2d898"/><path d="M6695.006,1452.509a2.282,2.282,0,0,1-2.124-3.1l14.623-37.7a2.279,2.279,0,1,1,4.249,1.648l-14.622,37.7A2.282,2.282,0,0,1,6695.006,1452.509Z" transform="translate(-6379.374 -751.688)" fill="#f2d898"/><path d="M6733.161,1385.948a2.281,2.281,0,0,1-2.123-3.1l3.78-9.747a2.279,2.279,0,1,1,4.25,1.648l-3.78,9.747A2.283,2.283,0,0,1,6733.161,1385.948Z" transform="translate(-6399.681 -731.138)" fill="#f2d898"/><path d="M6837.657,1554.8a2.28,2.28,0,0,1-2.274-2.168l-.447-9.179a2.279,2.279,0,1,1,4.553-.223l.447,9.18a2.278,2.278,0,0,1-2.163,2.388Z" transform="translate(-6455.058 -821.307)" fill="#f2d898"/><path d="M6833.831,1476.5a2.278,2.278,0,0,1-2.274-2.168l-1.974-40.385a2.28,2.28,0,0,1,4.554-.222l1.974,40.384a2.28,2.28,0,0,1-2.166,2.388Z" transform="translate(-6452.208 -763.028)" fill="#f2d898"/><path d="M6830.348,1405.193a2.28,2.28,0,0,1-2.274-2.168l-.51-10.443a2.279,2.279,0,0,1,4.553-.223l.509,10.443a2.276,2.276,0,0,1-2.163,2.387C6830.423,1405.192,6830.385,1405.193,6830.348,1405.193Z" transform="translate(-6451.134 -741.011)" fill="#f2d898"/><path d="M6990.56,1518.692a2.282,2.282,0,0,1-2.037-1.252l-4.142-8.2a2.278,2.278,0,1,1,4.067-2.055l4.144,8.2a2.279,2.279,0,0,1-2.032,3.307Z" transform="translate(-6534.466 -802.607)" fill="#f2d898"/><path d="M6955.216,1448.721a2.279,2.279,0,0,1-2.035-1.252l-18.228-36.091a2.28,2.28,0,0,1,4.07-2.055l18.227,36.09a2.28,2.28,0,0,1-2.034,3.308Z" transform="translate(-6508.161 -750.526)" fill="#f2d898"/><path d="M6923.032,1384.994a2.275,2.275,0,0,1-2.036-1.252l-4.715-9.333a2.28,2.28,0,0,1,4.07-2.055l4.712,9.333a2.28,2.28,0,0,1-2.031,3.307Z" transform="translate(-6498.223 -730.851)" fill="#f2d898"/><path d="M7115.552,1423.52a2.263,2.263,0,0,1-1.438-.513l-7.123-5.81a2.279,2.279,0,0,1,2.88-3.532l7.123,5.809a2.279,2.279,0,0,1-1.441,4.045Z" transform="translate(-6599.405 -753.23)" fill="#f2d898"/><path d="M7054.806,1373.971a2.269,2.269,0,0,1-1.439-.513l-31.331-25.556a2.279,2.279,0,1,1,2.88-3.533l31.332,25.556a2.279,2.279,0,0,1-1.441,4.045Z" transform="translate(-6554.189 -716.351)" fill="#f2d898"/><path d="M6999.482,1328.846a2.269,2.269,0,0,1-1.439-.513l-8.1-6.608a2.28,2.28,0,1,1,2.883-3.533l8.1,6.609a2.28,2.28,0,0,1-1.443,4.045Z" transform="translate(-6537.11 -702.419)" fill="#f2d898"/><path d="M7191.031,1285.733a2.294,2.294,0,0,1-.6-.081l-8.868-2.41a2.28,2.28,0,0,1,1.194-4.4l8.868,2.41a2.28,2.28,0,0,1-.6,4.479Z" transform="translate(-6638.646 -681.707)" fill="#f2d898"/><path d="M7115.387,1265.176a2.268,2.268,0,0,1-.6-.081l-39.019-10.6a2.28,2.28,0,0,1,1.2-4.4l39.019,10.6a2.28,2.28,0,0,1-.595,4.479Z" transform="translate(-6582.338 -666.406)" fill="#f2d898"/><path d="M7046.49,1246.454a2.284,2.284,0,0,1-.6-.08l-10.092-2.742a2.28,2.28,0,0,1,1.2-4.4l10.092,2.741a2.28,2.28,0,0,1-.6,4.48Z" transform="translate(-6561.067 -660.625)" fill="#f2d898"/><path d="M7194.853,1128.966a2.28,2.28,0,0,1-.344-4.532l9.083-1.406a2.279,2.279,0,0,1,.7,4.5l-9.085,1.406A2.229,2.229,0,0,1,7194.853,1128.966Z" transform="translate(-6645.401 -598.808)" fill="#f2d898"/><path d="M7086.512,1140.3a2.28,2.28,0,0,1-.346-4.533l39.958-6.184a2.279,2.279,0,0,1,.7,4.505l-39.959,6.184A2.2,2.2,0,0,1,7086.512,1140.3Z" transform="translate(-6587.74 -602.295)" fill="#f2d898"/><path d="M7045.583,1151.847a2.279,2.279,0,0,1-.344-4.532l10.332-1.6a2.28,2.28,0,0,1,.7,4.506l-10.333,1.6A2.3,2.3,0,0,1,7045.583,1151.847Z" transform="translate(-6565.957 -610.883)" fill="#f2d898"/><path d="M7144.326,980.187a2.279,2.279,0,0,1-1.236-4.2l7.726-4.979a2.28,2.28,0,1,1,2.47,3.832l-7.727,4.979A2.265,2.265,0,0,1,7144.326,980.187Z" transform="translate(-6618.507 -517.724)" fill="#f2d898"/><path d="M7052.172,1020.317a2.279,2.279,0,0,1-1.237-4.2l33.987-21.9a2.279,2.279,0,1,1,2.47,3.832l-33.988,21.9A2.266,2.266,0,0,1,7052.172,1020.317Z" transform="translate(-6569.46 -530.076)" fill="#f2d898"/><path d="M7017.357,1061.225a2.279,2.279,0,0,1-1.236-4.2l8.788-5.663a2.279,2.279,0,1,1,2.467,3.832l-8.786,5.663A2.271,2.271,0,0,1,7017.357,1061.225Z" transform="translate(-6550.932 -560.49)" fill="#f2d898"/><path d="M7039.295,865.449a2.279,2.279,0,0,1-1.905-3.527l5.035-7.691a2.279,2.279,0,1,1,3.813,2.5l-5.031,7.691A2.282,2.282,0,0,1,7039.295,865.449Z" transform="translate(-6562.611 -455.216)" fill="#f2d898"/><path d="M6979.261,927.441a2.281,2.281,0,0,1-1.905-3.527l22.142-33.831a2.279,2.279,0,0,1,3.814,2.5l-22.14,33.832A2.276,2.276,0,0,1,6979.261,927.441Z" transform="translate(-6530.66 -474.297)" fill="#f2d898"/><path d="M6956.583,990.634a2.279,2.279,0,0,1-1.905-3.527l5.725-8.749a2.28,2.28,0,0,1,3.814,2.5l-5.726,8.748A2.274,2.274,0,0,1,6956.583,990.634Z" transform="translate(-6518.591 -521.278)" fill="#f2d898"/></g><path d="M1902.434,1354.436v74.689H1170.64V463.33h128.984c9.385,0,17,9.366,17,20.908V644.8h106.357c9.385,0,17,9.365,17,20.908V815.431h121.777c9.394,0,16.992,9.365,16.992,20.924V996.9h106.367c9.385,0,16.992,9.366,16.992,20.908v155.158H1823.89c9.395,0,17.012,9.365,17.012,20.892v160.577Z" transform="translate(-1170.64 -8.765)" fill="#1a3a34"/><path d="M-89,1171.464v67.26H823V369H662.254c-11.7,0-21.189,8.434-21.189,18.828V532.418H508.517c-11.7,0-21.189,8.434-21.189,18.828v134.83H335.564c-11.708,0-21.177,8.434-21.177,18.842V849.494H181.827c-11.7,0-21.176,8.434-21.176,18.828v139.725H8.887c-11.708,0-21.2,8.433-21.2,18.813v144.6Z" transform="translate(1097 181.637)" fill="rgba(26,58,52,0.64)"/><path d="M1113.64,419.33h128c9.313,0,16.872,9.54,16.872,21.3V604.182h105.544c9.313,0,16.872,9.54,16.872,21.3V777.993h120.846c9.323,0,16.862,9.54,16.862,21.314V962.844h105.553c9.313,0,16.862,9.54,16.862,21.3v158.05h120.845c9.323,0,16.882,9.54,16.882,21.282v163.57h116.3" transform="translate(-1163.076 0.644)" fill="none" stroke="#ebcb7b" stroke-miterlimit="10" stroke-width="2"/><path d="M4849.665,1772.953h183.721V1633.468c0-10.377,6.945-18.8,15.512-18.8h97.107V1470.345c0-10.391,6.937-18.811,15.513-18.811h111.176v-134.6c0-10.377,6.954-18.8,15.522-18.8h97.1V1153.8h107.215" transform="translate(-3572.529 -717.378)" fill="none" stroke="#f2d898" stroke-miterlimit="10" stroke-width="2"/><g transform="translate(865.313 -395.488)"><g transform="translate(769.373 1215.367)"><path d="M3145.306,1971.337s4.338,32.16-6.508,47.533-10.846,45.742-13.014,89.126,6.507,54.231,49.891,54.231,26.031-62.908,19.523-121.475c-.781-7.028-4.338-17.354-15.184-34.708a57.965,57.965,0,0,1-8.677-34.707Z" transform="translate(-3019.83 -1561.684)" fill="none" stroke="#f2d898" stroke-width="3"/><path d="M62.875,346.743c1.021-1.886,2.262-3.622,3.443-5.407,2.369-3.58,4.3-7.434,6.3-11.222,1.718-3.245,3.758-6.313,5.418-9.588,1.141-1.075,2.321-2.114,3.556-3.1a65.59,65.59,0,0,1,19.035-10.7c7.5-2.609,15.362-3.95,22.919-6.366A113.408,113.408,0,0,0,144.507,291a229.985,229.985,0,0,0,20.016-12.636c6.463-4.568,12.5-9.655,18.5-14.807a48.38,48.38,0,0,0,8.621-9.146,44.086,44.086,0,0,0,4.77-9.337c2.57-6.785,3.9-14.7,1.7-21.765a1.8,1.8,0,0,0-2.173-1.233c-3.821,1.061-5.6,5.471-7.068,8.749a45.858,45.858,0,0,1-7.563,11.752c-7.465,8.387-17.982,12.551-28.427,15.947-10.9,3.542-22.042,6.479-32.057,12.227a110.3,110.3,0,0,0-26.692,21.927c-2.344,2.6-4.527,5.341-6.672,8.108q.51-1.642.9-3.3a1.33,1.33,0,0,0,.106-.244q.484-1.52.93-3.047a65.347,65.347,0,0,0,2.49-9.435,1.483,1.483,0,0,0,.746-.672,7.026,7.026,0,0,0,.535-3.814A79.541,79.541,0,0,1,96.5,265.062a42.117,42.117,0,0,1,6.037-9.095c7.732-8.69,18.455-13.855,28.351-19.613a258.554,258.554,0,0,0,33.475-23.49c5.675-4.647,11.471-9.482,15.764-15.489a54.139,54.139,0,0,0,4.92-9.151c1.438-3.141,2.989-6.56,2.571-10.1-.164-1.391-1.879-2.492-3.015-1.249-3.5,3.83-5.341,8.656-8.143,12.954a55.2,55.2,0,0,1-10.885,11.856,53.829,53.829,0,0,1-12.675,8.081c-4.6,2.06-9.424,3.56-14.155,5.275a69.566,69.566,0,0,0-13.568,6.242,69.921,69.921,0,0,0-11.024,8.889A81.73,81.73,0,0,0,97.63,252.835c-.156.315-.3.633-.452.951.184-5.37-.26-10.735-.441-16.134-.025-.708-.04-1.415-.056-2.123,1.2-8.124,3.046-16.139,4.87-24.14,1.894-8.314,3.268-16.78,5.416-25.03a93.794,93.794,0,0,1,8.942-22.327,155.763,155.763,0,0,1,13.923-20.1c4.863-6.153,10.066-12.109,14.45-18.622a78.269,78.269,0,0,0,9.691-19.857c2.859-8.957,4.041-18.528,4.609-27.884.245-4.029.335-8.077.425-12.113.083-3.673.018-7.49-1.476-10.905a1.782,1.782,0,0,0-3.228.421c-1.091,7.177-1.589,14.449-3.1,21.559a100,100,0,0,1-5.985,19.151c-5.467,12.511-15.689,21.7-23.119,32.942a104.156,104.156,0,0,0-9.427,17.979c-2.7,6.608-4.706,13.5-7.177,20.194-1.607,4.356-3.273,8.708-4.752,13.118a124.05,124.05,0,0,0-1.983-16.94c-1.177-6.753-3.548-13.2-5.7-19.684-.1-.3-.2-.6-.293-.9a1.956,1.956,0,0,0,.183-1.272,18.783,18.783,0,0,1-.407-2.809c-.037-1.152-.235-2.289-.385-3.429-.3-2.261-.194-4.569-.308-6.846a100.026,100.026,0,0,1,.544-13.887,241.5,241.5,0,0,1,4.366-27.884c1.932-9.31,3.47-18.662,4.688-28.091,1.2-9.332,1.938-18.731,3.467-28.019.864-5.248,1.852-10.475,2.61-15.74.364-2.533.713-5.071,1.181-7.589.354-1.907,1.55-4.127.54-5.992a1.723,1.723,0,0,0-2.941,0c-7.283,10.615-14,21.681-18.847,33.64a114.138,114.138,0,0,0-7.9,39.957,188.1,188.1,0,0,0,.881,21.46c.636,7.225,1.491,14.433,2.652,21.592a161.32,161.32,0,0,0,4.637,20.409c1.985,6.647,4.5,13.129,6.338,19.819a99.393,99.393,0,0,1,2.112,10.251,93.324,93.324,0,0,1,1.278,10.573A116.437,116.437,0,0,1,97.11,193.2c-1.04,5.03-1.773,10.123-2.437,15.215a183.967,183.967,0,0,0-1.48,18.544q-.471-1.855-1.045-3.685c-.175-1.406-.348-2.813-.505-4.225A31.09,31.09,0,0,0,87.465,206.1c.351-.959.686-1.924.984-2.9a62.8,62.8,0,0,0,2.565-16.448,66.032,66.032,0,0,0-2.305-19.544c-.918-3.313-1.948-6.6-2.913-9.9-.482-1.653-.958-3.315-1.513-4.945a24.627,24.627,0,0,1-1.533-4.864,1.784,1.784,0,0,0-1.727-1.728,1.741,1.741,0,0,0-1.729,1.728c.158,2.195.134,4.392.147,6.592.014,2.229.155,4.453.158,6.682a56.409,56.409,0,0,1-1.29,12.617A79.826,79.826,0,0,1,74.058,186.4c-3.978-4.956-8.324-9.6-12.529-14.359A138.08,138.08,0,0,1,50.2,156.505a143.035,143.035,0,0,0-11.736-15.72C34.256,136,29.728,131.522,25.3,126.95c-4.6-4.754-9.087-9.669-13.309-14.769C8.2,107.6,4.084,102.011,4.316,95.772c.076-2.063-2.862-2.3-3.471-.47-1.628,4.9-.544,10.035.261,14.983A130.734,130.734,0,0,0,4.185,125.65a62.026,62.026,0,0,0,13.94,24.993c6.21,6.77,13.662,12.259,21.077,17.624,4.048,2.928,8.173,5.691,12.409,8.34a119.21,119.21,0,0,1,12.513,8.553,57.01,57.01,0,0,1,7.246,7.152c-.673,1.371-1.364,2.732-2.086,4.072-3.827,7.122-8.684,13.575-12.677,20.589a101.2,101.2,0,0,0-9.285,21.65,89.537,89.537,0,0,0-3.445,23.406c-.089,4.452-.121,8.912.174,13.356a100.71,100.71,0,0,0,1.411,10.924q.022,1.155.063,2.3.047,1.3.122,2.589a91.017,91.017,0,0,0-4.824-8.512c-4.51-7.14-9.6-13.992-12.169-22.143-2.859-9.086-2.478-18.779-3.1-28.176A62.84,62.84,0,0,0,23.4,218.493a119.293,119.293,0,0,0-4.839-13.083,33.463,33.463,0,0,0-6.078-9.687A43.725,43.725,0,0,0,8.7,192.284c-1.153-.969-2.6-2.061-4.206-1.616-2.21.613-2.288,3.065-2.348,4.931-.078,2.392-.009,4.8.114,7.192.244,4.8.649,9.587.779,14.4.26,9.6.065,19.223,1.922,28.689,1.651,8.416,4.433,16.878,9.168,24.088,4.865,7.4,11.9,12.726,18.451,18.538a58.56,58.56,0,0,1,8.969,9.807c2.386,3.334,5.094,6.809,6.1,10.862a12.157,12.157,0,0,0,1.93,4.974,1.355,1.355,0,0,0,.959.487,130.3,130.3,0,0,1,1.357,26.4,61.615,61.615,0,0,1-6.125,22.713,80.732,80.732,0,0,1-6.215,10.657c-2.243,3.272-4.625,6.426-6.769,9.766-.092.094-.182.191-.275.283-1.357,1.32-2.955,2.6-3.447,4.521a1.762,1.762,0,0,0,2.921,1.7A19.622,19.622,0,0,0,35.5,386.41a45.674,45.674,0,0,0,3.673-4.892,37.119,37.119,0,0,1,3.407-4.693c1.289-1.369,2.721-2.594,3.958-4.013.288-.33.561-.671.829-1.015a1.6,1.6,0,0,0,1.077-.825q.783-1.379,1.565-2.761a27.377,27.377,0,0,0,2.972-2.291c2.225-1.85,5.176-2.876,7.839-3.936,6.025-2.4,12.338-4.088,18.519-6.035a102.4,102.4,0,0,1,19.329-4.443c6.328-.714,12.7-.965,19.036-1.589,12.338-1.215,24.7-2.8,36.662-6.167a108.6,108.6,0,0,0,17.27-6.334,39.986,39.986,0,0,0,12.828-9.155,37.507,37.507,0,0,0,6.473-10.935c1.267-3.1,3.143-8-.1-10.5a1.789,1.789,0,0,0-2.141.275c-6.665,5.447-12.411,12.25-20.086,16.348a29.439,29.439,0,0,1-13.881,3.617c-5.413-.028-10.672-1.535-15.872-2.883a63.815,63.815,0,0,0-15.641-2.546,47.351,47.351,0,0,0-14.612,2.344c-9.738,3.115-18.563,8.65-27.18,14.029-5.33,3.326-10.6,6.786-15.588,10.618-2.814,2.164-5.439,4.559-8.1,6.909.767-1.06,1.514-2.136,2.185-3.265C60.993,350.479,61.878,348.58,62.875,346.743Zm40.194-96.552a.753.753,0,0,0,.245-.026c-.164.151-.331.3-.492.448C102.9,250.472,102.987,250.333,103.069,250.191Zm12.21-16.165A70.069,70.069,0,0,1,126.1,224.89a61.124,61.124,0,0,1,13.1-6.268c4.629-1.692,9.329-3.191,13.873-5.11a54.953,54.953,0,0,0,12.467-7.291,64.966,64.966,0,0,0,12.438-12.42,33.21,33.21,0,0,0,1.85-2.8,35.807,35.807,0,0,1-2.332,3.986c-3.648,5.325-8.736,9.6-13.641,13.725-5.385,4.525-11.011,8.751-16.763,12.8-5.36,3.773-10.774,7.52-16.414,10.867-8.415,5-17.374,9.4-24.945,15.663a118.268,118.268,0,0,1,11.6-9.213q3.535-2.483,7.2-4.778a67.334,67.334,0,0,1,6.7-3.493,23.375,23.375,0,0,0,6.96-4.576.7.7,0,0,0-.989-.989c-3.817,3.3-8.813,4.643-13.041,7.278a148.682,148.682,0,0,0-14.183,10q-2.162,1.728-4.235,3.56A77.666,77.666,0,0,1,115.279,234.026ZM89.02,40.227c3.853-10.959,9.566-21.119,15.792-30.892-.245,1.577-.473,3.157-.7,4.737-.681,4.673-1.552,9.313-2.34,13.968-1.556,9.2-2.343,18.491-3.509,27.742C97.079,65.166,95.634,74.5,93.7,83.763a256.1,256.1,0,0,0-4.583,27.775c-.308,3.182-.633,6.374-.788,9.569-.719-1.672-1.381-3.366-1.955-5.092-.749-4.693-1.348-9.411-1.849-14.134q-.189-1.8-.364-3.6c.017-.488.035-.976.059-1.465a152.435,152.435,0,0,1,1.911-16.442c.429-2.651.806-5.327,1.424-7.941a48.05,48.05,0,0,1,2.378-7.311,54.218,54.218,0,0,1,3.816-7.549c.739-1.208,1.647-2.3,2.354-3.532.655-1.134.915-2.488,1.77-3.5a.767.767,0,0,0-1.083-1.085A6.932,6.932,0,0,0,95,52.332a20.056,20.056,0,0,1-2.021,3.2,44.921,44.921,0,0,0-3.762,6.849,53.023,53.023,0,0,0-2.757,7.276,69.191,69.191,0,0,0-1.682,8.116c-.543,3.256-1.053,6.52-1.469,9.8-.133-2.341-.23-4.684-.267-7.027C82.817,66.9,84.481,53.144,89.02,40.227Zm-1.111,84.242c.112.24.222.482.336.722,0,.308,0,.616.01.924C88.134,125.567,88.025,125.017,87.909,124.469Zm12.152,72.009c.189-.978.37-1.958.576-2.929a151.1,151.1,0,0,1,6.369-20.692c.112-.3.219-.6.329-.905a.831.831,0,0,0,.73-.609,116.394,116.394,0,0,1,9.626-22.563,103.822,103.822,0,0,1,15.283-20.345,57.257,57.257,0,0,1,5.165-4.844,38.436,38.436,0,0,0,5.042-4.671c.63-.74-.376-1.79-1.081-1.082-2.973,2.994-6.5,5.359-9.45,8.385a123.211,123.211,0,0,0-8.908,10.3,93.557,93.557,0,0,0-8.046,12.253,104.13,104.13,0,0,1,7.351-15.048c7-11.58,17.5-20.784,23.634-32.9a99.1,99.1,0,0,0,7.311-20.684c.484-1.934.879-3.882,1.219-5.84-.028.68-.056,1.362-.092,2.041a120.508,120.508,0,0,1-3.6,24.9,73.6,73.6,0,0,1-8.861,20.075c-4.194,6.667-9.4,12.651-14.3,18.8-9.844,12.371-18.681,25.267-23.436,40.5-2.445,7.829-3.685,15.943-5.458,23.935-.064.287-.13.573-.2.86C99.534,202.443,99.811,199.461,100.061,196.478ZM98.37,206.884a1.616,1.616,0,0,0,.765-.827q-.714,3.181-1.439,6.361C97.9,210.573,98.124,208.728,98.37,206.884Zm-69.8-51.18c-7.121-6.028-13.413-13-17.444-21.488a68.567,68.567,0,0,1-4.9-14.93c-.863-3.984-1.621-8.088-2.162-12.169a43.03,43.03,0,0,0,2.415,3.7,153.617,153.617,0,0,0,10.529,12.473c8.7,9.652,18.515,18.281,26.037,28.951,2.7,3.832,5.208,7.8,7.847,11.671-1.562-1.385-3.12-2.774-4.637-4.209-3.063-2.9-6.207-5.706-9.484-8.356a107.908,107.908,0,0,0-11.506-8.186c-.973-.595-1.86.933-.892,1.525a123.217,123.217,0,0,1,19.487,15.193c3.1,2.892,6.275,5.7,9.423,8.539q1.495,1.349,2.934,2.756c1.991,2.467,4.092,4.839,6.213,7.2q.835,1.188,1.594,2.417c-3.89-2.943-8.031-5.588-12.237-8.229A203.619,203.619,0,0,1,28.571,155.7ZM65.9,353.075a140.06,140.06,0,0,1,14-9.919c8.694-5.583,17.681-11.449,27.439-15.008a46.039,46.039,0,0,1,14.805-2.964c5.4-.111,10.582,1.063,15.775,2.409,5.153,1.337,10.35,2.768,15.7,2.984a32.558,32.558,0,0,0,14.514-2.969c8.173-3.628,14.255-10.366,20.9-16.167a10.785,10.785,0,0,1-.225,1.167A28.155,28.155,0,0,1,187,317.6a31.54,31.54,0,0,1-5.7,8.89,39.394,39.394,0,0,1-12.339,8.3,108.682,108.682,0,0,1-16.63,5.865c-11.321,3.083-22.975,4.59-34.627,5.737-6.045.6-12.118.855-18.159,1.494a96.466,96.466,0,0,0-17.634,3.582c-3.435,1.029-6.9,2.039-10.352,3.106,4.435-2.383,8.908-4.69,13.462-6.836,4.129-1.944,8.32-3.756,12.59-5.372,4.316-1.633,8.529-3.532,12.869-5.106,4.955-1.8,10.156-2.8,15.057-4.76.877-.35.533-1.766-.4-1.448-4.508,1.546-9.2,2.483-13.712,4.007-4.378,1.478-8.569,3.441-12.887,5.079a224.617,224.617,0,0,0-24.957,11.355c-3.839,2.022-7.64,4.114-11.43,6.224-.027.011-.056.02-.084.03-.9.332-1.8.675-2.7,1.026C61.539,356.865,63.68,354.924,65.9,353.075Zm28.766-55.667a109.813,109.813,0,0,1,25.6-22.218c9.6-5.918,20.249-9.056,30.919-12.421,10.261-3.235,20.984-6.912,29.139-14.207a48.044,48.044,0,0,0,10.279-13.154c.975-1.842,1.7-3.806,2.651-5.662a13.9,13.9,0,0,1,2.007-3.223c1.1,5.712-.12,11.775-2.1,17.164a40.192,40.192,0,0,1-11.812,16.647,231.633,231.633,0,0,1-18.619,14.98,228.466,228.466,0,0,1-20.253,12.769,106.467,106.467,0,0,1-21.5,9.367c-7.6,2.269-15.454,3.645-22.891,6.442a62.708,62.708,0,0,0-8.042,3.718c5.223-3.982,10.365-8.071,15.741-11.844a106.958,106.958,0,0,1,18.777-10.6c3.833-1.671,7.754-3.143,11.67-4.6.857-.319.516-1.682-.385-1.395a115.858,115.858,0,0,0-20.6,8.552,143.7,143.7,0,0,0-17.732,11.956c-3.243,2.469-6.454,4.982-9.706,7.44a.975.975,0,0,0,.206,1.654q-2.382,1.409-4.655,2.986c.131-.165.265-.329.4-.494C87.422,306.665,90.856,301.875,94.669,297.408ZM49.187,245.346a93.409,93.409,0,0,1,7.91-22.316c3.63-7.228,8.415-13.666,12.561-20.579q2.136-3.557,4.031-7.262c.11.145.214.293.323.437.106-.24.207-.483.314-.721.669-2.153,1.377-4.3,2.086-6.437A1.853,1.853,0,0,1,77.3,187.4c1.067-2.562,2.034-5.163,2.865-7.811a61.78,61.78,0,0,0,2.608-12.382,62.132,62.132,0,0,0,.239-6.936c.462,1.6.928,3.208,1.41,4.807A67.956,67.956,0,0,1,87.5,182.533a61.293,61.293,0,0,1-1.583,16.1,14.426,14.426,0,0,1-1.455,6.037,28.322,28.322,0,0,1-1.545,4.229,1.781,1.781,0,0,1-.821.868c-.586,1.285-1.208,2.559-1.891,3.814-4.834,8.876-11.23,16.753-17,25.011A86.218,86.218,0,0,0,55.036,252.2c-1.892,4.173-3.857,8.358-5.424,12.675.064-.345.123-.689.19-1.032a98.656,98.656,0,0,1,4.666-16.475,162.553,162.553,0,0,1,7-15.395c2.84-5.6,5.866-11.11,8.521-16.8.416-.892-.871-1.681-1.341-.783-5.2,9.915-10.7,19.747-14.937,30.125a102.559,102.559,0,0,0-6.377,23.258A102.883,102.883,0,0,1,49.187,245.346Zm-27.311,28.8c-5.54-5.872-9.109-13.172-11.428-20.842a83.318,83.318,0,0,1-2.863-13.014,122.82,122.82,0,0,1-.819-13.639c-.1-4.654-.16-9.309-.356-13.96-.2-4.635-.655-9.247-.758-13.886-.026-1.147-.034-2.292.007-3.439,0-.128.06-.528.093-.879.857.748,1.854,1.414,2.7,2.172a27.4,27.4,0,0,1,6.244,8.6,94.323,94.323,0,0,1,4.778,12.213,60.077,60.077,0,0,1,2.535,13.287c.8,9.065.43,18.251,2.5,27.176,1.842,7.951,6.047,14.913,10.552,21.613,2.02,3,4.026,6.017,5.85,9.143-1-.883-2.044-1.735-3.129-2.555-3.923-2.961-8.118-5.757-10.733-10.029-.655-1.071-1.261-2.175-1.938-3.231-.646-1.006-1.349-1.969-1.951-3a36.079,36.079,0,0,1-2.747-6.175A157.6,157.6,0,0,1,15.8,247.871c-1.482-6.143-2.739-12.338-4.133-18.5-.25-1.109-1.954-.64-1.7.469,2.482,10.978,4.543,22.088,8.193,32.759a53.933,53.933,0,0,0,2.55,6.451c1.061,2.148,2.5,4.044,3.715,6.1a41.926,41.926,0,0,0,2.381,3.684C25.1,277.338,23.432,275.8,21.876,274.149Zm18.695,17.183c-.967-1.1-1.986-2.15-3.038-3.165,1.194.922,2.368,1.874,3.476,2.9.887.825,1.727,1.7,2.537,2.595q.711,1.533,1.315,3.1C43.509,294.876,42.073,293.044,40.571,291.332Zm15.147,57.474c-.664.966-1.315,1.947-1.933,2.949q.33-1.351.6-2.719c1.654-8.492,1.36-17.272.6-25.849A259.771,259.771,0,0,0,51.073,296.7c-.7-3.63-1.471-7.245-2.132-10.883,0-1.63.046-3.26.163-4.883a40.507,40.507,0,0,1,1.879-8.737c.852-2.837,1.67-5.668,2.787-8.416,1.09-2.683,2.342-5.3,3.5-7.96a83.584,83.584,0,0,1,7.9-13.9c5.7-8.325,12.133-16.164,17.16-24.934q1.053-1.839,2.012-3.735A93.111,93.111,0,0,1,88.6,223.835c.043.414.088.828.139,1.24.482,3.936,1.114,7.852,1.731,11.769.432,2.741.828,5.486,1.262,8.227-.1,3.065-.369,6.126-.718,9.175-.618,5.415-1.281,10.831-2.026,16.23q-.484,3.509-1.067,7.013a50.287,50.287,0,0,0-1.482,7.722,100.229,100.229,0,0,1-4.842,16.084c-2.107,5.223-4.825,10.223-7.387,15.232-.47.917-.95,1.829-1.423,2.743a11.49,11.49,0,0,0-1.59,3.068c-.105.2-.208.4-.311.6a39.456,39.456,0,0,0-5.038,7.78c-1.836,3.784-3.321,7.729-5.469,11.359C58.984,344.424,57.266,346.556,55.717,348.807Z" transform="translate(0 54.913) rotate(-16)" fill="rgba(242,216,152,0.54)"/></g></g><g transform="translate(-253.18 241.871)"><path d="M175.778,955.077l1.232,2.349a73.99,73.99,0,0,0,3.785,6.725,98.53,98.53,0,0,0,18.632,22.257,116.112,116.112,0,0,0,38.371,22.85,135.73,135.73,0,0,0,56.971,7.568c21.1-1.59,43.5-8.365,64.4-20.459a175.32,175.32,0,0,0,29.9-21.911c4.866-4.192,9.009-8.761,13.828-13.609a206.261,206.261,0,0,1,15.05-14.177,142.633,142.633,0,0,1,36.322-22.845,120.236,120.236,0,0,1,43.461-9.358,134.272,134.272,0,0,1,22.575,1.153,105.677,105.677,0,0,1,22.408,5.886,103.491,103.491,0,0,1,38.51,26.012,100.005,100.005,0,0,1,22.8,40.8,105.461,105.461,0,0,1,2.275,46.322,88.875,88.875,0,0,1-19.659,41.854,90.622,90.622,0,0,1-36.721,26.072,87.59,87.59,0,0,1-43.163,4.947l-3.044-.436-2.378-.516c-1.623-.378-3.071-.6-4.827-1.107a73.038,73.038,0,0,1-10.441-3.775,68.493,68.493,0,0,1-17.714-11.23c-21.144-18.2-28.738-46.828-23.036-69.717a56.9,56.9,0,0,1,17.256-29.135,55.307,55.307,0,0,1,52.848-12.326A42.926,42.926,0,0,1,534.183,991a42.059,42.059,0,0,1,11.6,27.318,36.748,36.748,0,0,1-.4,7.779c-.273,1.732-.413,2.626-.413,2.626l.11-2.651a36.03,36.03,0,0,0-.482-7.638,41.222,41.222,0,0,0-13.371-24.387,39.775,39.775,0,0,0-17.168-8.815,48.361,48.361,0,0,0-44.61,13.539,46.055,46.055,0,0,0-12.513,24.317c-3.87,19.318,3.661,42.145,21.01,55.935a53.407,53.407,0,0,0,14.24,8.5,60.784,60.784,0,0,0,7.655,2.609c1.341.372,3.1.619,4.64.935l2.39.451c-.7-.129-.036-.019-.122-.04l.274.03.548.059,1.1.121a73.482,73.482,0,0,0,80.437-60.088,88.2,88.2,0,0,0-1.533-38.715,87.056,87.056,0,0,0-50.545-57.15,99.166,99.166,0,0,0-39.041-7.291,106.74,106.74,0,0,0-38.851,7.3,134.376,134.376,0,0,0-33.765,19.991c-10.368,7.9-19.1,17.7-29.464,26.524a185.153,185.153,0,0,1-32.239,22.193,157.952,157.952,0,0,1-68.5,19.129,137.315,137.315,0,0,1-58.945-10.277A116.318,116.318,0,0,1,197.93,987.98,99.8,99.8,0,0,1,180.3,964.424a74.372,74.372,0,0,1-3.418-6.935Z" transform="translate(77.402 30.554)" fill="none" stroke="#ebcb7b" stroke-miterlimit="10" stroke-width="1.5"/><path d="M391.165,964.6l4.892-4.074c3.054-2.8,7.738-6.624,13.09-12.076A117.707,117.707,0,0,0,425.97,927.17a98.3,98.3,0,0,0,7.531-14.524,113.248,113.248,0,0,0,5.254-17.181,116.234,116.234,0,0,0,2.25-19.435,83.354,83.354,0,0,0-1.973-20.135,74.749,74.749,0,0,0-21.163-37.432,73.284,73.284,0,0,0-40.991-19.937c-15.736-2.19-31.85.652-45.2,9.412A64.224,64.224,0,0,0,304.7,845.355l-1.187,5.728c-.317,1.921-.418,3.871-.651,5.8-.039.339-.129,1.288-.128,1.128v4.824c.084,2,.356,3.542.492,5.349a50.745,50.745,0,0,0,8.162,20.5,50,50,0,0,0,35.26,21.8l2.557.288.637.074s.473.029.056.034l.352,0,1.4.019,2.793.048,2.3-.2a40.874,40.874,0,0,0,9.377-1.988,41.8,41.8,0,0,0,27.739-40.213,34.25,34.25,0,0,0-10.683-23.264,35.688,35.688,0,0,0-15.066-8.552,28.256,28.256,0,0,0-4.6-.939l-1.605-.234,1.62.049a28.735,28.735,0,0,1,4.734.413,35.588,35.588,0,0,1,16.661,7.238,37.958,37.958,0,0,1,13.986,25.073,47.171,47.171,0,0,1-11.3,35.9A48.659,48.659,0,0,1,357.8,920.62l-3.2.424-2.791.125-1.4.058-.352.013-.645-.028-.767-.049-3.086-.2A61.614,61.614,0,0,1,301.071,896a63,63,0,0,1-11.013-25.6c-.315-2.419-.714-5.106-.849-7.374l-.086-3.213-.044-1.609c0-1.234.071-1.354.105-2.086.2-2.348.284-4.72.606-7.069l1.265-7.032c4.211-18.71,16.251-35.733,32.52-46.435A77.208,77.208,0,0,1,350.383,784.4a51.98,51.98,0,0,1,7.4-1.171l3.761-.379,3.28-.03,3.275-.031c1.869.016,2.554.138,3.888.2,2.361.111,4.707.477,7.047.768a86.681,86.681,0,0,1,72.924,69.38,90.471,90.471,0,0,1,1.563,23.76,108.5,108.5,0,0,1-3.929,21.3,96.778,96.778,0,0,1-17.224,33.5A114.986,114.986,0,0,1,411.8,951.471a132.844,132.844,0,0,1-15.069,10.044Z" transform="translate(105.963 -2.62)" fill="none" stroke="#ebcb7b" stroke-miterlimit="10" stroke-width="1.5"/><path d="M187.42,955.9s1.128,1.4,3.244,4.019c2.234,2.513,5.277,6.359,9.633,10.769A95.566,95.566,0,0,0,217.352,984.6a78.482,78.482,0,0,0,25.561,10.767,94.2,94.2,0,0,0,15.739,2.069,67.721,67.721,0,0,0,16.358-1.35,60.651,60.651,0,0,0,30.631-16.7,59.445,59.445,0,0,0,16.684-33c1.972-12.739-.133-25.847-7.073-36.781a52.114,52.114,0,0,0-30.02-22.353,59.356,59.356,0,0,0-9.329-1.635c-.275-.035-1.044-.12-.914-.118l-1.306-.02-2.607-.039c-1.625.043-2.88.244-4.347.332A41.188,41.188,0,0,0,250,892.134a40.562,40.562,0,0,0-18.126,28.332l-.265,2.071-.068.515s-.029.384-.029.046l-.006.285-.033,1.138-.074,2.266.133,1.87a33.113,33.113,0,0,0,1.5,7.631,33.915,33.915,0,0,0,32.277,23,27.8,27.8,0,0,0,19.007-8.375,28.955,28.955,0,0,0,7.124-12.116,22.749,22.749,0,0,0,.819-3.716c.139-.856.21-1.3.21-1.3L292.4,935.1a23.379,23.379,0,0,1-.4,3.835,28.86,28.86,0,0,1-6.079,13.425,30.8,30.8,0,0,1-20.515,11.033,38.278,38.278,0,0,1-28.984-9.614,39.48,39.48,0,0,1-12.918-24.4l-.3-2.6-.066-2.265-.029-1.14-.006-.285.03-.522.049-.622.205-2.5a49.976,49.976,0,0,1,20.8-35.768,51.1,51.1,0,0,1,20.906-8.616c1.967-.225,4.152-.516,5.992-.6l2.607-.03,1.307-.015c1,.015,1.1.075,1.69.11a70.4,70.4,0,0,1,11.415,1.694,62.27,62.27,0,0,1,37.267,26.958c8.683,13.226,11.583,30.129,8.9,45.141a70.321,70.321,0,0,1-57.194,58.292,73.411,73.411,0,0,1-19.295.972,88.086,88.086,0,0,1-17.23-3.453,78.544,78.544,0,0,1-26.96-14.39,93.347,93.347,0,0,1-15.789-16.931,107.988,107.988,0,0,1-7.962-12.349C188.266,957.487,187.42,955.9,187.42,955.9Z" transform="translate(80.337 20.478)" fill="none" stroke="#ebcb7b" stroke-miterlimit="10" stroke-width="1.5"/></g></g></svg>