<svg xmlns="http://www.w3.org/2000/svg" xmlns:xlink="http://www.w3.org/1999/xlink" width="1348.259" height="817.604" viewBox="0 0 1348.259 817.604">
  <defs>
    <clipPath id="clip-path">
      <path id="Path_2491" data-name="Path 2491" d="M263.684,7825.652c-.763.67-1.689,1.17-1.808,2.279a5.018,5.018,0,0,0,.851,3.255c.175.207.57.325.84.544a4.716,4.716,0,0,0,1.681,1.092,9.5,9.5,0,0,0,1.246.366c1.744.234,2.329-1.132,2.952-2.4a5.619,5.619,0,0,0,.859-3.644c.326.129.185.725.5.229a5.569,5.569,0,0,0,.948,3.58,6.614,6.614,0,0,0,1.22,2.01c.787.512,2.656-.014,3.59-.617.217-.141.359-.458.634-.68s.7-.32.885-.523a4.956,4.956,0,0,0,.953-3.237c-.092-1.063-.795-1.652-1.721-2.32,2.324-.111,2.361-2.143,3.135-4.3.457-1.274,1.25-1.951,1.543-2.846.545-1.669-.347-2.426-1.956-1.9a18.8,18.8,0,0,0-5.059,3.3,23.329,23.329,0,0,0-3.959,4.243c-.356-.159.076-1.312-.3-1.632-.708.083-.187,1.31-.35,1.738-.8-.5-1.275-1.5-1.967-2.229a22.208,22.208,0,0,0-4.646-3.7,14.514,14.514,0,0,0-2.675-1.386c-1.533-.479-2.725.143-2.066,1.961.268.737,1.052,1.429,1.485,2.575.1.257.038.57.112.82a12.461,12.461,0,0,0,1.078,2.671A2.534,2.534,0,0,0,263.684,7825.652Z" transform="translate(-258.826 -7816.374)" fill="#ebcb7b" stroke="#f2d898" stroke-miterlimit="10" stroke-width="1.5" clip-rule="evenodd"/>
    </clipPath>
    <clipPath id="clip-path-2">
      <path id="Path_2494" data-name="Path 2494" d="M128.961,7891.694c.18,1.1.092,1.954.789,2.609a3.992,3.992,0,0,0,2.979.975c.17-.041.445-.3.727-.405s.564-.065.761-.167a5.1,5.1,0,0,0,2.192-2.481c.121-.818-1.254-3.486-1.986-4.254-.254-.266-.734-.5-1.015-.768.47-.284.927.313,1.405.532,1.3.587,4.218,1.313,5.042.621a4.248,4.248,0,0,0,1.126-2.754,3.46,3.46,0,0,0-1.685-2.968c-.912-.547-1.943-.215-2.758-.281,1.521-1.374-.209-2.506-1.156-3.945-.8-1.206-.5-2.5-2.024-3.221-.62-.3-1.315.172-1.677.957-1.2,2.612-.941,6.259-.28,8.8-.526.295-.962-.818-1.405-.533-.237.519,1.023.828,1.149,1.295a19.627,19.627,0,0,0-7.674,2.159,10.92,10.92,0,0,0-2.443,1.55c-1.071,1.11-.9,2.077.654,2.511.7.189,1.529-.1,2.557.123C126.281,7892.5,127.708,7893.862,128.961,7891.694Z" transform="translate(-120.347 -7875.097)" fill="#ebcb7b" stroke="#f2d898" stroke-miterlimit="10" stroke-width="1.5" clip-rule="evenodd"/>
    </clipPath>
    <clipPath id="clip-path-3">
      <path id="Path_2497" data-name="Path 2497" d="M105.821,7800.326c-1.264,2.319-.317,6.016,2.141,7.124a8.012,8.012,0,0,0,1.611.329c.948.145,3.131-.169,3.756-1.52a9.066,9.066,0,0,0,.206-3.449,11.709,11.709,0,0,0-.979-5.168c.142.207.493.748.505.167.322,1.379,2.381,3.628,4.144,4.788a4.2,4.2,0,0,0,.853.451c1.184.24,2.837-2.128,3.414-3.92.143-.438.483-.816.544-1.049a8.776,8.776,0,0,0-.792-4.764,3.506,3.506,0,0,0-2.694-1.475c.256-.584,1.111-.833,1.335-2.013a9.607,9.607,0,0,0-.18-2.516c-.091-.771-.306-1.6-.4-2.456-.19-1.645.224-2.983.082-4.166-.148-1.283-.79-2.7-1.9-2.064a4.488,4.488,0,0,0-1.119,1.2c-2.663,3.907-4.4,10.267-4.719,14.066-.575-.354-.541-1.82-1.207-1.869-.508.647.625,1.486.5,2.283a24.277,24.277,0,0,0-6.516-2.5,18.214,18.214,0,0,0-3.1-.31,7.315,7.315,0,0,0-3.007.266c-1.21.6-1.38,2.032-.3,3.245.67.75,1.7,1.142,2.7,2.228C102.649,7799.342,103.89,7802.055,105.821,7800.326Z" transform="translate(-97.278 -7778.471)" fill="#ebcb7b" stroke="#f2d898" stroke-miterlimit="10" stroke-width="1.5" clip-rule="evenodd"/>
    </clipPath>
    <clipPath id="clip-path-4">
      <path id="Path_2500" data-name="Path 2500" d="M188.447,7831.543c.048.668-.268,1.7.308,2.49a4.131,4.131,0,0,0,2.571,1.593,6.47,6.47,0,0,0,.843-.187,5.419,5.419,0,0,0,2.659-1.016c1.248-1.031.7-2.2.3-3.467a5.363,5.363,0,0,0-1.576-2.886c.192-.119.512.3.3-.114a8.923,8.923,0,0,0,2.936,1.932c.862.381,1.8.836,2.375.447a3.78,3.78,0,0,0,1.168-1.9c.1-.479-.159-1.006.14-1.41a5.487,5.487,0,0,0-1.718-2.728,3.9,3.9,0,0,0-2.175-.561c1.49-1.167-.19-2.937-.78-4.171-.614-1.286-.435-2.6-1.6-3.487-.57-.437-1.31.153-1.661.972a13.456,13.456,0,0,0-.82,4.241,23.041,23.041,0,0,0,.327,4.142c0,.039-.228.225.011.3-.6-.1-.758-1.139-1.241-.948-.27.481.718.9.858,1.366-.434.221-.9-.045-1.355-.094a17.362,17.362,0,0,0-6.578.681,8.5,8.5,0,0,0-2.608,1.061c-1,.821-.946,1.674.35,2.341a16.666,16.666,0,0,1,2.9,1.028,12.266,12.266,0,0,0,2.45,1.1A2.334,2.334,0,0,0,188.447,7831.543Z" transform="translate(-180.438 -7815.931)" fill="#ebcb7b" stroke="#f2d898" stroke-miterlimit="10" stroke-width="1.5" clip-rule="evenodd"/>
    </clipPath>
  </defs>
  <g id="Group_390" data-name="Group 390" transform="translate(-793.867 -226.581)">
    <g id="Group_389" data-name="Group 389">
      <g id="Group_290" data-name="Group 290">
        <g id="Group_264" data-name="Group 264" transform="translate(1321.488 774.365)">
          <g id="Group_263" data-name="Group 263" transform="translate(0)">
            <path id="Path_2490" data-name="Path 2490" d="M263.684,7825.652c-.763.67-1.689,1.17-1.808,2.279a5.018,5.018,0,0,0,.851,3.255c.175.207.57.325.84.544a4.716,4.716,0,0,0,1.681,1.092,9.5,9.5,0,0,0,1.246.366c1.744.234,2.329-1.132,2.952-2.4a5.619,5.619,0,0,0,.859-3.644c.326.129.185.725.5.229a5.569,5.569,0,0,0,.948,3.58,6.614,6.614,0,0,0,1.22,2.01c.787.512,2.656-.014,3.59-.617.217-.141.359-.458.634-.68s.7-.32.885-.523a4.956,4.956,0,0,0,.953-3.237c-.092-1.063-.795-1.652-1.721-2.32,2.324-.111,2.361-2.143,3.135-4.3.457-1.274,1.25-1.951,1.543-2.846.545-1.669-.347-2.426-1.956-1.9a18.8,18.8,0,0,0-5.059,3.3,23.329,23.329,0,0,0-3.959,4.243c-.356-.159.076-1.312-.3-1.632-.708.083-.187,1.31-.35,1.738-.8-.5-1.275-1.5-1.967-2.229a22.208,22.208,0,0,0-4.646-3.7,14.514,14.514,0,0,0-2.675-1.386c-1.533-.479-2.725.143-2.066,1.961.268.737,1.052,1.429,1.485,2.575.1.257.038.57.112.82a12.461,12.461,0,0,0,1.078,2.671A2.534,2.534,0,0,0,263.684,7825.652Z" transform="translate(-258.826 -7816.374)" fill="#ebcb7b" stroke="#f2d898" stroke-width="1.5" fill-rule="evenodd"/>
            <g id="Group_262" data-name="Group 262" clip-path="url(#clip-path)">
              <rect id="Rectangle_617" data-name="Rectangle 617" width="0.385" height="17.462" transform="translate(23.326 -0.362)" fill="#ebcb7b" stroke="#f2d898" stroke-miterlimit="10" stroke-width="1.5"/>
              <rect id="Rectangle_618" data-name="Rectangle 618" width="1.296" height="17.462" transform="translate(22.03 -0.362)" fill="#ebcb7b" stroke="#f2d898" stroke-miterlimit="10" stroke-width="1.5"/>
              <rect id="Rectangle_619" data-name="Rectangle 619" width="1.296" height="17.462" transform="translate(20.734 -0.362)" fill="#ebcb7b" stroke="#f2d898" stroke-miterlimit="10" stroke-width="1.5"/>
              <rect id="Rectangle_620" data-name="Rectangle 620" width="1.296" height="17.462" transform="translate(19.438 -0.362)" fill="#ebcb7b" stroke="#f2d898" stroke-miterlimit="10" stroke-width="1.5"/>
              <rect id="Rectangle_621" data-name="Rectangle 621" width="1.296" height="17.462" transform="translate(18.142 -0.362)" fill="#ebcb7b" stroke="#f2d898" stroke-miterlimit="10" stroke-width="1.5"/>
              <rect id="Rectangle_622" data-name="Rectangle 622" width="1.296" height="17.462" transform="translate(16.846 -0.362)" fill="#ebcb7b" stroke="#f2d898" stroke-miterlimit="10" stroke-width="1.5"/>
              <rect id="Rectangle_623" data-name="Rectangle 623" width="1.296" height="17.462" transform="translate(15.55 -0.362)" fill="#ebcb7b" stroke="#f2d898" stroke-miterlimit="10" stroke-width="1.5"/>
              <rect id="Rectangle_624" data-name="Rectangle 624" width="1.296" height="17.462" transform="translate(14.255 -0.362)" fill="#ebcb7b" stroke="#f2d898" stroke-miterlimit="10" stroke-width="1.5"/>
              <rect id="Rectangle_625" data-name="Rectangle 625" width="1.296" height="17.462" transform="translate(12.959 -0.362)" fill="#ebcb7b" stroke="#f2d898" stroke-miterlimit="10" stroke-width="1.5"/>
              <rect id="Rectangle_626" data-name="Rectangle 626" width="1.296" height="17.462" transform="translate(11.663 -0.362)" fill="#ebcb7b" stroke="#f2d898" stroke-miterlimit="10" stroke-width="1.5"/>
              <rect id="Rectangle_627" data-name="Rectangle 627" width="1.296" height="17.462" transform="translate(10.367 -0.362)" fill="#ebcb7b" stroke="#f2d898" stroke-miterlimit="10" stroke-width="1.5"/>
              <rect id="Rectangle_628" data-name="Rectangle 628" width="1.296" height="17.462" transform="translate(9.071 -0.362)" fill="#ebcb7b" stroke="#f2d898" stroke-miterlimit="10" stroke-width="1.5"/>
              <rect id="Rectangle_629" data-name="Rectangle 629" width="1.296" height="17.462" transform="translate(7.775 -0.362)" fill="#ebcb7b" stroke="#f2d898" stroke-miterlimit="10" stroke-width="1.5"/>
              <rect id="Rectangle_630" data-name="Rectangle 630" width="1.296" height="17.462" transform="translate(6.479 -0.362)" fill="#ebcb7b" stroke="#f2d898" stroke-miterlimit="10" stroke-width="1.5"/>
              <rect id="Rectangle_631" data-name="Rectangle 631" width="1.296" height="17.462" transform="translate(5.183 -0.362)" fill="#ebcb7b" stroke="#f2d898" stroke-miterlimit="10" stroke-width="1.5"/>
              <rect id="Rectangle_632" data-name="Rectangle 632" width="1.296" height="17.462" transform="translate(3.888 -0.362)" fill="#ebcb7b" stroke="#f2d898" stroke-miterlimit="10" stroke-width="1.5"/>
              <rect id="Rectangle_633" data-name="Rectangle 633" width="1.296" height="17.462" transform="translate(2.592 -0.362)" fill="#ebcb7b" stroke="#f2d898" stroke-miterlimit="10" stroke-width="1.5"/>
              <rect id="Rectangle_634" data-name="Rectangle 634" width="1.296" height="17.462" transform="translate(1.296 -0.362)" fill="#ebcb7b" stroke="#f2d898" stroke-miterlimit="10" stroke-width="1.5"/>
              <rect id="Rectangle_635" data-name="Rectangle 635" width="1.296" height="17.462" transform="translate(0 -0.362)" fill="#ebcb7b" stroke="#f2d898" stroke-miterlimit="10" stroke-width="1.5"/>
              <rect id="Rectangle_636" data-name="Rectangle 636" width="0.473" height="17.462" transform="translate(-0.473 -0.362)" fill="#ebcb7b" stroke="#f2d898" stroke-miterlimit="10" stroke-width="1.5"/>
            </g>
            <path id="Path_2492" data-name="Path 2492" d="M263.684,7825.652c-.763.67-1.689,1.17-1.808,2.279a5.018,5.018,0,0,0,.851,3.255c.175.207.57.325.84.544a4.716,4.716,0,0,0,1.681,1.092,9.5,9.5,0,0,0,1.246.366c1.744.234,2.329-1.132,2.952-2.4a5.619,5.619,0,0,0,.859-3.644c.326.129.185.725.5.229a5.569,5.569,0,0,0,.948,3.58,6.614,6.614,0,0,0,1.22,2.01c.787.512,2.656-.014,3.59-.617.217-.141.359-.458.634-.68s.7-.32.885-.523a4.956,4.956,0,0,0,.953-3.237c-.092-1.063-.795-1.652-1.721-2.32,2.324-.111,2.361-2.143,3.135-4.3.457-1.274,1.25-1.951,1.543-2.846.545-1.669-.347-2.426-1.956-1.9a18.8,18.8,0,0,0-5.059,3.3,23.329,23.329,0,0,0-3.959,4.243c-.356-.159.076-1.312-.3-1.632-.708.083-.187,1.31-.35,1.738-.8-.5-1.275-1.5-1.967-2.229a22.208,22.208,0,0,0-4.646-3.7,14.514,14.514,0,0,0-2.675-1.386c-1.533-.479-2.725.143-2.066,1.961.268.737,1.052,1.429,1.485,2.575.1.257.038.57.112.82a12.461,12.461,0,0,0,1.078,2.671A2.534,2.534,0,0,0,263.684,7825.652Z" transform="translate(-258.826 -7816.374)" fill="none" stroke="#f2d898" stroke-miterlimit="10" stroke-width="1.5" fill-rule="evenodd"/>
          </g>
        </g>
        <g id="Group_267" data-name="Group 267" transform="translate(1188.942 830.571)">
          <g id="Group_266" data-name="Group 266">
            <path id="Path_2493" data-name="Path 2493" d="M128.961,7891.694c.18,1.1.092,1.954.789,2.609a3.992,3.992,0,0,0,2.979.975c.17-.041.445-.3.727-.405s.564-.065.761-.167a5.1,5.1,0,0,0,2.192-2.481c.121-.818-1.254-3.486-1.986-4.254-.254-.266-.734-.5-1.015-.768.47-.284.927.313,1.405.532,1.3.587,4.218,1.313,5.042.621a4.248,4.248,0,0,0,1.126-2.754,3.46,3.46,0,0,0-1.685-2.968c-.912-.547-1.943-.215-2.758-.281,1.521-1.374-.209-2.506-1.156-3.945-.8-1.206-.5-2.5-2.024-3.221-.62-.3-1.315.172-1.677.957-1.2,2.612-.941,6.259-.28,8.8-.526.295-.962-.818-1.405-.533-.237.519,1.023.828,1.149,1.295a19.627,19.627,0,0,0-7.674,2.159,10.92,10.92,0,0,0-2.443,1.55c-1.071,1.11-.9,2.077.654,2.511.7.189,1.529-.1,2.557.123C126.281,7892.5,127.708,7893.862,128.961,7891.694Z" transform="translate(-120.347 -7875.097)" fill="#ebcb7b" stroke="#f2d898" stroke-width="1.5" fill-rule="evenodd"/>
            <g id="Group_265" data-name="Group 265" clip-path="url(#clip-path-2)">
              <rect id="Rectangle_637" data-name="Rectangle 637" width="0.049" height="20.605" transform="translate(20.638 -0.208)" fill="#ebcb7b" stroke="#f2d898" stroke-miterlimit="10" stroke-width="1.5"/>
              <rect id="Rectangle_638" data-name="Rectangle 638" width="1.147" height="20.605" transform="translate(19.491 -0.208)" fill="#ebcb7b" stroke="#f2d898" stroke-miterlimit="10" stroke-width="1.5"/>
              <rect id="Rectangle_639" data-name="Rectangle 639" width="1.147" height="20.605" transform="translate(18.345 -0.208)" fill="#ebcb7b" stroke="#f2d898" stroke-miterlimit="10" stroke-width="1.5"/>
              <rect id="Rectangle_640" data-name="Rectangle 640" width="1.147" height="20.605" transform="translate(17.198 -0.208)" fill="#ebcb7b" stroke="#f2d898" stroke-miterlimit="10" stroke-width="1.5"/>
              <rect id="Rectangle_641" data-name="Rectangle 641" width="1.147" height="20.605" transform="translate(16.052 -0.208)" fill="#ebcb7b" stroke="#f2d898" stroke-miterlimit="10" stroke-width="1.5"/>
              <rect id="Rectangle_642" data-name="Rectangle 642" width="1.147" height="20.605" transform="translate(14.905 -0.208)" fill="#ebcb7b" stroke="#f2d898" stroke-miterlimit="10" stroke-width="1.5"/>
              <rect id="Rectangle_643" data-name="Rectangle 643" width="1.147" height="20.605" transform="translate(13.759 -0.208)" fill="#ebcb7b" stroke="#f2d898" stroke-miterlimit="10" stroke-width="1.5"/>
              <rect id="Rectangle_644" data-name="Rectangle 644" width="1.147" height="20.605" transform="translate(12.612 -0.208)" fill="#ebcb7b" stroke="#f2d898" stroke-miterlimit="10" stroke-width="1.5"/>
              <rect id="Rectangle_645" data-name="Rectangle 645" width="1.147" height="20.605" transform="translate(11.465 -0.208)" fill="#ebcb7b" stroke="#f2d898" stroke-miterlimit="10" stroke-width="1.5"/>
              <rect id="Rectangle_646" data-name="Rectangle 646" width="1.147" height="20.605" transform="translate(10.319 -0.208)" fill="#ebcb7b" stroke="#f2d898" stroke-miterlimit="10" stroke-width="1.5"/>
              <rect id="Rectangle_647" data-name="Rectangle 647" width="1.147" height="20.605" transform="translate(9.172 -0.208)" fill="#ebcb7b" stroke="#f2d898" stroke-miterlimit="10" stroke-width="1.5"/>
              <rect id="Rectangle_648" data-name="Rectangle 648" width="1.147" height="20.605" transform="translate(8.026 -0.208)" fill="#ebcb7b" stroke="#f2d898" stroke-miterlimit="10" stroke-width="1.5"/>
              <rect id="Rectangle_649" data-name="Rectangle 649" width="1.147" height="20.605" transform="translate(6.879 -0.208)" fill="#ebcb7b" stroke="#f2d898" stroke-miterlimit="10" stroke-width="1.5"/>
              <rect id="Rectangle_650" data-name="Rectangle 650" width="1.147" height="20.605" transform="translate(5.733 -0.208)" fill="#ebcb7b" stroke="#f2d898" stroke-miterlimit="10" stroke-width="1.5"/>
              <rect id="Rectangle_651" data-name="Rectangle 651" width="1.147" height="20.605" transform="translate(4.586 -0.208)" fill="#ebcb7b" stroke="#f2d898" stroke-miterlimit="10" stroke-width="1.5"/>
              <rect id="Rectangle_652" data-name="Rectangle 652" width="1.147" height="20.605" transform="translate(3.44 -0.208)" fill="#ebcb7b" stroke="#f2d898" stroke-miterlimit="10" stroke-width="1.5"/>
              <rect id="Rectangle_653" data-name="Rectangle 653" width="1.147" height="20.605" transform="translate(2.293 -0.208)" fill="#ebcb7b" stroke="#f2d898" stroke-miterlimit="10" stroke-width="1.5"/>
              <rect id="Rectangle_654" data-name="Rectangle 654" width="1.147" height="20.605" transform="translate(1.146 -0.208)" fill="#ebcb7b" stroke="#f2d898" stroke-miterlimit="10" stroke-width="1.5"/>
              <rect id="Rectangle_655" data-name="Rectangle 655" width="1.147" height="20.605" transform="translate(0 -0.208)" fill="#ebcb7b" stroke="#f2d898" stroke-miterlimit="10" stroke-width="1.5"/>
              <rect id="Rectangle_656" data-name="Rectangle 656" width="0.39" height="20.605" transform="translate(-0.39 -0.208)" fill="#ebcb7b" stroke="#f2d898" stroke-miterlimit="10" stroke-width="1.5"/>
            </g>
            <path id="Path_2495" data-name="Path 2495" d="M128.961,7891.694c.18,1.1.092,1.954.789,2.609a3.992,3.992,0,0,0,2.979.975c.17-.041.445-.3.727-.405s.564-.065.761-.167a5.1,5.1,0,0,0,2.192-2.481c.121-.818-1.254-3.486-1.986-4.254-.254-.266-.734-.5-1.015-.768.47-.284.927.313,1.405.532,1.3.587,4.218,1.313,5.042.621a4.248,4.248,0,0,0,1.126-2.754,3.46,3.46,0,0,0-1.685-2.968c-.912-.547-1.943-.215-2.758-.281,1.521-1.374-.209-2.506-1.156-3.945-.8-1.206-.5-2.5-2.024-3.221-.62-.3-1.315.172-1.677.957-1.2,2.612-.941,6.259-.28,8.8-.526.295-.962-.818-1.405-.533-.237.519,1.023.828,1.149,1.295a19.627,19.627,0,0,0-7.674,2.159,10.92,10.92,0,0,0-2.443,1.55c-1.071,1.11-.9,2.077.654,2.511.7.189,1.529-.1,2.557.123C126.281,7892.5,127.708,7893.862,128.961,7891.694Z" transform="translate(-120.347 -7875.097)" fill="none" stroke="#f2d898" stroke-miterlimit="10" stroke-width="1.5" fill-rule="evenodd"/>
          </g>
        </g>
        <g id="Group_270" data-name="Group 270" transform="translate(1166.861 738.086)">
          <g id="Group_269" data-name="Group 269">
            <path id="Path_2496" data-name="Path 2496" d="M105.821,7800.326c-1.264,2.319-.317,6.016,2.141,7.124a8.012,8.012,0,0,0,1.611.329c.948.145,3.131-.169,3.756-1.52a9.066,9.066,0,0,0,.206-3.449,11.709,11.709,0,0,0-.979-5.168c.142.207.493.748.505.167.322,1.379,2.381,3.628,4.144,4.788a4.2,4.2,0,0,0,.853.451c1.184.24,2.837-2.128,3.414-3.92.143-.438.483-.816.544-1.049a8.776,8.776,0,0,0-.792-4.764,3.506,3.506,0,0,0-2.694-1.475c.256-.584,1.111-.833,1.335-2.013a9.607,9.607,0,0,0-.18-2.516c-.091-.771-.306-1.6-.4-2.456-.19-1.645.224-2.983.082-4.166-.148-1.283-.79-2.7-1.9-2.064a4.488,4.488,0,0,0-1.119,1.2c-2.663,3.907-4.4,10.267-4.719,14.066-.575-.354-.541-1.82-1.207-1.869-.508.647.625,1.486.5,2.283a24.277,24.277,0,0,0-6.516-2.5,18.214,18.214,0,0,0-3.1-.31,7.315,7.315,0,0,0-3.007.266c-1.21.6-1.38,2.032-.3,3.245.67.75,1.7,1.142,2.7,2.228C102.649,7799.342,103.89,7802.055,105.821,7800.326Z" transform="translate(-97.278 -7778.471)" fill="#ebcb7b" stroke="#f2d898" stroke-width="1.5" fill-rule="evenodd"/>
            <g id="Group_268" data-name="Group 268" clip-path="url(#clip-path-3)">
              <rect id="Rectangle_657" data-name="Rectangle 657" width="0.199" height="29.93" transform="translate(24.823 -0.476)" fill="#ebcb7b" stroke="#f2d898" stroke-miterlimit="10" stroke-width="1.5"/>
              <rect id="Rectangle_658" data-name="Rectangle 658" width="1.379" height="29.93" transform="translate(23.444 -0.476)" fill="#ebcb7b" stroke="#f2d898" stroke-miterlimit="10" stroke-width="1.5"/>
              <rect id="Rectangle_659" data-name="Rectangle 659" width="1.379" height="29.93" transform="translate(22.065 -0.476)" fill="#ebcb7b" stroke="#f2d898" stroke-miterlimit="10" stroke-width="1.5"/>
              <rect id="Rectangle_660" data-name="Rectangle 660" width="1.379" height="29.93" transform="translate(20.686 -0.476)" fill="#ebcb7b" stroke="#f2d898" stroke-miterlimit="10" stroke-width="1.5"/>
              <rect id="Rectangle_661" data-name="Rectangle 661" width="1.379" height="29.93" transform="translate(19.307 -0.476)" fill="#ebcb7b" stroke="#f2d898" stroke-miterlimit="10" stroke-width="1.5"/>
              <rect id="Rectangle_662" data-name="Rectangle 662" width="1.379" height="29.93" transform="translate(17.928 -0.476)" fill="#ebcb7b" stroke="#f2d898" stroke-miterlimit="10" stroke-width="1.5"/>
              <rect id="Rectangle_663" data-name="Rectangle 663" width="1.379" height="29.93" transform="translate(16.549 -0.476)" fill="#ebcb7b" stroke="#f2d898" stroke-miterlimit="10" stroke-width="1.5"/>
              <rect id="Rectangle_664" data-name="Rectangle 664" width="1.379" height="29.93" transform="translate(15.17 -0.476)" fill="#ebcb7b" stroke="#f2d898" stroke-miterlimit="10" stroke-width="1.5"/>
              <rect id="Rectangle_665" data-name="Rectangle 665" width="1.379" height="29.93" transform="translate(13.79 -0.476)" fill="#ebcb7b" stroke="#f2d898" stroke-miterlimit="10" stroke-width="1.5"/>
              <rect id="Rectangle_666" data-name="Rectangle 666" width="1.379" height="29.93" transform="translate(12.411 -0.476)" fill="#ebcb7b" stroke="#f2d898" stroke-miterlimit="10" stroke-width="1.5"/>
              <rect id="Rectangle_667" data-name="Rectangle 667" width="1.379" height="29.93" transform="translate(11.032 -0.476)" fill="#ebcb7b" stroke="#f2d898" stroke-miterlimit="10" stroke-width="1.5"/>
              <rect id="Rectangle_668" data-name="Rectangle 668" width="1.379" height="29.93" transform="translate(9.653 -0.476)" fill="#ebcb7b" stroke="#f2d898" stroke-miterlimit="10" stroke-width="1.5"/>
              <rect id="Rectangle_669" data-name="Rectangle 669" width="1.379" height="29.93" transform="translate(8.274 -0.476)" fill="#ebcb7b" stroke="#f2d898" stroke-miterlimit="10" stroke-width="1.5"/>
              <rect id="Rectangle_670" data-name="Rectangle 670" width="1.379" height="29.93" transform="translate(6.895 -0.476)" fill="#ebcb7b" stroke="#f2d898" stroke-miterlimit="10" stroke-width="1.5"/>
              <rect id="Rectangle_671" data-name="Rectangle 671" width="1.379" height="29.93" transform="translate(5.516 -0.476)" fill="#ebcb7b" stroke="#f2d898" stroke-miterlimit="10" stroke-width="1.5"/>
              <rect id="Rectangle_672" data-name="Rectangle 672" width="1.379" height="29.93" transform="translate(4.137 -0.476)" fill="#ebcb7b" stroke="#f2d898" stroke-miterlimit="10" stroke-width="1.5"/>
              <rect id="Rectangle_673" data-name="Rectangle 673" width="1.379" height="29.93" transform="translate(2.758 -0.476)" fill="#ebcb7b" stroke="#f2d898" stroke-miterlimit="10" stroke-width="1.5"/>
              <rect id="Rectangle_674" data-name="Rectangle 674" width="1.379" height="29.93" transform="translate(1.379 -0.476)" fill="#ebcb7b" stroke="#f2d898" stroke-miterlimit="10" stroke-width="1.5"/>
              <rect id="Rectangle_675" data-name="Rectangle 675" width="1.379" height="29.93" transform="translate(0 -0.476)" fill="#ebcb7b" stroke="#f2d898" stroke-miterlimit="10" stroke-width="1.5"/>
              <rect id="Rectangle_676" data-name="Rectangle 676" width="0.363" height="29.93" transform="translate(-0.363 -0.476)" fill="#ebcb7b" stroke="#f2d898" stroke-miterlimit="10" stroke-width="1.5"/>
            </g>
            <path id="Path_2498" data-name="Path 2498" d="M105.821,7800.326c-1.264,2.319-.317,6.016,2.141,7.124a8.012,8.012,0,0,0,1.611.329c.948.145,3.131-.169,3.756-1.52a9.066,9.066,0,0,0,.206-3.449,11.709,11.709,0,0,0-.979-5.168c.142.207.493.748.505.167.322,1.379,2.381,3.628,4.144,4.788a4.2,4.2,0,0,0,.853.451c1.184.24,2.837-2.128,3.414-3.92.143-.438.483-.816.544-1.049a8.776,8.776,0,0,0-.792-4.764,3.506,3.506,0,0,0-2.694-1.475c.256-.584,1.111-.833,1.335-2.013a9.607,9.607,0,0,0-.18-2.516c-.091-.771-.306-1.6-.4-2.456-.19-1.645.224-2.983.082-4.166-.148-1.283-.79-2.7-1.9-2.064a4.488,4.488,0,0,0-1.119,1.2c-2.663,3.907-4.4,10.267-4.719,14.066-.575-.354-.541-1.82-1.207-1.869-.508.647.625,1.486.5,2.283a24.277,24.277,0,0,0-6.516-2.5,18.214,18.214,0,0,0-3.1-.31,7.315,7.315,0,0,0-3.007.266c-1.21.6-1.38,2.032-.3,3.245.67.75,1.7,1.142,2.7,2.228C102.649,7799.342,103.89,7802.055,105.821,7800.326Z" transform="translate(-97.278 -7778.471)" fill="none" stroke="#f2d898" stroke-miterlimit="10" stroke-width="1.5" fill-rule="evenodd"/>
          </g>
        </g>
        <g id="Group_273" data-name="Group 273" transform="translate(1246.459 773.941)">
          <g id="Group_272" data-name="Group 272">
            <path id="Path_2499" data-name="Path 2499" d="M188.447,7831.543c.048.668-.268,1.7.308,2.49a4.131,4.131,0,0,0,2.571,1.593,6.47,6.47,0,0,0,.843-.187,5.419,5.419,0,0,0,2.659-1.016c1.248-1.031.7-2.2.3-3.467a5.363,5.363,0,0,0-1.576-2.886c.192-.119.512.3.3-.114a8.923,8.923,0,0,0,2.936,1.932c.862.381,1.8.836,2.375.447a3.78,3.78,0,0,0,1.168-1.9c.1-.479-.159-1.006.14-1.41a5.487,5.487,0,0,0-1.718-2.728,3.9,3.9,0,0,0-2.175-.561c1.49-1.167-.19-2.937-.78-4.171-.614-1.286-.435-2.6-1.6-3.487-.57-.437-1.31.153-1.661.972a13.456,13.456,0,0,0-.82,4.241,23.041,23.041,0,0,0,.327,4.142c0,.039-.228.225.011.3-.6-.1-.758-1.139-1.241-.948-.27.481.718.9.858,1.366-.434.221-.9-.045-1.355-.094a17.362,17.362,0,0,0-6.578.681,8.5,8.5,0,0,0-2.608,1.061c-1,.821-.946,1.674.35,2.341a16.666,16.666,0,0,1,2.9,1.028,12.266,12.266,0,0,0,2.45,1.1A2.334,2.334,0,0,0,188.447,7831.543Z" transform="translate(-180.438 -7815.931)" fill="#ebcb7b" stroke="#f2d898" stroke-width="1.5" fill-rule="evenodd"/>
            <g id="Group_271" data-name="Group 271" clip-path="url(#clip-path-4)">
              <rect id="Rectangle_677" data-name="Rectangle 677" width="1.113" height="19.995" transform="translate(18.918 -0.288)" fill="#ebcb7b" stroke="#f2d898" stroke-miterlimit="10" stroke-width="1.5"/>
              <rect id="Rectangle_678" data-name="Rectangle 678" width="1.113" height="19.995" transform="translate(17.806 -0.288)" fill="#ebcb7b" stroke="#f2d898" stroke-miterlimit="10" stroke-width="1.5"/>
              <rect id="Rectangle_679" data-name="Rectangle 679" width="1.113" height="19.995" transform="translate(16.693 -0.288)" fill="#ebcb7b" stroke="#f2d898" stroke-miterlimit="10" stroke-width="1.5"/>
              <rect id="Rectangle_680" data-name="Rectangle 680" width="1.113" height="19.995" transform="translate(15.58 -0.288)" fill="#ebcb7b" stroke="#f2d898" stroke-miterlimit="10" stroke-width="1.5"/>
              <rect id="Rectangle_681" data-name="Rectangle 681" width="1.113" height="19.995" transform="translate(14.467 -0.288)" fill="#ebcb7b" stroke="#f2d898" stroke-miterlimit="10" stroke-width="1.5"/>
              <rect id="Rectangle_682" data-name="Rectangle 682" width="1.113" height="19.995" transform="translate(13.354 -0.288)" fill="#ebcb7b" stroke="#f2d898" stroke-miterlimit="10" stroke-width="1.5"/>
              <rect id="Rectangle_683" data-name="Rectangle 683" width="1.113" height="19.995" transform="translate(12.241 -0.288)" fill="#ebcb7b" stroke="#f2d898" stroke-miterlimit="10" stroke-width="1.5"/>
              <rect id="Rectangle_684" data-name="Rectangle 684" width="1.113" height="19.995" transform="translate(11.129 -0.288)" fill="#ebcb7b" stroke="#f2d898" stroke-miterlimit="10" stroke-width="1.5"/>
              <rect id="Rectangle_685" data-name="Rectangle 685" width="1.113" height="19.995" transform="translate(10.016 -0.288)" fill="#ebcb7b" stroke="#f2d898" stroke-miterlimit="10" stroke-width="1.5"/>
              <rect id="Rectangle_686" data-name="Rectangle 686" width="1.113" height="19.995" transform="translate(8.903 -0.288)" fill="#ebcb7b" stroke="#f2d898" stroke-miterlimit="10" stroke-width="1.5"/>
              <rect id="Rectangle_687" data-name="Rectangle 687" width="1.113" height="19.995" transform="translate(7.79 -0.288)" fill="#ebcb7b" stroke="#f2d898" stroke-miterlimit="10" stroke-width="1.5"/>
              <rect id="Rectangle_688" data-name="Rectangle 688" width="1.113" height="19.995" transform="translate(6.677 -0.288)" fill="#ebcb7b" stroke="#f2d898" stroke-miterlimit="10" stroke-width="1.5"/>
              <rect id="Rectangle_689" data-name="Rectangle 689" width="1.113" height="19.995" transform="translate(5.564 -0.288)" fill="#ebcb7b" stroke="#f2d898" stroke-miterlimit="10" stroke-width="1.5"/>
              <rect id="Rectangle_690" data-name="Rectangle 690" width="1.113" height="19.995" transform="translate(4.451 -0.288)" fill="#ebcb7b" stroke="#f2d898" stroke-miterlimit="10" stroke-width="1.5"/>
              <rect id="Rectangle_691" data-name="Rectangle 691" width="1.113" height="19.995" transform="translate(3.339 -0.288)" fill="#ebcb7b" stroke="#f2d898" stroke-miterlimit="10" stroke-width="1.5"/>
              <rect id="Rectangle_692" data-name="Rectangle 692" width="1.113" height="19.995" transform="translate(2.226 -0.288)" fill="#ebcb7b" stroke="#f2d898" stroke-miterlimit="10" stroke-width="1.5"/>
              <rect id="Rectangle_693" data-name="Rectangle 693" width="1.113" height="19.995" transform="translate(1.113 -0.288)" fill="#ebcb7b" stroke="#f2d898" stroke-miterlimit="10" stroke-width="1.5"/>
              <rect id="Rectangle_694" data-name="Rectangle 694" width="1.113" height="19.995" transform="translate(0 -0.288)" fill="#ebcb7b" stroke="#f2d898" stroke-miterlimit="10" stroke-width="1.5"/>
              <rect id="Rectangle_695" data-name="Rectangle 695" width="0.306" height="19.995" transform="translate(-0.306 -0.288)" fill="#ebcb7b" stroke="#f2d898" stroke-miterlimit="10" stroke-width="1.5"/>
            </g>
            <path id="Path_2501" data-name="Path 2501" d="M188.447,7831.543c.048.668-.268,1.7.308,2.49a4.131,4.131,0,0,0,2.571,1.593,6.47,6.47,0,0,0,.843-.187,5.419,5.419,0,0,0,2.659-1.016c1.248-1.031.7-2.2.3-3.467a5.363,5.363,0,0,0-1.576-2.886c.192-.119.512.3.3-.114a8.923,8.923,0,0,0,2.936,1.932c.862.381,1.8.836,2.375.447a3.78,3.78,0,0,0,1.168-1.9c.1-.479-.159-1.006.14-1.41a5.487,5.487,0,0,0-1.718-2.728,3.9,3.9,0,0,0-2.175-.561c1.49-1.167-.19-2.937-.78-4.171-.614-1.286-.435-2.6-1.6-3.487-.57-.437-1.31.153-1.661.972a13.456,13.456,0,0,0-.82,4.241,23.041,23.041,0,0,0,.327,4.142c0,.039-.228.225.011.3-.6-.1-.758-1.139-1.241-.948-.27.481.718.9.858,1.366-.434.221-.9-.045-1.355-.094a17.362,17.362,0,0,0-6.578.681,8.5,8.5,0,0,0-2.608,1.061c-1,.821-.946,1.674.35,2.341a16.666,16.666,0,0,1,2.9,1.028,12.266,12.266,0,0,0,2.45,1.1A2.334,2.334,0,0,0,188.447,7831.543Z" transform="translate(-180.438 -7815.931)" fill="none" stroke="#f2d898" stroke-miterlimit="10" stroke-width="1.5" fill-rule="evenodd"/>
          </g>
        </g>
      </g>
      <g id="Group_388" data-name="Group 388">
        <g id="Group_387" data-name="Group 387">
          <g id="Group_386" data-name="Group 386">
            <g id="Component_1_1" data-name="Component 1 – 1" transform="translate(793.869 227.331)">
              <g id="Group_261" data-name="Group 261" transform="translate(379.975)">
                <path id="Path_2489" data-name="Path 2489" d="M491.439,7688.274c-2.442,0-3.2-1.844-6.124-1.844-6.016,0-3.315-8.722-6.238-11.619s-3.8,2.459-7.586,1.339c-1.574-.438-5.143-.438-7.138-.884-4.918-1.128-3.6-1.338-3.6-4.471,0-4.551-12.589-15.048-15.851-8.049-1.348,2.921-2.7,7.6-4.47,9.38-1.542,1.575-6.712,2.685-9.159,1.575-2.67-1.348-4.69-5.137-8.287-5.137-10.568,0-3.908,11.322-7.365,12.949-3.315,1.574-9.381,4.016-9.381-3.806,0-19.432-15.177-14.277-13.828-9.807,1.126,3.342,13.149,10.928,3.121,15.849-4.47,2.234-1.995-6.042-5.143-6.042-6.685,0-5.564,2.473-8.934,5.816-3.8,3.79-2.221-4.47.9-7.585,1.8-1.8,11.635-6.27,3.375-8.951-4.27-1.32-5.4,2.459-8.513,2.459s-2.668-5.8.9-5.8c2.9,0,4.022-12.73-9.807-8.26-10.955,3.569.426-15.187.2-15.415-2.222-2.233-12.729-4.464-14.751-.222-5.342,10.718,4.691,21.437-12.929,21.437-12.982,0-23.043,15.43-29.954,8.486-5.564-5.574-10.055,0-15.117.017,0-8.418,6.07-8.95,14.471-6.841,9.472,2.371,7.11-8.163,13.182-5.258,20.261,10.005,20.514-15.268,9.214-15.268-3.962,0-4.5,3.676-6.6,5.784-1.041,1.058-5.537-3.427-8.686-3.427-.787,0-8.933,7.126-8.933,1.057,0-3.684,8.146-8.152,3.931-12.363-6.319-6.325-10.789,5.521-15,5.521-8.146,0,0-11.846-3.43-15.274-4.323-4.33-14.049.594-19.219.594-3.6,0-6.459-1.634-3.144-8.222,2.642-5.268,7.079-12.633-4.749-12.633-5.256,0-3.4,6.577-7.9,6.577-7.639,0-7.639-4.215-14.723-4.215-5.225,0,3.655-6.955,3.655-13.168,0-4.732-14.218,2.633-17.085,1.321-9.748-4.748,7.078-8.426.787-14.733-3.709-3.7-5.537-1.591-11.575-1.591-5.284,0,.507,8.432.507,8.685,0,5-8.685,3.694-12.308,3.817,0-15.775-11.688.733-18.212.733-13.937,0-5.337-13.219-6.685-24.9-1.067-9.214-5.758-14.312-21.609-6.387-16.885,8.4-16.605-22.44-24.7-17.076-2.167,0-4.329,2.6-5.623-.149-1.18-2.32,4.89-11.592-1.461-11.592-3.762,0-5.17-1.434-7.078-3.316-2.162-2.178.193-11.425,6.464-11.83,5.732-.382,8.147-4.583,8.373-6.394.167-1.743,3.989-.129,5.617.282,1.914.479,3.683.759,3.683-2.152,0-12.136,9.441-2.432,11.748-2.432,7.613,0,1.321-7.769,2.162-8.608,2.668-2.669,11.521,5.579,11.521-2.556,0-10.061-11.408,0-6.912-13.587,2.108-6.465-10.4-11.942-1.8-15.765,2.529-1.225,6.3-2.063,6.3-5.592,0-11.267-9.947.745-12.141,2.923-4.437,4.48-4.944-3.769-2.162-5.834,8.454-6.42-.367-5.337-.367-10.55,0-2.187,6.8-.237,7.98-2.792,2.556-5.213-.841-5.451-4.831-3.516-2.781,1.337-8.938,1.829-10.286-2.3-1.574-4.847,7.5-2.43,10.648-2.43,2.674,0,1.461-11.157-6.885-5.582-9.214,6.185-7.019-4.367-11.856-9.214-7.866-7.882-7.866,2.432-14.276,1.4,0-3.721,3.542-6.433-5-6.433-2.307,0-11.494,3.554-11.494-2.963,0-16.844-15.878,6.437-15.878-4.734,0-4.331-8.12-10.751-5.391-12.11,2.075-1.029,5.45,3.72,9.1,3.72,5.4,0,4.329-6.772-.674-7.714-1.855-.335-9.467-3.635-9.467-5.409,0-5.606,8.54,5,11.381.561,0-13.834-9.84-3.562-13.63-11.391-2.9-5.79,14.3-4.243,5.143-13.387-1.574-1.564-9.386-6.493-6.017-9.839,5.116-5.139,7.813,11.171,11.8,7.153,2.474-2.457,5.4-2.011,5.4,2.9,0,3.58,5.337,6.039,9.16,6.039,6.912,0-4.044-12.519-4.044-12.519-4.442-6.686,8.934,0,10.055,0,2.7,0,1.353-3.79,4.7-3.79s4.918,2.233,7.813,2.233c8.285,0,9.834-8.487,7.386-13.632-3.6-7.375-12.53,9.388-17.647,4.244-1.574-1.558-4.5-6.7-6.265-8.47-2.9-2.922,4.017-7.376,6.718-4.7,11.154,11.161,16.3-13.412,16.3-5.154,0,7,5.252,5.721,9.748,3.625,4.524-2.1,11.689-10.763,16.384-6.066,3.569,3.569,9.608-1.127,6.459-4.243-3.9-3.919,8.713-16.918,14.951-6.48v-6.362c5.424.727,7.332,5.014,10.2,5.014h.534c.448-.533.841-.884,1.127-.884.9,0,1.8,0,2.636.016,4.077-1.783,5.424-5.607-.054-5.607-9.386,0-5.365-5.143-10.061-9.822-5.111-5.144-9.607,8.94-15.172,3.343-1.8-1.779-.226-8.487-2.021-10.264-2.248-2.239-8.038-.9-8.038-5.145,0-8.049,19.22,4.916,19.22-7.154,0-7.6,3.09-21.663,15.9-17.463,7.139,0-3.936-7.106-4.216-7.91-1.855-3.682,2.641-7.375,5.284-4.722,5,4.993,14.724,8.685,14.724-3.947,0-5.547,8.712-4.227,11.068-6.6,3.937-3.945-8.426-18.416-1.574-16.308,1.574.534,4.217,1.573,5.284,3.147,1.828,2.637-.28,11.587,2.616,12.908,6.83,3.418,4.749-1.585,11.575-1.585,9.473,0,6.324,4.216,15.543-.254,2.636-1.32,5.5-15.271,13.683-7.111,4.75,4.741-2.108,15.258,14.751,12.632,4.216,0-.534-8.949-.534-9.213-.787-1.845-6.831-6.576-6.831-8.152,0-.8,7.872,0,8.432.524.507.532,5,5.783,6.577,5.783,5,0,7.079-5.25,7.079-9.467,0-9.217-11.575-6.055-15-9.482-.788-.787-6.3-5.791-6.3-7.63,0-8.177,24.73,2.9,20.794-9.218-2.108-6.853,3.936-10.535,7.112-3.965,4.463,9.221,11.575-.5,12.362-6.306,0-15.792,9.467,0,17.393-7.894,6.044-6.053,12.616-11.073,15.792-17.635,5-10.018,9.219,1.844,10.507,1.844,20.541,0,5-8.966,10.54-11.592,13.964-6.841,3.43,20.542,15.258,20.542,3.176,0,2.922-3.165,5.79-3.165,13.431,0,3.963,10.794,13.177,10.794,12.9,0,13.683-6.327,13.683-17.384,0-3.413,10.287-2.893,13.435-4.464,3.7-1.843,5-4.75,8.707-6.594,6.044-2.889,7.618,0,12.869-.656.62,0,3.488,2.231,3.488-.873,0-.377,2.863-4.62,3.483-3.99.9.856,6.966,8.092,6.966.491,0-1.488-.615-6.983.254-7.852,3.008-2.993.14,5.478,5.844,2.609,3.736-1.865-2.108-7.236,1.995-11.337,3.989-3.99-3.849-17.463,3.849-17.463,4.977,0,2.5,9.975,3.629,12.351,3.71,7.474,4.6-3.131,4.6-5.746,0-4.97,6.324,10.228.846,10.228-4.47,0-6.351,8.976,2.755,8.976,5.845,0,3.09,15.6,13.176,5.494,2-2,4.864,4.986,8.853,2.982,3.962-2,.841-8.093-.76-9.727-.648-.615-5.732-8.469-5.225-8.977,2.216-2.231,5.845,5.117,7.839,6.114,7.473,3.752,4.465-5.984,11.182-4.357,3.369.745,5.731,11.214,11.085,5.86,1.983-1.993,1.11-13.46-.632-15.218-4.976-4.987-11.575,5.24-14.67,5.24-11.182,0,1.855-5.731-1.122-8.723-3.375-3.371-5.229.744-8.486-1.025-4.917-2.4-4.8-8.108,1.827-8.108,5.252,0,8.007,2.4,12.7,2.4,3.655,0,20.234-17.041,20.234-3.2,0,2.739-.114,9.483,1.04,11.773,1.364,2.739,7.542,4.113,10.06,1.6,1.823-1.826-5.947-16.69,2.625-12.463,10.174,5.03,12.126-14.525,25.723-.911,2.869,2.853,3.095-3.78,8.346,1.487,7.548,7.542,8.923-4.583,15.555,2.049,2.755,2.744,5.494,29.167,11.9,9.838,1.138-3.655,12.114-6.873,15.328-3.655,2.852,2.852-6.869,8.908,3.429,8.908,6.944-3.537,12.561,6.885,17.873,4.232,6.448-3.138-8.12-7.451-4.314-11.242,2.976-2.979,14.74,13.561,16.886,15.722.5.491,7.785-2,10.26-1.164,6.631,2.162,5.138,11.759,15.565,11.759,8.615,0,7.122-4.8,11.425-4.8,8.933,0,4.8,10.422,15.058,10.422h10.594c3.148,0-.324,7.3,1.488,7.3,3.979-.663,14.907,0,14.907-5.634,0-6.13-6.292-4.637-10.1-7.447-1.661-1.153-4.135-2.151-4.135-4.636,0-5.467,2.642-4.146,4.286-.83,3.316,6.632,16.244.83,18.713,5.787,1.17,2.489,0,14.416.34,14.739,1.489,1.487,8.276,4.959,8.276,0,0-6.449-3.807-12.748,6.292-12.748,6.955,0,2.815,10.769,2.815,13.577,0-.663.824,2.469,1.315,3.473,2.642,5.461,14.573-11.09,14.573,1.5,0,8.109,8.275,5.624,15.565,3.306,2.319-.663,5.128-1.827,7.618-.663,11.743,5.791-17.382,7.785-5.806,19.359,4.976,4.976,17.382-3.13,17.382,2,0,3.472-6.125,10.594,1.655,10.594,13.91,0,5.973,14.078,1.337,9.43-2.992-2.981-8.782-2.981-12.923-2.981-4.793,0-.323,7.785-.323,8.614,6.572,3.327,20.735.421,23.657,3.327,5.24,5.242-4.286,11.651,3.483,15.544,3.121,1.542,12.238-5.833,14.95-.2,2.528,5.047-3.682,6.211-3.682,9.9,0,10.681,17.269-5.634,21.932,3.875,6.6,13.394,12.616-2.9,8.152-2.9-.394,0-3.882-5.828-1.547-5.828,9.116,0,3.5,10.1,17.662,10.1,2.723,0,12.432-4.088,15.144-1.365,1.542,1.564,4.077,1.941,5.041,4.077.97,1.941.2,5.057-1.936,5.057-3.8.06-6.534,9.908-2.631,12.508,1.871,1.32,7.8,4.5,9.09.291,1.014-3.187,3.769-3.763,6.664-3.187,3.6.728,7.063,4.341,5.041,8.541-.436,1.015-1.725,3.331-1.725,4.636,0,2.755,3.9,3.333,3.9,3.77,7.5,8.821,3.316,6.8,3.316,17.22,0,4.355,9.822,2.038,12.562,2.9,11.408,3.779-.857,13.91,2.9,17.678,3.035,3.03,1.148,5.505-1.882,6.955-9.629,4.718,5.381,8.935,9.538,4.777,1.882-1.887,1.585-18.536,10.395-9.708,0,0,.717,19.122,6.367,10.577,3.019-4.638-.14-11.732,6.631-8.4,2.9,1.445-4.188,22.58,6.8,17.085,6.771-3.331,10.4,6.8,6.054,11.154-4.464,4.5-6.351,5.215-1.289,10.282,2.459,2.447.729,7.952-2.167,7.952-2.162,0-10.831-8.819-10.831,2.179,0,.139,5.2,3.768,5.634,4.2,3.316,3.332-5.057,1.434-5.057,1.434-6.1,2.574-2.038,14.5-6.8,19.275s-10.637-3.09-14.277-3.09c-2.5,0-3.062,6.029-6,7.437-3.79,1.828-7.289,1.261-8.96-2.107-.141-.422-.426-3.938-.847-3.938-2.668,0,.281,5.2-2.792,5.2-1.688,0-5.187-.559-6.874-.559-2.092,0-2.372,7.153,5.326,7.153,2.512,0,9.947-1.127,11.338.282,1.811,1.821,1.267,12.2,4.906,12.2,3.9,0,11.883-.14,11.883,4.767,2.092.578,3.666,7.682,7.1,7.682,8.685,0,13.166-6.858,13.166,4.734,0,6.84,7.893,6.324,13.953,6.324,5,0,7.893,9.991,5,9.991-4.745,0-1.051-6.578-8.162-6.578-11.322,0,2.631,15.793,2.631,18.7,0,7.63-8.163,6.054-10.271,10.524-1.31,2.641-1.574,7.628,1.321,10.535,3.693,3.682-17.366,1.574-9.22,9.736,3.694,3.693,13.953-12.109,13.953,0,3.9,10.482-10.016,16.946,3.65,23.659,6.7,3.234,16.412-9.2,22.639-2.993,2.976,2.993-1.758,13.181-1.758,18.152,0,6.954,6.222,5.229,6.222,12.685,0,11.68-21.129-6.964-21.129,5.705a7.1,7.1,0,0,0,4.216,6.986c3.99,1.964-3.963,4.212-5.973,4.212-2.723,0,0,8.205-8.68,8.205-3.008,0-3.99-4.479-9.711-4.479-5.973,0,5.72,10.2,5.72,10.943,0,6.212-13.436-1.235-13.436,3.483-1.234-.508-7.952,13.684-12.416,15.9-8.966,4.48-9.947-.981-18.153-.981s-10.454,2.487-5.72,7.209c.733.744,13.182.49,7.462,6.221-3.245,3.22-8.222-2.485-9.457.237-4.226,8.712,1.995,11.932-11.925,11.932-2.249,0-3.99-3.726-7.225-3.726-2.232,0-14.427,3.483-13.667,4.976,1.995,4.228,16.153,5.462,12.923,12.179-1.488,3.23-3.483,5.731-6.955,2.249-2.232-2.249-10.454,4.216-5.968,4.216-5.807-.789,4.367,13.052-.113,17.516-3.262,3.263-14.233,1.635-14.233,10.191,0,5.282-4.076,2.022-6.114,2.022-5.688,0,2.038-13.028,2.038-13.432,0-6.507-8.136-2.841-8.136,0,0,2.038-3.666,9.354-6.5,9.354-3.666,0-8.556,1.633-8.556-3.65,0-2.448-6.912-2.037-8.135-.814-2.055,2.033-8.95,7.318-8.95-1.223,0-4.889,3.65-8.136-4.89-8.136-2.852,0-11.786,8.95-8.136,12.617,1.633,1.615,6.912,1.207,6.912,4.873-4.044,1.364-4.044,8.588-10.691,1.913-5.423-5.441-15.468,6.675-4.479,12.108,7.742,3.807,2.852,13.463-4.34,13.463-2.712,0,0-5.3-1.084-6.394-3.116-3.121-8.82-4.341-6.254-9.65,2.588-5.16-.813-9.938-2.7-13.744-6.114-12.238-8.147,9.932-13.177-10.6-.814-3.542-5.143-2.179-6.648-.681-2.162,2.18,5.441,12.1,1.364,12.1-7.321,0,.194-18.88-10.718-12.912-3.559,1.942-8.5-10.282-11.161-10.254-1.3,0-2.389,8.767-7.569,8.767-2.038,0-8.95-5.86-12.082-2.725-3.262,3.257,4.07,6.8-4.33,6.8-9.37,0-1.768-11.565-15.748-4.637-4.2,2.048-16.552-4.891-13.306,1.768,1.095,2.178,13.84,4.231,10.045,8.023-3.4,3.4,3.666,12.659,7.192,7.208,4.076-6.255,6.507-1.629,3.671,1.233-2.178,2.18,4.06,7.209,2.3,8.981-3.4,3.4-4.216.546-6.114-1.363-2.712-2.729-2.852,2.177-.814,4.216,1.5,1.5-3.116,12.232-3.385,12.232-4.75,0-1.488-4.479-.814-6.518.943-2.991-2.3-7.208-3.526-4.76-1.364,2.852-7.192,6.8-7.192.281,0-2.193,1.9-4.088,1.219-7.085-.4-1.638-4.48-1.908-4.48-.954-5.828-.954-6.788-.281-9.494-5.855-1.9-3.936-9.629-1.084-7.462,3.411.814,1.76,7.743,2.993,1.629,5.986-2.723,1.347-5.424-1.769-8.416,1.223-1.224,1.219-2.038,7.883.814,7.883,3.936,0,3.386-4.486,7.742-4.486,4.47,0,1.618,3.132,1.618,5.31,0,6.115,9.09,4.486,9.09,10.471,0,1.628.954,5.31-1.628,5.31-.944,0-1.354-6.265-5.02-8.038-2.975-1.49-4.749,4.636-7.866,1.5-7.909-7.927-2.712,8.048-2.712,10.075,0,4.465-5.014,5.813-11.8,5.813-7.332,0-1.363-8.427-3.132-12.083-1.084-2.189-5.424-1.515-6.928-2.992a4.261,4.261,0,0,1-1.208-3.133c0-3.763-.307-5.423-4.366-6.964-7.2-2.746-16.864,2.722-21.118-1.532-4.847-4.864-6.464-8.223-12.433-2.238-3.235,3.234-3.85,6.229-10.454,6.229-7.952,0-5.467,9.228-8.319,13.585a12.649,12.649,0,0,1-3.9,3.483,12.31,12.31,0,0,1-4.7,4.8,5.039,5.039,0,0,0-2.162,2.3,104.312,104.312,0,0,0-3.92,11.383c-2.841,11.268-5.17,22.649-8.233,33.862-3.385,12.417-5.369,9.159-6.307,21.857-.593,7.952-1.1,15.849.981,23.829a89.539,89.539,0,0,1,3.079,23.3c-.323,32.117,8.373,39.87,30.488,48.809,1.768.7,7.8-.454,15.539.76,6.011.926,13.063,4.41,19.937,4.3,8.217-.168,17.7,1.907,22.887,1.966,2.895.056,9.117-5.957,17.953-5.168,4.27.392,8.879.841,13.543,1.262,16.637,1.546,30.968,6.522,33.987,6.377,5.618-.281,8.626,0,20.978,2.308,12.293,2.3,32.565-.847,43.412.333,10.874,1.24,52.437,14.363,35.141,15.177-29.491,4.83-66.681,2.136-100.668,3.571-67.511,2.808-169.555,2.835-242.16.221-95.115-3.4-169.445.432-247.648,1.611l9.939-2.294c23.464-1.349,52.223-15.023,73.3-12.663,23.717,2.7,22.116,1.966,50.41-5.17,47.994-12.083,14.39-1.181,72.946-15.176,4.949-.476,22.2,5.143,26.1,8.458a12.851,12.851,0,0,0,4.8,2.448l1.855.561,1.6-.986c-.361-.28-.954-.616-1.768-1.122-.814-.481-1.828-1.127-3.062-1.968-.787-.448-1.489-.873-2.109-1.262,13.463-1.493,22.369,5.111,27.933-7.558a28.184,28.184,0,0,0,2.7-10.314c.167-2.587,1.574-5.144,2.415-7.729.593-1.769,1.634-12.839,1.661-14.579.112-5.171-.48-10.286-.254-15.458.447-11.748-.734-23.658,4.706-34.9.21-8.939.647-2.136.07-11.014-.561-8.546-2.459-16.946-4.146-25.345a37.919,37.919,0,0,0-3.667-9.588c-2.415-4.831-5.116-9.521-7.866-14.189s-5.59-9.328-8.658-13.8C511.673,7710.7,501.807,7688.274,491.439,7688.274Z" transform="translate(-82.992 -7095.593)" fill="none" stroke="#f2d898" stroke-miterlimit="10" stroke-width="1.5" fill-rule="evenodd"/>
              </g>
              <g id="Group_276" data-name="Group 276" transform="translate(508.138 621.316)">
                <g id="Group_275" data-name="Group 275">
                  <g id="Group_274" data-name="Group 274">
                    <path id="Path_2502" data-name="Path 2502" d="M298.261,7917.675a16.7,16.7,0,0,1,1.155,8.595c-.224-.049-.136-.414-.164-.657a10.555,10.555,0,0,1-1.324,3.471,5.62,5.62,0,0,1,.5-2.646c-.723.492-.889,2.414-.99,2.978-1.306,1.6-1.743,3.892-3.144,5.619-1.463,1.812-3.9,2.992-4.466,5.46.126.764-.63.23-.661.5,1.7,1.622,4.234,2.6,5.789,4.629.423.555.548,1.3.993,1.82,1.136,1.349,2.974,2.068,4.3,3.306,2.087,1.95,3.429,4.253,5.291,6.12v1.816c7.141,5.32,14.24,10.678,21.5,15.877,2.548.649,5.5.891,7.111,2.481a32.51,32.51,0,0,0,.991,5.951c-.772.763-.16,1.913-1.156,2.48a1.417,1.417,0,0,1,.33,1.657c-1.969.907-3.877-.781-4.629-2.152-1.155,0-.681.964-.332,1.488.347.031,1.613,0,1.819.664.21,1.641-1.551,1.31-2.315,1.98-2.405-1.226-3.213-3.16-4.63-5.455-.765-1.241-1.1-2.864-1.985-3.97-2.185-2.722-6.126-3.764-9.425-5.624-3.333-1.875-5.571-4.647-8.762-6.115,1.335,5.558,5.98,7.917,9.26,12.236,2.87,3.785,4.077,6.5,5.952,11.242.687,1.739,2.778,3.972-.166,4.631.6.946.739,2.051,1.323,3.141.612,1.14,1.307,1.632,1.323,3.64.036,4.569-2.231,9.947-4.134,12.733.773,1.839.753,9.255-3.141,7.442-2.083,5.192-3.865,10.687-5.623,16.205,4.506.869,8.319,2.917,12.4,4.465,3.194,1.212,6.6,1.81,8.762,4.134,6.142.226,7.969,9.589,4.466,14.055-1.007.428-1.388,1.477-2.48,1.82-2.074,4.7-3.781,11.362-8.93,12.73-5.495,1.466-5.272-7.279-2.976-10.911-1.528-3.377-7.235-2.578-9.756-4.963.46,4.357,3.307,7.98,3.8,12.4.122,1.063-.307,2.229-.164,3.306.172,1.3,1.524,2.492,1.322,3.969a15.032,15.032,0,0,0-2.645.662c.144,1.422,2.737,2.908,1.985,5.127-.6,1.769-5.287,3.08-7.276,4.132-1.2.636-2.417,1.427-3.638,2.151-1.766,1.052-2.96,2.332-5.622,2.313a19.149,19.149,0,0,1-10.251-3.635c.206-.618.154-1.5.495-1.987.761-.76,1.975-.675,3.638-.824s3.194-.828,4.3-.826c1.617-1.479,2.052-3.316,3.638-4.962-1.245-.3-2.957-.131-3.966-.662-.615-1.581-.135-3.217-.167-4.8-.047-2.311-1.054-4.357-1.489-6.449-.513-2.464-.537-4.845-1.157-7.107a60.123,60.123,0,0,0-2.315-5.789c-.769-1.972-1.229-4.224-1.985-6.283a37.5,37.5,0,0,1-1.985-6.121c-.776-4.674-.134-10.267.33-15.211.559-5.912,2.154-11.481,3.473-16.866.436-1.779,1.24-3.313,1.654-4.964.453-1.8-.11-3.38,1.158-4.629a4.668,4.668,0,0,0-1.489-3.14c-.174-6.5-3.681-9.66-6.779-13.228-6.133,2.851-14.192,3.775-20.339,6.611-.709,4.081-4.8,5.31-5.458,8.933-1.346.092-1.606-.384-3.142.162-.359-1.073-1.507-1.356-2.811-1.489-.337-.693-2.681-2.339-2.81-3.3-.263-1.961,4.478-5.17,5.787-6.122a38.729,38.729,0,0,1,7.442-4.3c5.957-2.671,10.613-7.555,16.206-9.256-1.059-2.886-3.1-6.363-3.637-10.256-.662-4.743.115-10.2.659-14.72a16.747,16.747,0,0,1,1.157-3.8,35.4,35.4,0,0,1-1.816-8.6,14.4,14.4,0,0,1-4.467-.826c-.314-4.762-4.146-9.487-1.323-13.895-.294-2.3-1.28-3.06-1.322-4.959-.177-.565-.051.461-.5.167a18.917,18.917,0,0,0,.662-2.646c.012-.7.378-.39.661-.164.008-.467-.72-.454-.33-.829.856-2.021,1.706-4.623,3.638-6.447a11.859,11.859,0,0,1,7.607-3.143c2.161,0,3.082.734,5.128.661,2.941,1.127,6.159,1.373,8.267,3.307a17.348,17.348,0,0,1,3.142,4.467c.557.326.833.93,1.489,1.155.03.142-.063.158-.164.165C298.592,7918,298.71,7917.554,298.261,7917.675ZM271.8,7914.7c.5-1.28,2.4-2.871,2.646-3.306C273.385,7912.2,271.943,7913.514,271.8,7914.7Zm43.657,105.171c.924.042,1.169-.593,1.819-.828-.3-.584-.477-1.287-1.158-1.486A17.94,17.94,0,0,1,315.457,8019.867Z" transform="translate(-250.624 -7908.248)" fill="none" stroke="#f2d898" stroke-miterlimit="10" stroke-width="1.5" fill-rule="evenodd"/>
                  </g>
                </g>
              </g>
              <g id="Group_283" data-name="Group 283" transform="translate(585.635 622.84)">
                <g id="Group_278" data-name="Group 278" transform="translate(0 0.556)">
                  <g id="Group_277" data-name="Group 277">
                    <path id="Path_2503" data-name="Path 2503" d="M470.073,8066.782c-1.04-.521-2.088-.688-3.3-1.346-1.447-.79-2.181-2.448-3-3.756-2.641-4.264-4.922-8.455-7.289-12.719.684-.95,1.573-2.394,1.15-3.921-.368-1.333-2.6-2.393-3.878-3.338-2.145-1.587-4.207-2.812-5.1-4.891-.734-1.721-1.194-3.71-1.877-5.615a138.436,138.436,0,0,1-4.988-17.4c-.893-4.071-2.371-7.832-2.85-12.012a35.056,35.056,0,0,0-.968-6.394,28.584,28.584,0,0,1-1.609-5.957,11.948,11.948,0,0,1,2.045.276,48.4,48.4,0,0,0-2.317-11,24.242,24.242,0,0,1-1.39-12.023,72.018,72.018,0,0,1,4.521,7.646c1.312,2.529,2.685,5.519,4.651,7.524,1.939,1.981,4.647,3.2,7.307,4.576,1.831.941,3.415,2.3,5.356,3.085.836,1.514,2.332,1.975,4.305,2.518a20.809,20.809,0,0,1,3,.595c.592.317.508,1.213,1.243,1.189.6-.765.97-2.721.494-3.246.544.344.784,1.479,1.739,1.109.534-.937-.8-1.787-.671-2.36.106.4,1.7.8,1.813.134-.177-.921-1.3-1.465-2.157-1.99-1.806-1.095-4.522-2.82-7.068-2.971a12.276,12.276,0,0,1-1.95.095c-2.238-.516-3.752-4.177-5.721-6.274a27.577,27.577,0,0,0-2.406-1.887c-.33-.294-.5-.889-.877-1.284-.448-.469-.979-.707-1.253-1.068a26.357,26.357,0,0,1-1.908-3.671c-1.937-3.69-4.295-7.369-5.451-11.362a5.086,5.086,0,0,0,.975-5.09,3.328,3.328,0,0,0,.75-.036c.378.271.748.562,1.12.849,1.037-.416,1.47-1.545,1.844-2.795.4.4.244.785.375,1.392.622.4.791-.144,1.363-.365a3.407,3.407,0,0,0,.129-3.138c-.6-1.261-1.677-.073-2.512-.586a1.285,1.285,0,0,1,.638-1.551c.365.057.49.77.864.8a3.348,3.348,0,0,0,1.95-.293c.216-.435.417-.874.622-1.315-.259-.795.043-2.485-.846-2.532-.251,1.013.3,2.689-.82,2.979-.37-1.523.1-2.355.193-3.5a4.175,4.175,0,0,0-.487-.9c.539-1.244,1.57-2.078,1.586-3.759-.189-.167-.348-.413-.647-.284-.521.842-.7,1.967-1.6,2.5-.493.025-.887-1.051-.763-1.632a1.63,1.63,0,0,0,2.208-1.743c-.455-.149-.577.459-1.18.436a3,3,0,0,0-.157-.878c-.361-.379-.732-.732-1.1-1.081-.435-.242-1.116.189-1.366-.552.09-1.619.748-2.765.646-4.537.327.079.064-.335.32-.318-.095-.321.125-1.341-.386-1.732-.719.845-.567,2.41-1.635,2.964-.317-1.485-.172-3.958-1.807-3.992-.258-.776-.547-1.475-.83-2.187-.513-.452-.908-.335-1.449.045-.219-1.377-.591-3.389-1.437-4.436-.508-.475-1.214-.409-1.71-.92.056-.224-.335-.811-.466-1.138-.315-.258-.737-.225-1.083-.4-.212-.413-.429-.812-.65-1.2.145-.851.654-1.4.559-2.449-.974-.818-.872,1.149-1.479,1.434a2.938,2.938,0,0,0-3.677-.388c-.112-.251-.353-.153-.4-.583.217-1.8,1.994-.675,2.788-1.094.613-.325.712-1.295.513-2.32-.9-.461-.573,1.064-1.073,1.436a3.092,3.092,0,0,0-3.056.708c-2.115.063-3.392-2.144-5.416-2.33-.208-.215-.275-.812-.382-.818-.451.1-1.6-.03-1.8-.663-.919-.382-1.489.746-1.962,1.449-.749-.62-1.33-.143-2.292-.077-.827.062-2.458-.146-2.43,1.233-.192.289.311.246.323.6-.574,1.006-1.545,1.288-2.33,1.891a3.876,3.876,0,0,0-.889.992,11.607,11.607,0,0,0-3.778,5.323,2.022,2.022,0,0,0-.842,1.254,4.866,4.866,0,0,0,.285.9,5.854,5.854,0,0,0-.071,1.086,1.483,1.483,0,0,0-.365.469,7.345,7.345,0,0,0,.386,1.94,9.169,9.169,0,0,0-.566,1.37,5.954,5.954,0,0,0-.046,1.774c.029,1.149.17,2.391-.33,3.106-2.237.316-.1,4.87.508,6.409-1.138.082-1.171,1.081-1.336,1.966a2.195,2.195,0,0,0-1.008,1.079,6.7,6.7,0,0,1,.421,1.264,2.755,2.755,0,0,0-.94,1.631,7.221,7.221,0,0,1,.554,1.457c.244.158.761.3.92.1.173-.5-.271-.823-.4-1.5.138-.547.86-1.628,1.4-.835-.063.613-.567.857-.353,1.7.129.2.321.232.491.326.6-.2.287-1.149.847-1.375a8.524,8.524,0,0,0,.528,1.353c-.518.413-.515,1.621-.211,2.479-1.068.194-2.242.227-3.294.529a12.73,12.73,0,0,0-5.763,3.813c-1,1.086-2.321,2.747-1.067,4.42a97.689,97.689,0,0,0-9.821,8.511c-1.245.811-2.482,2.007-3.705,2.4-.9.284-1.858.356-2.7.591-6.091,1.7-10.869,5.755-16.991,7.243-.039-.018-.083-.036-.134-.055l-.044-.007a9.008,9.008,0,0,0-7.777-.121c-1.2.335-1.862.647-2.1,1.959-.115.716.088,1.346.711,1.428,0,.062.008.118.011.181-.8.55-.019,1.547.9,1.829a.634.634,0,0,0,.166.284,1.111,1.111,0,0,0,1.245,1.823c-.517.3-.28.9.236,1.232.959.609,1.928.317,2.965.131a6.406,6.406,0,0,0,4.224-2.363,3.561,3.561,0,0,0,.575-1.182c.044-.046.093-.084.136-.13,5.421-2.049,11.013-2.954,16.442-4.75a21.669,21.669,0,0,1,2.245-.586c1.057-.039,2.119-.061,3.18-.127a3.329,3.329,0,0,0,3.006-1.89c.626-.66,1.214-1.368,1.869-1.983a129.665,129.665,0,0,1,10.513-8.678,7.27,7.27,0,0,0,2.417,1.768c.5,2.147,1.435,4.59,2.252,7.105a67.757,67.757,0,0,1,2.374,7.109c.436,2.263.645,5.535-1,6.608a6.037,6.037,0,0,0,2.1,1.134c.219,1.2-1.2,1.621-1.638,2.307-.69,1.092-1.086,3.663-1.643,5.589a49.854,49.854,0,0,0-1.432,5.967c-1,6.163-2.268,11.968-2.7,17.789-.8,10.726-2.914,20.577-3.916,30.457.013.825,1.3,1.267,1.544,2.063a17.7,17.7,0,0,1,.011,3.04c.053,6.493-.527,15.544-2.041,20.266a17.837,17.837,0,0,0-3.01,1.229c.052.716-1.118.55-.838,1.395-1.228.52-2.044,1.544-3.337,2.3-.867.508-2.616.943-2.937,1.845-1.038,2.9,2.468,3,4.714,3.519a24.293,24.293,0,0,0,5.29.771c2.167-.008,3.784-1.364,5.466-1.523.99-.905.544-2.117.613-3.238.028-.423.311-.883.343-1.311.114-1.4-.412-2.777-.3-4.035.746-8.185,5.126-14.1,6.537-21.864,3.25.567,2.865-4.063,2.957-6.827.393-12.086,4.1-23.427,7.243-32.637,3.242,3.06,6.512,6.3,8.442,10.376,1.141,2.406,2.265,4.993,3.414,7.8,2.269,5.526,3.9,11.082,7.357,15.033a36.39,36.39,0,0,0,3.748,3.443c1.7,1.442,3.562,3.751,6.213,3.031,4.781,5.121,11.317,8.738,13.215,16.333-2.016,1.04-1.037,4.586-2.259,7.241-.727,1.585-2.291,2.381-2.481,3.822a3.093,3.093,0,0,0,3.747,3.448c2.866-.437,7.082-1.728,8.8-3.7,1.507-1.738,1.391-3.627,1.987-6.9.276-1.512.882-2.86,1.03-3.936C473.167,8068.6,471.648,8067.569,470.073,8066.782Z" transform="translate(-351.987 -7910.968)" fill="none" stroke="#f2d898" stroke-miterlimit="10" stroke-width="1.5"/>
                  </g>
                </g>
                <g id="Group_280" data-name="Group 280" transform="translate(66.938)">
                  <g id="Group_279" data-name="Group 279">
                    <path id="Path_2504" data-name="Path 2504" d="M439.657,7910.491c.05-.014.1-.023.151-.039.048-.3-.342-.246-.255-.047C439.6,7910.4,439.645,7910.4,439.657,7910.491Z" transform="translate(-439.54 -7910.242)" fill="none" stroke="#f2d898" stroke-miterlimit="10" stroke-width="1.5"/>
                  </g>
                </g>
                <g id="Group_282" data-name="Group 282" transform="translate(91.218 24.145)">
                  <g id="Group_281" data-name="Group 281">
                    <path id="Path_2505" data-name="Path 2505" d="M471.3,7941.973c.206.328.076-.467,0,0Z" transform="translate(-471.296 -7941.822)" fill="none" stroke="#f2d898" stroke-miterlimit="10" stroke-width="1.5"/>
                  </g>
                </g>
              </g>
              <path id="Path_2506" data-name="Path 2506" d="M1052.386,8148.464c-13.5-8.529-20.817-5.075-36.78-4.647s-31.975,2.645-47.841.839S935.844,8137.294,927,8124" transform="translate(98.261 -7337.73)" fill="none" stroke="#f2d898" stroke-miterlimit="10" stroke-width="1.5"/>
              <path id="Path_2507" data-name="Path 2507" d="M1043.1,8136.586a51.586,51.586,0,0,0-21.348,1.015c-8.285,1.882-16.61,4.043-25.106,4.029-7.359-.013-18.945-4.7-24.65-9.631" transform="translate(87.665 -7339.615)" fill="none" stroke="#f2d898" stroke-miterlimit="10" stroke-width="1.5"/>
              <path id="Path_2508" data-name="Path 2508" d="M946.521,8151.052c-6.839-3.447-20.7-10.153-25.7-15.957-4.687-5.439-8.656-9.412-14.818-13.1" transform="translate(103.205 -7337.26)" fill="none" stroke="#f2d898" stroke-miterlimit="10" stroke-width="1.5"/>
              <path id="Path_2509" data-name="Path 2509" d="M901.78,8157.945c-8.143-.871-8.25-5.315-15.928-8.165a35.474,35.474,0,0,0-12.682-1.746c-28.93.227-57.019,14.285-85.757,10.961" transform="translate(131.126 -7343.39)" fill="none" stroke="#f2d898" stroke-miterlimit="10" stroke-width="1.5"/>
              <path id="Path_2510" data-name="Path 2510" d="M916.333,8150.581a128.361,128.361,0,0,0-22.933-13.038c-11.456-5.323-22.507-5.963-34.923-5.406-12.248.547-28.588-3.694-38.478-12.138" transform="translate(123.454 -7336.789)" fill="none" stroke="#f2d898" stroke-miterlimit="10" stroke-width="1.5"/>
              <path id="Path_2511" data-name="Path 2511" d="M864.934,8147.468c-14.108-3.447-28.825-4.37-43.084-1.473-17.736,3.606-35.886,9.62-53.85,11.828" transform="translate(135.697 -7342.503)" fill="none" stroke="#f2d898" stroke-miterlimit="10" stroke-width="1.5"/>
              <path id="Path_2512" data-name="Path 2512" d="M831.311,8136.289l-10.1-1.355c-9.927-1.334-20.554-4.786-27.5-12.5-7.53-8.353-4.193-7.869-12.705-15.439" transform="translate(132.637 -7333.729)" fill="none" stroke="#f2d898" stroke-miterlimit="10" stroke-width="1.5"/>
              <path id="Path_2513" data-name="Path 2513" d="M778.093,8148.376c-27.055-9.129-58.436-11.094-86.342-5.044-14.62,3.168-28.719,8.384-43.241,11.973" transform="translate(163.831 -7341.466)" fill="none" stroke="#f2d898" stroke-miterlimit="10" stroke-width="1.5"/>
              <path id="Path_2514" data-name="Path 2514" d="M783.812,8128.305c-17.988-6.479-35.477,4.654-52.566,8.821" transform="translate(144.351 -7338.278)" fill="none" stroke="#f2d898" stroke-miterlimit="10" stroke-width="1.5"/>
              <path id="Path_2515" data-name="Path 2515" d="M322.261,8151.447c-19.368-7.74-40.7-7.248-61.532-6.268s-41.646-3.249-62.392-1.1C107.29,8153.542-414,8155.27-414,8155.27H930.842s-19.878-9.176-126.915-16.056-81.042-6.753-122.71-4.141" transform="translate(414 -7339.949)" fill="none" stroke="#f2d898" stroke-miterlimit="10" stroke-width="1.5"/>
              <path id="Path_2516" data-name="Path 2516" d="M540.2,8124c-2.175,4.587-6.2,4.094-10.831,6.159s-9.681,3.006-14.671,3.932l-20.138,3.729c-4.4.815-9.126,1.8-12.163,5.092" transform="translate(202.942 -7337.73)" fill="none" stroke="#f2d898" stroke-miterlimit="10" stroke-width="1.5"/>
              <path id="Path_2517" data-name="Path 2517" d="M513.276,8148.924c6.482-2.248,13.508-2.562,20.334-1.868a147.615,147.615,0,0,1,20.17,4,175.049,175.049,0,0,0,38.8,5.051" transform="translate(195.672 -7343.083)" fill="none" stroke="#f2d898" stroke-miterlimit="10" stroke-width="1.5"/>
              <path id="Path_2518" data-name="Path 2518" d="M595.339,8121c-10.993,9.355-20.864,6.782-34.723,9-10.686,1.706-21.518,3.2-32.366,2.78" transform="translate(192.146 -7337.026)" fill="none" stroke="#f2d898" stroke-miterlimit="10" stroke-width="1.5"/>
              <path id="Path_2519" data-name="Path 2519" d="M671.6,8145.066c-13.465-5.153-28.7-4.467-42.685-2.117a111.335,111.335,0,0,0-17.063,4.162c-4.067,1.366-8.074,2.907-12.145,4.263a24.766,24.766,0,0,1-5.98,1.526c-2.265.164-4.494.327-6.768.3-2.072-.021-4.142-.116-6.212-.183" transform="translate(179.785 -7341.773)" fill="none" stroke="#f2d898" stroke-miterlimit="10" stroke-width="1.5"/>
              <path id="Path_2520" data-name="Path 2520" d="M548.487,8121.018a222.2,222.2,0,0,1,44.138-8.18c7.467-.663,14.961-1.021,22.458-1.124,6.742-.093,13.574-.231,19.933-2.821a24.062,24.062,0,0,0,4.592-2.456c5.5-3.792,8.965-10,10.678-16.453,1.825-6.877,1.665-13.93,1.9-20.975a85.335,85.335,0,0,0-1.765-22.372,86.245,86.245,0,0,0-5.172-14.468" transform="translate(187.382 -7316.11)" fill="none" stroke="#f2d898" stroke-miterlimit="10" stroke-width="1.5"/>
              <path id="Path_2521" data-name="Path 2521" d="M767.594,8103.237c-5.062-.424-9.553-3.776-12.343-8.021s-4.08-9.3-4.823-14.326c-1.933-13.068,2.424-44.579,7.208-56.892" transform="translate(139.945 -7314.185)" fill="none" stroke="#f2d898" stroke-miterlimit="10" stroke-width="1.5"/>
              <path id="Path_2522" data-name="Path 2522" d="M758.683,7961c-8.935,7.2-14.249,18.957-17.468,30.382-3.255,11.551-2.6,23.831-1.226,35.618,2.573,22.134,9.823,56.016-11.56,71.887" transform="translate(145.014 -7299.353)" fill="none" stroke="#f2d898" stroke-miterlimit="10" stroke-width="1.5"/>
              <path id="Path_2523" data-name="Path 2523" d="M693.01,8109.162c.98-3.711-.772-7.534-2.848-10.906a48.017,48.017,0,0,1-7.409-25.062c-.208-25.9,19.5-56.789-1.754-80.2" transform="translate(156.182 -7306.886)" fill="none" stroke="#f2d898" stroke-miterlimit="10" stroke-width="1.5"/>
              <path id="Path_2524" data-name="Path 2524" d="M688.544,8077.578c-6.176-11.444-7.632-24.814-8-37.814-.846-29.439,6.008-57.578,9.042-86.693,3.367-32.326-4.677-67.738-36.883-82.418a63.789,63.789,0,0,0-43.348-3.32" transform="translate(173.052 -7276.75)" fill="none" stroke="#f2d898" stroke-miterlimit="10" stroke-width="1.5"/>
              <path id="Path_2525" data-name="Path 2525" d="M633.518,7882.058c9.509-2.027,18.939,1.693,25.6,8.521,4.208,4.314,7.353,9.539,10.213,14.846,3.3,6.125,6.285,12.544,10.415,18.17a81.857,81.857,0,0,0,16,16.386" transform="translate(167.361 -7280.635)" fill="none" stroke="#f2d898" stroke-miterlimit="10" stroke-width="1.5"/>
              <path id="Path_2526" data-name="Path 2526" d="M673.072,7901.192c-1.043,9.391-.533,19.341,3.616,28.032,3.067,6.424,8.549,11.257,12.6,17.049,4.333,6.2,6.026,13.628,6.19,21.032.238,10.737-1.028,23.536-6.2,33.191" transform="translate(158.157 -7285.271)" fill="none" stroke="#f2d898" stroke-miterlimit="10" stroke-width="1.5"/>
              <path id="Path_2527" data-name="Path 2527" d="M719.551,8110.656a88.34,88.34,0,0,1,3.837-71.978c4.67-8.974,10.99-17.362,13-27.281" transform="translate(148.49 -7311.218)" fill="none" stroke="#f2d898" stroke-miterlimit="10" stroke-width="1.5"/>
              <path id="Path_2528" data-name="Path 2528" d="M704.267,8014.93c8.058-8.68,12.909-19.563,15.436-30.992,2.585-11.687,2.171-23.6,3.96-35.369,3.477-22.875,15.108-48.916,33.72-63.634,7.071-5.592,15.675-9.516,24.709-10.122" transform="translate(150.703 -7279.059)" fill="none" stroke="#f2d898" stroke-miterlimit="10" stroke-width="1.5"/>
              <path id="Path_2529" data-name="Path 2529" d="M753.482,7901.365c.081,8.028.139,15.988.577,23.984.427,7.78.18,15.847-2.957,23.107-2.765,6.4-7.592,11.425-10.679,17.668-4.213,8.525-9.263,22.673-2.687,31.279" transform="translate(143.568 -7285.313)" fill="none" stroke="#f2d898" stroke-miterlimit="10" stroke-width="1.5"/>
              <path id="Path_2530" data-name="Path 2530" d="M688.315,7757.35c-66.889-116.56-53.58-251.237-75.2-378.805C598.2,7290.549,602.8,7237.117,519,7196" transform="translate(194.324 -7119.232)" fill="none" stroke="#f2d898" stroke-miterlimit="10" stroke-width="1.5"/>
              <path id="Path_2531" data-name="Path 2531" d="M600.766,7743c-42.01.774-77.639-28.473-100.251-61.628-43.131-63.243-64.105-137.878-106.888-201.581-34.6-51.526-84.376-112.227-146.627-129.8" transform="translate(258.367 -7155.492)" fill="none" stroke="#f2d898" stroke-miterlimit="10" stroke-width="1.5"/>
              <path id="Path_2532" data-name="Path 2532" d="M623.071,7733.934c-48.978-25.028-55.4-78.571-54.949-127.462a461.85,461.85,0,0,1,16.156-116.843c9.977-36.67,29.859-73.211,31.482-111.63" transform="translate(182.764 -7162.085)" fill="none" stroke="#f2d898" stroke-miterlimit="10" stroke-width="1.5"/>
              <path id="Path_2533" data-name="Path 2533" d="M720.813,7784.178c-17.724-41.438-13.375-98.641,16.624-133.558,62.949-73.268,167.644-103.531,252.641-142.548,47.871-21.976,114.6-61.08,153.507-97.073" transform="translate(149.268 -7169.854)" fill="none" stroke="#f2d898" stroke-miterlimit="10" stroke-width="1.5"/>
              <path id="Path_2534" data-name="Path 2534" d="M1034.721,7784.165c-53.832,3.891-110.08-4.283-165.487-6.805a516.747,516.747,0,0,0-58.4.229c-28.762,1.966-56.966,7.257-84.139,18.5-.26.107-.512.214-.772.32-6.063,2.577-12.286,5.918-15.1,11.821" transform="translate(149.16 -7255.947)" fill="none" stroke="#f2d898" stroke-miterlimit="10" stroke-width="1.5"/>
              <path id="Path_2535" data-name="Path 2535" d="M841.63,7707.719c4.924-46.989,50.766-73.03,90.446-91.8,38.816-18.358,78.2-35.307,113.788-59.482,27.149-18.442,52.311-43.71,57.991-76.54" transform="translate(118.361 -7186.077)" fill="none" stroke="#f2d898" stroke-miterlimit="10" stroke-width="1.5"/>
              <path id="Path_2536" data-name="Path 2536" d="M1241.067,7661.2c-54.349-12.813-88.314-4.057-138.228,21.925-46.559,24.234-85.518,65.012-140.809,67.567" transform="translate(90.013 -7227.393)" fill="none" stroke="#f2d898" stroke-miterlimit="10" stroke-width="1.5"/>
              <path id="Path_2537" data-name="Path 2537" d="M730.57,7767.78c16.293,10.712,36.737,13.656,55.889,12.991,22.18-.772,43.488-6.01,63.068-16.69a246.037,246.037,0,0,0,24.359-15.351c29.053-20.56,54.963-45.958,85.668-64.245,27.722-16.516,58.289-26.652,90.485-28.971,22.11-1.582,43.724.957,65.177,5.827h.008" transform="translate(144.51 -7227.315)" fill="none" stroke="#f2d898" stroke-miterlimit="10" stroke-width="1.5"/>
              <path id="Path_2538" data-name="Path 2538" d="M512.617,7779.239l-1.1.138a241.25,241.25,0,0,1-108.077-11.645c-35.016-12.056-63.465-32.409-91.83-55.758q-4.243-3.5-8.479-6.988c-44.367-36.5-66.156-61.759-123.131-74.987" transform="translate(274.143 -7221.418)" fill="none" stroke="#f2d898" stroke-miterlimit="10" stroke-width="1.5"/>
              <path id="Path_2539" data-name="Path 2539" d="M447.708,7672c-42.779-30.782-98.007-36.944-150.552-41.035S240.149,7648.188,195,7621" transform="translate(270.61 -7219.299)" fill="none" stroke="#f2d898" stroke-miterlimit="10" stroke-width="1.5"/>
              <path id="Path_2540" data-name="Path 2540" d="M759.545,7579.057c-3.257-23.935-8.7-48.9-7.772-73.146,2.655-69.554,47.025-136.759,82.625-193.862,25.9-41.54,68.526-101.714,77.314-150.051" transform="translate(139.542 -7111.227)" fill="none" stroke="#f2d898" stroke-miterlimit="10" stroke-width="1.5"/>
              <path id="Path_2541" data-name="Path 2541" d="M895.863,7837.163a237.018,237.018,0,0,0-78.524.844c-16.578,2.973-33.1,7.848-47.173,17.1-15.442,10.161-27.781,26.266-29.783,45.043l-.042.411a48.407,48.407,0,0,0-.01,9.538" transform="translate(142.266 -7269.52)" fill="none" stroke="#f2d898" stroke-miterlimit="10" stroke-width="1.5"/>
              <path id="Path_2542" data-name="Path 2542" d="M908.608,7814.957c1.144-9.012,12.646-12.562,19.932-14.785,9.122-2.785,18.625-3.992,28.088-4.93,13.542-1.34,27.167-1.39,40.763-1.4,28.321-.009,59.071-.062,83.912-15.641,0,0,54.676-35.529,66.909-24.825" transform="translate(102.591 -7249.995)" fill="none" stroke="#f2d898" stroke-miterlimit="10" stroke-width="1.5"/>
              <path id="Path_2543" data-name="Path 2543" d="M767.636,7865.9c8.734-5.247,17.85-10.32,27.789-12.858,10.136-2.588,20.687-1.752,30.687,1.06,10.068,2.833,18.93,7.86,28.445,11.986a201.088,201.088,0,0,0,28.751,10.277" transform="translate(135.783 -7273.566)" fill="none" stroke="#f2d898" stroke-miterlimit="10" stroke-width="1.5"/>
              <path id="Path_2544" data-name="Path 2544" d="M729.5,7884.13c-3.41-11.36-3.817-24.889-3.169-36.683.293-5.333,1.564-10.8,4.849-15.01,4.583-5.877,12.321-8.373,19.734-9.115,7.11-.71,14.275-.3,21.393-.963,6.635-.619,13.244-1.271,19.824-2.364a176.922,176.922,0,0,0,39.9-11.383,134.95,134.95,0,0,0,14.349-7.1c4.048-2.309,8.009-4.571,9.041-9.534" transform="translate(145.567 -7259.557)" fill="none" stroke="#f2d898" stroke-miterlimit="10" stroke-width="1.5"/>
              <path id="Path_2545" data-name="Path 2545" d="M919.953,7781.471c-21.537,17.206-48.2,27.083-74.693,33.689-19.416,4.841-38.984,8.536-58.651,12.185-7.613,1.413-15.266,2.835-22.555,5.448s-14.264,6.494-19.51,12.192c-11.192,12.151-10.365,31.255-5.791,46.072.2.652.412,1.3.632,1.947" transform="translate(143.329 -7257.082)" fill="none" stroke="#f2d898" stroke-miterlimit="10" stroke-width="1.5"/>
              <path id="Path_2546" data-name="Path 2546" d="M780.032,7114c-64.169,66.3-64.245,107.971-76.2,198.462a580.029,580.029,0,0,0-1.682,135.99c5.428,52.18,22.248,104.354,14.381,157.139q-.986,6.64-2.485,13.18-1.284,5.572-2.982,11.041c-.038.13-.076.26-.115.382" transform="translate(151.953 -7099.925)" fill="none" stroke="#f2d898" stroke-miterlimit="10" stroke-width="1.5"/>
              <path id="Path_2547" data-name="Path 2547" d="M656.713,7789.626c3.991-19.06-2.737-39.145-12.791-55.95-10.436-17.446-24.366-32.562-35.483-49.582a184.424,184.424,0,0,1-27.86-125.937" transform="translate(180.255 -7204.502)" fill="none" stroke="#f2d898" stroke-miterlimit="10" stroke-width="1.5"/>
              <path id="Path_2548" data-name="Path 2548" d="M247,7639c25.512,25.052,57.986,55.172,91.55,67.5,31.931,11.725,66.72,12.59,99.887,20.144s67.432,24.517,80.929,55.739" transform="translate(258.367 -7223.538)" fill="none" stroke="#f2d898" stroke-miterlimit="10" stroke-width="1.5"/>
              <path id="Path_2549" data-name="Path 2549" d="M517.621,7820.658c-12.044-19.386-11.045-17.983-29.752-31.059-13.615-9.517-78.464-24.307-94.869-21.694" transform="translate(223.991 -7253.817)" fill="none" stroke="#f2d898" stroke-miterlimit="10" stroke-width="1.5"/>
              <path id="Path_2550" data-name="Path 2550" d="M354,7725.068c-15.792.631-31.732,2.127-47.508.819-36.267-3.007-67.325-25.16-100.552-37.794-13.82-5.255-35.2-7.92-49.938-9.095" transform="translate(279.793 -7232.955)" fill="none" stroke="#f2d898" stroke-miterlimit="10" stroke-width="1.5"/>
              <path id="Path_2551" data-name="Path 2551" d="M489.55,7734.709c-1.934-6.622-6.406-11.188-10.638-16.305a101.583,101.583,0,0,0-31.085-25.15c-12.128-6.349-24.823-9.083-38.241-11.242a178.421,178.421,0,0,1-21.769-4.435c-21.09-6.163-37.711-21.586-44.487-42.671" transform="translate(235.685 -7222.573)" fill="none" stroke="#f2d898" stroke-miterlimit="10" stroke-width="1.5"/>
              <path id="Path_2552" data-name="Path 2552" d="M1005.354,7662.142c-32.325-6.911-66.684-9.6-100.294-6.505a254.881,254.881,0,0,0-72.043,16.919c-25.689,10.36-49.107,23.823-68.695,43.725-8.364,8.5-15.887,17.836-24.718,25.856-7.271,6.591-15.635,12.341-24.924,15.275a.042.042,0,0,1-.031.009" transform="translate(148.259 -7227.155)" fill="none" stroke="#f2d898" stroke-miterlimit="10" stroke-width="1.5"/>
              <path id="Path_2553" data-name="Path 2553" d="M694.45,7862.989c-.181,11.49,7.283,19.85,12.867,29.084,18.284,30.235,12.046,67.511-3.035,97.683" transform="translate(153.016 -7276.276)" fill="none" stroke="#f2d898" stroke-miterlimit="10" stroke-width="1.5"/>
              <path id="Path_2554" data-name="Path 2554" d="M475.994,7735.465a66.319,66.319,0,0,0-20.986-14.673c-13.565-5.734-28.447-6.762-42.98-7.533q-23.774-1.26-47.6-.942c-11.031.147-22.076-.408-33.067-1.317" transform="translate(238.503 -7240.49)" fill="none" stroke="#f2d898" stroke-miterlimit="10" stroke-width="1.5"/>
              <path id="Path_2555" data-name="Path 2555" d="M589.127,7662.5c-2.174,16.563-4.317,33.635.089,49.762,2.411,8.827,6.709,17.035,11.3,24.981q6.7,11.6,14.341,22.64c4.681,6.74,9.662,13.341,13.241,20.706s5.7,15.692,4.265,23.733" transform="translate(178.396 -7229.071)" fill="none" stroke="#f2d898" stroke-miterlimit="10" stroke-width="1.5"/>
              <path id="Path_2556" data-name="Path 2556" d="M1008.4,7498.1c11.277-7.1,19.572-18.051,25.306-29.932,7.974-16.5,10.031-35.109,13.471-52.884,3.647-18.809,7.6-37.562,11.988-56.21,6.72-28.586,14.45-56.958,23.594-84.865" transform="translate(79.095 -7137.647)" fill="none" stroke="#f2d898" stroke-miterlimit="10" stroke-width="1.5"/>
              <path id="Path_2557" data-name="Path 2557" d="M1227.291,7543c-20.923,9.7-71.5,22.714-93.993,26.935-34.822,6.531-90.265,17.046-96.645,59.757" transform="translate(72.442 -7200.934)" fill="none" stroke="#f2d898" stroke-miterlimit="10" stroke-width="1.5"/>
              <path id="Path_2559" data-name="Path 2559" d="M113,7450c37.887,8.837,76.857,8.535,114.249,19.776,24.6,7.392,48.273,18.522,68.517,34.464,31.418,24.745,53.635,61.277,66.582,98.707" transform="translate(289.917 -7179.037)" fill="none" stroke="#f2d898" stroke-miterlimit="10" stroke-width="1.5"/>
              <path id="Path_2560" data-name="Path 2560" d="M650.71,7708c1.575-29.657,1.46-57.539-8.976-85.852-10.987-29.785-22.921-55.865-19.58-88.428,2.24-21.85,9.572-42.661,19.335-62.248v-.007" transform="translate(170.171 -7184.09)" fill="none" stroke="#f2d898" stroke-miterlimit="10" stroke-width="1.5"/>
              <path id="Path_2561" data-name="Path 2561" d="M240.88,7293.49c29.016,19.631,62.459,31.315,95.483,42.235,53.808,17.791,104.99,36.728,146.219,77.215,8.7,8.54,16.749,17.913,22.9,28.472a48.535,48.535,0,0,1,5.89,15.259" transform="translate(259.808 -7142.188)" fill="none" stroke="#f2d898" stroke-miterlimit="10" stroke-width="1.5"/>
              <path id="Path_2562" data-name="Path 2562" d="M526.393,7644.6a300.187,300.187,0,0,0-18.252-127.915c-7.824-20.82-17.95-40.712-25.841-61.508s-13.568-42.923-11.928-65.1" transform="translate(205.841 -7164.93)" fill="none" stroke="#f2d898" stroke-miterlimit="10" stroke-width="1.5"/>
              <path id="Path_2563" data-name="Path 2563" d="M460.529,7564.573c-21.229-8.513-34.389-28.069-43.219-48.287-14.186-32.483-19.072-68.022-31.735-101.018-8.889-23.166-23.531-46.826-47.293-56.722-11.276-4.7-23.5-6.693-35.663-7.771-33.668-2.986-67.593.777-101.356-.828" transform="translate(269.136 -7155.394)" fill="none" stroke="#f2d898" stroke-miterlimit="10" stroke-width="1.5"/>
              <path id="Path_2564" data-name="Path 2564" d="M256.067,7596.6c-36.367-14.439-45.231-59.6-72.585-84.336-14-12.664-63.608-30.733-82.482-31.266" transform="translate(292.742 -7186.336)" fill="none" stroke="#f2d898" stroke-miterlimit="10" stroke-width="1.5"/>
              <path id="Path_2565" data-name="Path 2565" d="M341.541,7602.626c-20.912-5.51-39.1-18.634-55.215-32.6-20-17.333-38.435-36.36-56.89-55.3-17.3-17.757-35.25-34.845-59.039-43.486-17.434-6.331-44.347,3.57-62.4,7.746" transform="translate(291.095 -7183.553)" fill="none" stroke="#f2d898" stroke-miterlimit="10" stroke-width="1.5"/>
              <path id="Path_2566" data-name="Path 2566" d="M814.04,7663.735l.008-.008c.008,0,.008-.006.008-.006" transform="translate(124.857 -7229.359)" fill="none" stroke="#f2d898" stroke-miterlimit="10" stroke-width="1.5"/>
              <path id="Path_2567" data-name="Path 2567" d="M845.05,7556.779c40.147-34.237,52.135-94.223,74.154-140,18.349-38.143,43.541-74.039,74.987-102.557,15.375-13.937,32.111-28,50.109-40.008" transform="translate(117.556 -7137.647)" fill="none" stroke="#f2d898" stroke-miterlimit="10" stroke-width="1.5"/>
              <path id="Path_2568" data-name="Path 2568" d="M576.516,7365.673c-11.828-1.077-23.183-5.13-34.1-9.805-18.36-7.863-36.21-17.815-49.992-32.271-11.516-12.077-19.763-26.829-27.884-41.406-15.146-27.19-31.395-60-46.54-87.191" transform="translate(218.104 -7118.997)" fill="none" stroke="#f2d898" stroke-miterlimit="10" stroke-width="1.5"/>
              <path id="Path_2569" data-name="Path 2569" d="M693.543,7446.626c-35.454,69.356-10.734,143.449-6.3,216.027.373,6.1.6,12.205.612,18.315a207.218,207.218,0,0,1-2.462,34.3" transform="translate(157.657 -7178.243)" fill="none" stroke="#f2d898" stroke-miterlimit="10" stroke-width="1.5"/>
              <path id="Path_2570" data-name="Path 2570" d="M755.7,7511.975c-23.8,32.557-43.367,69.833-47.744,110.354-2.21,20.463-.49,41.148-1.115,61.727S702.97,7725.876,692,7743.08" transform="translate(153.592 -7193.63)" fill="none" stroke="#f2d898" stroke-miterlimit="10" stroke-width="1.5"/>
              <path id="Path_2571" data-name="Path 2571" d="M964.5,7697c-27.175,10.754-57.3,9.607-86.5,9.794a108.393,108.393,0,0,0-17.576,1.127c-6.623,1.13-13,3.4-19.3,5.74-14.13,5.247-28.236,10.956-40.75,19.394s-23.456,19.863-29.078,33.933" transform="translate(134.92 -7237.193)" fill="none" stroke="#f2d898" stroke-miterlimit="10" stroke-width="1.5"/>
              <path id="Path_2572" data-name="Path 2572" d="M786.586,7597.066c-11.413-34.807,17.479-63.636,37.4-88.188a225.3,225.3,0,0,0,49.856-123.935c1.817-23.458,1.614-49.116-10.291-70.16" transform="translate(131.93 -7147.201)" fill="none" stroke="#f2d898" stroke-miterlimit="10" stroke-width="1.5"/>
              <path id="Path_2573" data-name="Path 2573" d="M891.48,7199c-43.98,12.353-83.726,30.573-104.09,73.88-14.344,30.5-17.519,64.278-26.184,96.479-9.387,34.881-27.734,66.554-59.205,85.66" transform="translate(151.237 -7119.939)" fill="none" stroke="#f2d898" stroke-miterlimit="10" stroke-width="1.5"/>
              <path id="Path_2558" data-name="Path 2558" d="M1061,7651.133a119.048,119.048,0,0,1,77.535-24.841c12.538.534,24.9,3.063,37.368,4.474,16.55,1.871,45.052,2.265,61.708,2.159" transform="translate(66.71 -7220.521)" fill="none" stroke="#f2d898" stroke-miterlimit="10" stroke-width="1.5"/>
              <path id="Path_2574" data-name="Path 2574" d="M1077.432,8141.662c11.256-3.621,23.489-2.746,35.078-.4s22.866,6.1,34.5,8.21a248.91,248.91,0,0,0,27.625,2.908l56.379,3.819" transform="translate(62.841 -7341.315)" fill="none" stroke="#f2d898" stroke-miterlimit="10" stroke-width="1.5"/>
              <path id="Path_2575" data-name="Path 2575" d="M1267.723,8152.121c-21.2.98-42.5,1.117-63.695.067-2.966-.147-5.933-.317-8.874-.62-3.525-.364-7.006-.917-10.539-1.238a80.769,80.769,0,0,0-21.616.947" transform="translate(42.694 -7343.853)" fill="none" stroke="#f2d898" stroke-miterlimit="10" stroke-width="1.5"/>
            </g>
          </g>
        </g>
      </g>
    </g>
  </g>
</svg>
