<svg xmlns="http://www.w3.org/2000/svg" width="36.205" height="36.17" viewBox="0 0 36.205 36.17"><g transform="translate(0.5 0.5)"><path d="M1231.492,374.5a17.6,17.6,0,1,1,17.756,17.541A17.578,17.578,0,0,1,1231.492,374.5Zm17.776,9.709c0-.07,0,.082,0,.013,1.542,0,3.087.059,4.626-.013,2.966-.137,5.123-1.96,5.31-4.9a83.27,83.27,0,0,0,.008-10.133,5.092,5.092,0,0,0-5.19-4.936c-3.135-.115-6.281-.108-9.417,0a5.134,5.134,0,0,0-5.2,4.847c-.167,3.373-.16,6.764-.016,10.138a4.917,4.917,0,0,0,4.375,4.817A34.292,34.292,0,0,0,1249.268,384.209Z" transform="translate(-1231.491 -356.873)" fill="none" stroke="#fff" stroke-miterlimit="10" stroke-width="1"/><path d="M1314.321,442.123a5.151,5.151,0,1,1,5.206-5.125A5.171,5.171,0,0,1,1314.321,442.123Z" transform="translate(-1296.52 -419.636)" fill="none" stroke="#fff" stroke-width="1"/><path d="M1369.39,424.229a1.308,1.308,0,0,1-1.225,1.189,1.25,1.25,0,0,1-1.163-1.226,1.219,1.219,0,0,1,1.206-1.172A1.255,1.255,0,0,1,1369.39,424.229Z" transform="translate(-1344.968 -412.265)" fill="none" stroke="#fff" stroke-width="1"/></g></svg>