<svg xmlns="http://www.w3.org/2000/svg" width="333.729" height="428.895" viewBox="0 0 333.729 428.895"><path d="M2231.744,1713.283c1-1.845,2.215-3.543,3.37-5.29,2.318-3.5,4.2-7.275,6.166-10.98,1.681-3.175,3.677-6.177,5.3-9.381,1.116-1.052,2.271-2.068,3.479-3.032a64.179,64.179,0,0,1,18.625-10.474c7.338-2.553,15.03-3.865,22.425-6.229a111,111,0,0,0,20.506-9.154,225.149,225.149,0,0,0,19.583-12.364c6.323-4.469,12.228-9.446,18.1-14.487a47.285,47.285,0,0,0,8.436-8.949,43.146,43.146,0,0,0,4.667-9.135c2.515-6.639,3.817-14.38,1.664-21.3a1.758,1.758,0,0,0-2.126-1.207c-3.739,1.038-5.478,5.353-6.917,8.56a44.859,44.859,0,0,1-7.4,11.5c-7.3,8.206-17.595,12.281-27.815,15.6-10.667,3.466-21.565,6.339-31.364,11.964a107.886,107.886,0,0,0-26.116,21.453c-2.293,2.547-4.43,5.225-6.529,7.933q.5-1.606.881-3.233a1.324,1.324,0,0,0,.1-.24q.473-1.486.91-2.981a64.141,64.141,0,0,0,2.436-9.232,1.451,1.451,0,0,0,.729-.658,6.867,6.867,0,0,0,.523-3.732,77.865,77.865,0,0,1,3.265-14.88,41.166,41.166,0,0,1,5.907-8.9c7.565-8.5,18.057-13.556,27.738-19.19a252.956,252.956,0,0,0,32.755-22.984c5.552-4.547,11.223-9.278,15.423-15.154a52.864,52.864,0,0,0,4.814-8.953c1.408-3.073,2.925-6.418,2.515-9.883-.161-1.361-1.839-2.438-2.95-1.222-3.425,3.748-5.226,8.47-7.967,12.675a54.012,54.012,0,0,1-10.649,11.6,52.669,52.669,0,0,1-12.4,7.907c-4.5,2.016-9.221,3.483-13.85,5.161a57.7,57.7,0,0,0-24.062,14.8,79.987,79.987,0,0,0-16.166,22.174c-.151.308-.3.62-.442.93.18-5.254-.255-10.5-.432-15.786-.023-.692-.039-1.385-.054-2.078,1.174-7.948,2.981-15.79,4.765-23.619,1.853-8.135,3.2-16.417,5.3-24.49a91.719,91.719,0,0,1,8.749-21.846,152.348,152.348,0,0,1,13.623-19.67c4.758-6.02,9.848-11.848,14.138-18.22a76.572,76.572,0,0,0,9.481-19.43c2.8-8.763,3.954-18.128,4.51-27.283.24-3.942.328-7.9.417-11.852.081-3.594.016-7.328-1.445-10.67a1.744,1.744,0,0,0-3.159.413c-1.067,7.022-1.554,14.138-3.031,21.094a97.873,97.873,0,0,1-5.857,18.738c-5.348,12.241-15.351,21.228-22.62,32.232a101.845,101.845,0,0,0-9.224,17.591c-2.646,6.465-4.6,13.205-7.023,19.758-1.573,4.262-3.2,8.52-4.651,12.835a121.413,121.413,0,0,0-1.939-16.574c-1.152-6.607-3.471-12.916-5.573-19.26-.1-.293-.191-.588-.287-.881a1.913,1.913,0,0,0,.179-1.245,18.339,18.339,0,0,1-.4-2.749c-.036-1.126-.229-2.239-.376-3.355-.291-2.213-.19-4.47-.3-6.7a97.939,97.939,0,0,1,.532-13.588,235.985,235.985,0,0,1,4.272-27.283c1.891-9.109,3.4-18.259,4.587-27.485,1.178-9.131,1.9-18.327,3.392-27.414.845-5.135,1.813-10.249,2.554-15.4.356-2.479.7-4.962,1.156-7.425.346-1.866,1.517-4.039.528-5.863a1.686,1.686,0,0,0-2.878,0c-7.125,10.387-13.7,21.214-18.44,32.915a111.676,111.676,0,0,0-7.726,39.1,184.312,184.312,0,0,0,.861,21c.622,7.069,1.459,14.122,2.595,21.127a157.868,157.868,0,0,0,4.537,19.968c1.942,6.5,4.4,12.846,6.2,19.392a97.366,97.366,0,0,1,2.067,10.03,91.5,91.5,0,0,1,1.251,10.345,114.119,114.119,0,0,1-.345,14.357c-1.017,4.921-1.735,9.905-2.384,14.887a179.974,179.974,0,0,0-1.448,18.144q-.461-1.814-1.022-3.606c-.171-1.376-.341-2.752-.495-4.133a30.417,30.417,0,0,0-4.088-12.673c.343-.938.67-1.883.962-2.839a61.451,61.451,0,0,0,2.51-16.092,64.627,64.627,0,0,0-2.255-19.123c-.9-3.243-1.906-6.46-2.85-9.69-.472-1.617-.938-3.243-1.481-4.838a24.036,24.036,0,0,1-1.5-4.759,1.746,1.746,0,0,0-1.691-1.691,1.7,1.7,0,0,0-1.691,1.691c.155,2.148.13,4.3.144,6.45.013,2.181.151,4.357.154,6.538a55.167,55.167,0,0,1-1.262,12.346,77.972,77.972,0,0,1-4.157,12.736c-3.892-4.849-8.144-9.391-12.259-14.049a135.1,135.1,0,0,1-11.087-15.205,140.117,140.117,0,0,0-11.482-15.382c-4.115-4.678-8.546-9.062-12.879-13.536-4.505-4.651-8.892-9.46-13.022-14.451-3.708-4.482-7.736-9.951-7.509-16.055.075-2.018-2.8-2.251-3.4-.459-1.593,4.795-.533,9.819.255,14.659a127.762,127.762,0,0,0,3.012,15.033,60.7,60.7,0,0,0,13.639,24.454c6.076,6.625,13.367,11.995,20.622,17.244,3.961,2.865,8,5.568,12.142,8.16a116.715,116.715,0,0,1,12.243,8.369,55.712,55.712,0,0,1,7.091,7c-.659,1.341-1.335,2.673-2.04,3.985-3.744,6.968-8.5,13.282-12.405,20.144a99.041,99.041,0,0,0-9.084,21.182,87.6,87.6,0,0,0-3.371,22.9c-.086,4.356-.118,8.719.171,13.068a98.231,98.231,0,0,0,1.38,10.688q.021,1.13.062,2.255.046,1.271.118,2.534a88.955,88.955,0,0,0-4.719-8.329c-4.413-6.985-9.395-13.69-11.905-21.665-2.8-8.89-2.425-18.374-3.038-27.568a61.456,61.456,0,0,0-2.1-13.581,116.535,116.535,0,0,0-4.734-12.8,32.729,32.729,0,0,0-5.947-9.477,42.947,42.947,0,0,0-3.7-3.366c-1.127-.947-2.544-2.016-4.115-1.581-2.162.6-2.238,3-2.3,4.824-.076,2.341-.008,4.7.111,7.037.239,4.7.635,9.38.762,14.089.255,9.393.063,18.808,1.88,28.07,1.616,8.235,4.338,16.514,8.971,23.569,4.76,7.245,11.642,12.451,18.052,18.139a57.271,57.271,0,0,1,8.776,9.6c2.335,3.262,4.984,6.662,5.968,10.628a11.893,11.893,0,0,0,1.888,4.867,1.327,1.327,0,0,0,.938.477A127.413,127.413,0,0,1,2221,1707.7a60.29,60.29,0,0,1-5.993,22.222,79.111,79.111,0,0,1-6.081,10.427c-2.2,3.2-4.526,6.287-6.623,9.555-.09.092-.178.187-.27.277-1.328,1.292-2.891,2.548-3.372,4.424a1.724,1.724,0,0,0,2.858,1.663,19.19,19.19,0,0,0,3.442-4.175,44.769,44.769,0,0,0,3.594-4.786,36.417,36.417,0,0,1,3.333-4.592c1.262-1.339,2.663-2.539,3.874-3.926.281-.323.548-.656.81-.993a1.571,1.571,0,0,0,1.054-.807q.767-1.35,1.531-2.7a26.631,26.631,0,0,0,2.908-2.242c2.177-1.809,5.065-2.814,7.67-3.85,5.9-2.347,12.072-4,18.12-5.906a100.176,100.176,0,0,1,18.912-4.347c6.192-.7,12.424-.944,18.625-1.555,12.072-1.189,24.17-2.737,35.871-6.034a106.38,106.38,0,0,0,16.9-6.2,39.135,39.135,0,0,0,12.55-8.958,36.674,36.674,0,0,0,6.333-10.7c1.239-3.03,3.076-7.831-.1-10.271a1.75,1.75,0,0,0-2.095.27c-6.521,5.329-12.143,11.986-19.653,16a28.8,28.8,0,0,1-13.581,3.539c-5.3-.028-10.442-1.5-15.531-2.821a62.378,62.378,0,0,0-15.3-2.49,46.313,46.313,0,0,0-14.3,2.292c-9.528,3.048-18.163,8.464-26.594,13.726-5.216,3.255-10.374,6.64-15.251,10.389-2.754,2.118-5.322,4.461-7.925,6.76.751-1.038,1.481-2.09,2.138-3.2C2229.9,1716.938,2230.77,1715.081,2231.744,1713.283Zm39.327-94.469a.714.714,0,0,0,.24-.025c-.16.147-.323.29-.48.439C2270.909,1619.089,2270.992,1618.953,2271.071,1618.814ZM2283.019,1603a68.558,68.558,0,0,1,10.59-8.939,59.807,59.807,0,0,1,12.817-6.133c4.53-1.656,9.128-3.123,13.574-5a53.794,53.794,0,0,0,12.2-7.133,63.553,63.553,0,0,0,12.17-12.153,32.618,32.618,0,0,0,1.81-2.738,34.951,34.951,0,0,1-2.282,3.9c-3.57,5.21-8.548,9.395-13.347,13.428-5.268,4.428-10.774,8.562-16.4,12.521-5.244,3.691-10.543,7.358-16.059,10.633-8.234,4.89-17,9.2-24.407,15.325a115.718,115.718,0,0,1,11.351-9.015q3.461-2.429,7.044-4.675a65.829,65.829,0,0,1,6.55-3.418,22.87,22.87,0,0,0,6.81-4.477.685.685,0,0,0-.968-.968c-3.735,3.228-8.622,4.543-12.76,7.121a145.473,145.473,0,0,0-13.876,9.781q-2.117,1.691-4.144,3.484A76,76,0,0,1,2283.019,1603Zm-25.692-189.618c3.77-10.723,9.359-20.664,15.451-30.225-.24,1.543-.463,3.089-.689,4.634-.666,4.572-1.518,9.112-2.289,13.667-1.522,9-2.292,18.091-3.433,27.143-1.156,9.181-2.569,18.318-4.466,27.377a250.366,250.366,0,0,0-4.484,27.177c-.3,3.113-.62,6.236-.77,9.363-.7-1.636-1.351-3.294-1.914-4.983-.732-4.592-1.319-9.208-1.808-13.828q-.185-1.762-.357-3.527c.017-.478.035-.955.059-1.433a148.977,148.977,0,0,1,1.869-16.087c.42-2.593.79-5.212,1.394-7.77a47.046,47.046,0,0,1,2.326-7.154,53,53,0,0,1,3.733-7.386c.723-1.182,1.612-2.254,2.3-3.456.64-1.11.895-2.435,1.731-3.426a.75.75,0,0,0-1.06-1.061,6.8,6.8,0,0,0-1.751,2.818,19.661,19.661,0,0,1-1.977,3.135,44,44,0,0,0-3.681,6.7,51.8,51.8,0,0,0-2.7,7.119,67.781,67.781,0,0,0-1.645,7.941c-.532,3.186-1.031,6.379-1.438,9.584-.131-2.291-.225-4.583-.262-6.875C2251.258,1439.473,2252.884,1426.017,2257.327,1413.379Zm-1.087,82.424c.109.235.216.472.328.707,0,.3,0,.6.01.9C2256.459,1496.878,2256.353,1496.34,2256.24,1495.8Zm11.89,70.456c.184-.956.361-1.915.563-2.866a147.95,147.95,0,0,1,6.232-20.246c.108-.3.213-.591.321-.886a.814.814,0,0,0,.714-.6,113.869,113.869,0,0,1,9.418-22.077,101.534,101.534,0,0,1,14.954-19.906,56,56,0,0,1,5.054-4.74,37.672,37.672,0,0,0,4.934-4.57c.615-.724-.369-1.751-1.058-1.058-2.91,2.929-6.358,5.242-9.246,8.2a120.269,120.269,0,0,0-8.715,10.078,91.539,91.539,0,0,0-7.873,11.989,101.721,101.721,0,0,1,7.193-14.724c6.853-11.33,17.121-20.336,23.123-32.187a96.861,96.861,0,0,0,7.153-20.237c.475-1.892.861-3.8,1.193-5.715-.027.666-.055,1.332-.09,2a117.943,117.943,0,0,1-3.517,24.364,72.029,72.029,0,0,1-8.669,19.642c-4.105,6.524-9.2,12.378-13.989,18.4-9.632,12.1-18.279,24.722-22.931,39.629-2.391,7.66-3.606,15.6-5.34,23.419-.062.281-.127.56-.19.841C2267.613,1572.1,2267.885,1569.179,2268.129,1566.259Zm-1.655,10.182a1.581,1.581,0,0,0,.748-.809q-.7,3.113-1.409,6.224C2266.01,1580.051,2266.234,1578.246,2266.475,1576.441Zm-68.293-50.077c-6.968-5.9-13.123-12.719-17.068-21.024a67.158,67.158,0,0,1-4.792-14.608c-.844-3.9-1.586-7.914-2.116-11.906a42.334,42.334,0,0,0,2.363,3.616,150.31,150.31,0,0,0,10.3,12.2c8.512,9.444,18.117,17.887,25.477,28.327,2.643,3.749,5.1,7.629,7.677,11.42-1.528-1.355-3.053-2.715-4.537-4.118-3-2.833-6.073-5.584-9.279-8.177a105.6,105.6,0,0,0-11.258-8.01c-.951-.581-1.82.913-.872,1.492a120.5,120.5,0,0,1,19.067,14.865c3.037,2.829,6.139,5.574,9.22,8.355q1.462,1.32,2.87,2.7c1.948,2.413,4,4.734,6.08,7.041q.816,1.163,1.558,2.365c-3.806-2.879-7.858-5.468-11.973-8.051A199.2,199.2,0,0,1,2198.181,1526.364Zm36.526,193.115a136.9,136.9,0,0,1,13.7-9.7c8.507-5.463,17.3-11.2,26.846-14.684a45.043,45.043,0,0,1,14.487-2.9c5.281-.109,10.355,1.04,15.435,2.357,5.042,1.309,10.128,2.708,15.362,2.92a31.858,31.858,0,0,0,14.2-2.905c8-3.55,13.948-10.142,20.449-15.819a10.634,10.634,0,0,1-.22,1.142,27.492,27.492,0,0,1-1.768,4.881,30.859,30.859,0,0,1-5.577,8.7,38.556,38.556,0,0,1-12.073,8.12,106.286,106.286,0,0,1-16.271,5.738c-11.076,3.016-22.479,4.49-33.88,5.612-5.915.583-11.857.837-17.767,1.462a94.357,94.357,0,0,0-17.253,3.505c-3.362,1.007-6.755,1.995-10.129,3.038,4.339-2.331,8.716-4.589,13.172-6.688,4.039-1.9,8.14-3.675,12.318-5.256,4.223-1.6,8.345-3.456,12.591-5,4.848-1.758,9.938-2.741,14.733-4.657.857-.342.521-1.729-.39-1.416-4.411,1.512-9,2.429-13.417,3.921-4.283,1.447-8.384,3.366-12.609,4.969a219.737,219.737,0,0,0-24.418,11.11c-3.757,1.978-7.475,4.025-11.184,6.089l-.082.03q-1.318.486-2.645,1C2230.438,1723.187,2232.533,1721.288,2234.708,1719.479Zm28.146-54.466a107.413,107.413,0,0,1,25.051-21.738c9.389-5.79,19.812-8.861,30.252-12.153,10.04-3.166,20.531-6.764,28.509-13.9a47.025,47.025,0,0,0,10.058-12.87c.954-1.8,1.667-3.723,2.594-5.539a13.6,13.6,0,0,1,1.963-3.154c1.071,5.589-.118,11.522-2.053,16.794a39.322,39.322,0,0,1-11.557,16.288,226.613,226.613,0,0,1-18.217,14.657,223.881,223.881,0,0,1-19.816,12.495,104.237,104.237,0,0,1-21.036,9.165c-7.432,2.22-15.121,3.565-22.4,6.3a61.5,61.5,0,0,0-7.868,3.638c5.11-3.9,10.141-7.9,15.4-11.589a104.642,104.642,0,0,1,18.373-10.376c3.75-1.635,7.585-3.075,11.418-4.5.839-.313.5-1.645-.376-1.365a113.356,113.356,0,0,0-20.156,8.368,140.6,140.6,0,0,0-17.349,11.7c-3.174,2.416-6.314,4.875-9.5,7.279a.955.955,0,0,0,.2,1.619q-2.33,1.378-4.555,2.921c.129-.162.26-.322.389-.483C2255.763,1674.07,2259.123,1669.383,2262.854,1665.013Zm-44.5-50.939a91.341,91.341,0,0,1,7.739-21.834c3.551-7.073,8.232-13.371,12.29-20.135q2.089-3.48,3.944-7.105c.108.141.21.286.316.428.1-.235.2-.472.308-.706.655-2.107,1.346-4.2,2.041-6.3a1.812,1.812,0,0,1,.869-1.043c1.043-2.506,1.99-5.051,2.8-7.642a60.441,60.441,0,0,0,2.551-12.114,61.065,61.065,0,0,0,.234-6.787c.453,1.569.908,3.139,1.379,4.7a66.4,66.4,0,0,1,3.014,17.075,59.944,59.944,0,0,1-1.548,15.752,14.094,14.094,0,0,1-1.424,5.906,27.654,27.654,0,0,1-1.51,4.138,1.743,1.743,0,0,1-.8.849c-.574,1.257-1.182,2.5-1.851,3.732-4.729,8.684-10.988,16.392-16.638,24.472a84.344,84.344,0,0,0-7.99,13.313c-1.852,4.083-3.773,8.178-5.307,12.4.062-.337.12-.673.184-1.009a96.59,96.59,0,0,1,4.566-16.12,159.017,159.017,0,0,1,6.846-15.062c2.779-5.481,5.739-10.871,8.337-16.442.407-.873-.852-1.644-1.312-.766-5.084,9.7-10.468,19.321-14.614,29.475a100.306,100.306,0,0,0-6.239,22.757A100.649,100.649,0,0,1,2218.353,1614.074Zm-26.722,28.182c-5.421-5.746-8.913-12.888-11.182-20.392a81.712,81.712,0,0,1-2.8-12.734,119.914,119.914,0,0,1-.8-13.345c-.1-4.553-.157-9.108-.349-13.659-.192-4.535-.64-9.047-.742-13.587-.025-1.122-.033-2.243.006-3.365,0-.125.059-.516.092-.86.838.733,1.815,1.384,2.64,2.125a26.8,26.8,0,0,1,6.109,8.414,92.255,92.255,0,0,1,4.676,11.95,58.836,58.836,0,0,1,2.48,13c.783,8.87.419,17.858,2.443,26.59,1.8,7.78,5.916,14.592,10.325,21.146,1.977,2.939,3.939,5.887,5.723,8.946-.983-.863-2-1.7-3.062-2.5-3.838-2.9-7.943-5.633-10.5-9.812-.642-1.048-1.233-2.127-1.9-3.161-.632-.984-1.319-1.926-1.909-2.938a35.428,35.428,0,0,1-2.687-6.042,154.08,154.08,0,0,1-4.508-15.487c-1.45-6.011-2.68-12.072-4.044-18.1-.245-1.085-1.912-.626-1.667.459,2.428,10.74,4.445,21.611,8.016,32.052a52.614,52.614,0,0,0,2.494,6.312c1.038,2.1,2.448,3.957,3.635,5.968a41.145,41.145,0,0,0,2.329,3.6C2194.78,1645.375,2193.153,1643.868,2191.631,1642.255Zm18.291,16.813c-.946-1.078-1.944-2.1-2.973-3.1,1.169.9,2.317,1.834,3.4,2.843.869.807,1.69,1.661,2.483,2.538q.7,1.5,1.287,3.031C2212.8,1662.535,2211.392,1660.743,2209.922,1659.068Zm14.821,56.235c-.65.945-1.288,1.906-1.892,2.885q.322-1.323.584-2.66c1.618-8.309,1.33-16.9.592-25.292a254.4,254.4,0,0,0-3.829-25.912c-.686-3.551-1.44-7.089-2.087-10.648,0-1.595.045-3.189.16-4.778a39.586,39.586,0,0,1,1.838-8.548c.834-2.775,1.634-5.545,2.727-8.234,1.067-2.625,2.292-5.189,3.42-7.789a81.829,81.829,0,0,1,7.732-13.6c5.574-8.146,11.872-15.816,16.79-24.4q1.031-1.8,1.969-3.655a91.3,91.3,0,0,1,4.167,10.351q.063.608.137,1.213c.472,3.852,1.09,7.683,1.693,11.515.423,2.682.81,5.367,1.236,8.049-.094,3-.362,5.994-.7,8.977-.6,5.3-1.253,10.6-1.983,15.88q-.474,3.433-1.044,6.861a49.245,49.245,0,0,0-1.451,7.556,98.057,98.057,0,0,1-4.737,15.737c-2.062,5.11-4.72,10-7.229,14.9-.459.9-.929,1.788-1.392,2.684a11.246,11.246,0,0,0-1.556,3c-.1.195-.2.39-.3.585a38.576,38.576,0,0,0-4.93,7.611c-1.8,3.7-3.25,7.563-5.35,11.114C2227.938,1711.015,2226.257,1713.1,2224.743,1715.3Z" transform="matrix(0.914, 0.407, -0.407, 0.914, -1268.079, -2137.94)" fill="rgba(242,216,152,0.6)"/></svg>