<svg xmlns="http://www.w3.org/2000/svg" width="36.148" height="36.148" viewBox="0 0 36.148 36.148"><g transform="translate(0.5 0.5)"><path d="M717.844,872.619a17.574,17.574,0,1,1,17.8,17.534A17.481,17.481,0,0,1,717.844,872.619Zm19.241,6.648c0-2.434-.018-4.787.007-7.139a2.212,2.212,0,0,1,3.241-1.85,2.251,2.251,0,0,1,1.088,2.128c0,2.27,0,4.539,0,6.853h3.784c.024-.216.056-.373.057-.531,0-1.557.012-3.114.007-4.894,0-.467-.006-1.157-.014-1.847a6.806,6.806,0,0,0-.256-1.76,3.939,3.939,0,0,0-3.147-3.139,4.015,4.015,0,0,0-4.431,1.633l-.329.1c-.087-.067.054.163-.033.1v-1.641h-3.883v11.995Zm-6.21-11.989h-3.987v11.976h3.987V867.279Zm-2.047-5.8a2.128,2.128,0,0,0-2.178,2.042,2.21,2.21,0,0,0,4.415.007A2.1,2.1,0,0,0,728.829,861.483Z" transform="translate(-717.844 -855.004)" fill="none" stroke="#fff" stroke-miterlimit="10" stroke-width="1"/></g></svg>