<svg xmlns="http://www.w3.org/2000/svg" width="27.818" height="27.814" viewBox="0 0 27.818 27.814"><g transform="translate(0.25 0.25)"><path d="M5622.516-613.415a13.629,13.629,0,0,1-13.857,13.613,13.66,13.66,0,0,1-13.461-13.833A13.644,13.644,0,0,1,5609-627.115,13.622,13.622,0,0,1,5622.516-613.415Zm-11.01-.039.092,0c-.053-.766-.118-1.531-.155-2.3-.017-.359-.157-.521-.526-.519-1.368.009-2.735.013-4.1,0-.418,0-.543.206-.546.572-.009,1.347-.013,2.694-.038,4.041-.008.419.16.609.572.609,1.368,0,2.737,0,4.105,0,.465,0,.6-.251.6-.664C5611.5-612.291,5611.506-612.873,5611.506-613.454Zm-5.039,3.409a7.828,7.828,0,0,0,1.423,3.694c.643.8,1.312.792,1.957-.018a8.133,8.133,0,0,0,1.422-3.676Zm6-1.249a7.627,7.627,0,0,0,3.552-1.442,1.065,1.065,0,0,0,.02-1.84,7.661,7.661,0,0,0-3.572-1.463Zm-7.232-4.751a7.86,7.86,0,0,0-3.562,1.476,1.04,1.04,0,0,0-.019,1.792,7.217,7.217,0,0,0,3.581,1.467Zm5.943-1.25a7.073,7.073,0,0,0-1.466-3.411,1.008,1.008,0,0,0-1.667-.04,6.952,6.952,0,0,0-1.508,3.451Zm-9.716,5.818c.364,2.321,3.072,5.1,5.152,5.326-.367-1.222-.74-2.5-1.148-3.772a.761.761,0,0,0-.437-.406C5603.844-610.729,5602.645-611.1,5601.466-611.476Zm9.643,5.326c2.385-.4,4.959-3.321,5.117-5.312-1.166.369-2.386.748-3.6,1.148a.624.624,0,0,0-.365.333C5611.857-608.689,5611.478-607.389,5611.108-606.15Zm-9.476-9.789c1.156-.347,2.375-.706,3.587-1.087a.563.563,0,0,0,.314-.316c.392-1.162.763-2.331,1.127-3.459A7.224,7.224,0,0,0,5601.632-615.939Zm14.48.016c-.43-2.085-3.114-4.655-5.042-4.863.351,1.084.706,2.221,1.1,3.347a.777.777,0,0,0,.429.425C5613.766-616.63,5614.949-616.28,5616.112-615.923Z" transform="translate(-5595.197 627.115)" fill="none" stroke="#fff" stroke-width="0.5"/><path d="M5688.931-537.374c0,.581-.006,1.162,0,1.743,0,.413-.134.667-.6.664-1.369-.008-2.738-.005-4.106,0-.411,0-.579-.19-.571-.608.025-1.347.029-2.694.038-4.041,0-.367.128-.576.545-.572,1.368.013,2.735.01,4.1,0,.369,0,.51.16.526.519.037.766.1,1.532.154,2.3Z" transform="translate(-5672.621 551.036)" fill="none" stroke="#fff" stroke-width="0.5"/><path d="M5685.555-490.265h4.8a8.127,8.127,0,0,1-1.422,3.676c-.645.81-1.313.821-1.957.018A7.828,7.828,0,0,1,5685.555-490.265Z" transform="translate(-5674.284 507.335)" fill="none" stroke="#fff" stroke-width="0.5"/><path d="M5733.691-533.563v-4.744a7.654,7.654,0,0,1,3.572,1.463,1.065,1.065,0,0,1-.019,1.84A7.634,7.634,0,0,1,5733.691-533.563Z" transform="translate(-5716.417 549.384)" fill="none" stroke="#fff" stroke-width="0.5"/><path d="M5647.051-538.361v4.735a7.211,7.211,0,0,1-3.581-1.467,1.04,1.04,0,0,1,.018-1.792A7.868,7.868,0,0,1,5647.051-538.361Z" transform="translate(-5637.008 549.432)" fill="none" stroke="#fff" stroke-width="0.5"/><path d="M5690.788-575.562h-4.641a6.952,6.952,0,0,1,1.507-3.451,1.008,1.008,0,0,1,1.668.04A7.081,7.081,0,0,1,5690.788-575.562Z" transform="translate(-5674.802 585.382)" fill="none" stroke="#fff" stroke-width="0.5"/><path d="M5645.46-501.737c1.179.375,2.377.746,3.566,1.148a.762.762,0,0,1,.438.406c.407,1.269.78,2.55,1.147,3.772C5648.531-496.639,5645.824-499.416,5645.46-501.737Z" transform="translate(-5639.19 517.376)" fill="none" stroke="#fff" stroke-width="0.5"/><path d="M5722.761-496.311c.37-1.239.75-2.539,1.155-3.831a.623.623,0,0,1,.364-.333c1.212-.4,2.432-.779,3.6-1.148C5727.72-499.632,5725.146-496.71,5722.761-496.311Z" transform="translate(-5706.849 517.276)" fill="none" stroke="#fff" stroke-width="0.5"/><path d="M5646.793-571.642a7.224,7.224,0,0,1,5.029-4.863c-.365,1.128-.736,2.3-1.128,3.459a.563.563,0,0,1-.314.316C5649.168-572.349,5647.949-571.99,5646.793-571.642Z" transform="translate(-5640.357 582.818)" fill="none" stroke="#fff" stroke-width="0.5"/><path d="M5727.5-571.514c-1.163-.356-2.346-.706-3.518-1.091a.779.779,0,0,1-.43-.425c-.39-1.125-.744-2.263-1.095-3.347C5724.382-576.17,5727.066-573.6,5727.5-571.514Z" transform="translate(-5706.58 582.706)" fill="none" stroke="#fff" stroke-width="0.5"/></g></svg>