<svg xmlns="http://www.w3.org/2000/svg" width="27.843" height="27.814" viewBox="0 0 27.843 27.814"><g transform="translate(0.25 0.249)"><path d="M5323.7-1238.248a13.654,13.654,0,0,1-13.669,13.625,13.656,13.656,0,0,1-13.673-13.621,13.67,13.67,0,0,1,13.669-13.694A13.668,13.668,0,0,1,5323.7-1238.248Zm-6.639-5.067h-14.08c.241.269.376.437.53.588,2,1.967,4.008,3.921,5.99,5.9.384.384.617.395,1,.007,2-2,4.021-3.967,6.034-5.948C5316.677-1242.9,5316.807-1243.049,5317.059-1243.315Zm.128,10.374-4.608-4.827c-.7.755-1.329,1.468-1.991,2.154-.568.589-.583.576-1.157.015l-2.136-2.091-4.476,4.75Zm-3.654-5.176,4.154,4.341.123-.116v-8.756Zm-11.323-4.5v8.949l4.31-4.56c-1.319-1.377-2.594-2.71-3.873-4.039A5.18,5.18,0,0,0,5302.21-1242.615Z" transform="translate(-5296.355 1251.938)" fill="none" stroke="#fff" stroke-width="0.5"/><path d="M5363.539-1182.81c-.252.267-.382.414-.521.551-2.013,1.981-4.036,3.952-6.033,5.948-.388.387-.621.376-1-.007-1.982-1.983-3.992-3.937-5.991-5.9-.153-.151-.288-.319-.53-.588Z" transform="translate(-5342.835 1191.433)" fill="none" stroke="#fff" stroke-width="0.5"/><path d="M5362.543-1133.513h-14.368l4.476-4.749c.727.711,1.431,1.4,2.136,2.091.574.561.589.574,1.157-.015.662-.686,1.3-1.4,1.991-2.154Z" transform="translate(-5341.712 1152.509)" fill="none" stroke="#fff" stroke-width="0.5"/><path d="M5434.07-1172.932l4.277-4.531v8.756l-.123.117Z" transform="translate(-5416.893 1186.753)" fill="none" stroke="#fff" stroke-width="0.5"/><path d="M5343.3-1177.2a5.124,5.124,0,0,1,.438.35c1.278,1.329,2.553,2.662,3.873,4.039l-4.31,4.56Z" transform="translate(-5337.441 1186.521)" fill="none" stroke="#fff" stroke-width="0.5"/></g></svg>