<svg xmlns="http://www.w3.org/2000/svg" width="36.182" height="36.182" viewBox="0 0 36.182 36.182"><g transform="translate(0.501 0.5)"><path d="M735.362,356.872a17.55,17.55,0,0,1,17.465,18.152c-.1,9.345-8.188,17.08-17.7,17.029a17.591,17.591,0,1,1,.239-35.18Zm4.744,14.285h-3.614c0-.887,0-1.64,0-2.393.009-1.086.386-1.49,1.465-1.477.667.007,1.333.1,2.059.167l.542-3.448a37.261,37.261,0,0,0-3.939-.227c-3.01.142-4.334,1.551-4.44,4.563-.031.884,0,1.77,0,2.73h-2.247c0,.988-.035,1.9.028,2.814.014.193.368.48.6.517a10.642,10.642,0,0,0,1.615.024v10.72H736.5V374.425c.936,0,1.771,0,2.607,0,.479,0,.724-.162.742-.709C739.873,372.907,740,372.1,740.105,371.157Z" transform="translate(-717.646 -356.871)" fill="none" stroke="#fff" stroke-miterlimit="10" stroke-width="1"/><path d="M803.3,406.671c-.1.944-.233,1.75-.259,2.56-.018.547-.263.711-.742.709-.835,0-1.671,0-2.607,0V420.66h-4.328V409.94a10.642,10.642,0,0,1-1.615-.024c-.231-.037-.586-.324-.6-.517-.063-.909-.028-1.826-.028-2.814h2.247c0-.96-.026-1.846,0-2.73.106-3.012,1.43-4.421,4.44-4.563a37.234,37.234,0,0,1,3.939.227l-.542,3.448c-.725-.062-1.392-.159-2.059-.167-1.079-.012-1.456.391-1.464,1.477-.006.753,0,1.506,0,2.393Z" transform="translate(-780.838 -392.384)" fill="none" stroke="#fff" stroke-width="1"/></g></svg>