<svg id="Layer_1" data-name="Layer 1" xmlns="http://www.w3.org/2000/svg" viewBox="0 0 224.85 390.35"><title>leaf</title><path id="Shape" d="M106.69,341.64c.63-2,1.5-3.9,2.3-5.84,1.61-3.88,2.74-7.95,4-12,1-3.44,2.43-6.77,3.42-10.22q1.34-1.87,2.83-3.65a64.2,64.2,0,0,1,16.3-13.84c6.72-3.91,14-6.66,20.83-10.4a110.81,110.81,0,0,0,18.4-12.9A225.93,225.93,0,0,0,191.6,257c5.36-5.6,10.21-11.61,15-17.68a47.45,47.45,0,0,0,6.58-10.4A43,43,0,0,0,216,219c1.2-7,1-14.85-2.43-21.23a1.75,1.75,0,0,0-2.32-.78c-3.47,1.73-4.36,6.3-5.16,9.72a44.84,44.84,0,0,1-5.07,12.71c-5.61,9.45-14.94,15.42-24.34,20.63-9.82,5.44-20,10.34-28.52,17.74a108,108,0,0,0-21.56,26c-1.77,2.94-3.35,6-4.9,9,.13-1.11.21-2.23.25-3.34a1.19,1.19,0,0,0,0-.26c.12-1,.23-2.07.33-3.1a64.65,64.65,0,0,0,.63-9.53,1.46,1.46,0,0,0,.59-.79,6.78,6.78,0,0,0-.2-3.76,77.62,77.62,0,0,1,.37-15.24,41.18,41.18,0,0,1,4.1-9.87c5.81-9.79,15.15-16.76,23.58-24.14A252.22,252.22,0,0,0,179.21,194c4.59-5.52,9.26-11.25,12.26-17.82a52.74,52.74,0,0,0,3-9.71c.79-3.29,1.65-6.87.58-10.19-.42-1.31-2.27-2-3.13-.64-2.65,4.34-3.51,9.32-5.4,14a54.05,54.05,0,0,1-8.25,13.43,52.57,52.57,0,0,1-10.67,10.13c-4,2.84-8.39,5.18-12.62,7.71A57.7,57.7,0,0,0,134.2,220a79.92,79.92,0,0,0-11.65,24.86c-.09.33-.18.67-.26,1-.82-5.19-2.25-10.26-3.43-15.42-.16-.68-.3-1.35-.45-2-.37-8-.09-16.08.17-24.11.27-8.34,0-16.73.53-25.06a91.63,91.63,0,0,1,4.43-23.13,151.46,151.46,0,0,1,9.62-21.92c3.52-6.82,7.41-13.51,10.41-20.59a76.45,76.45,0,0,0,5.6-20.89c1.08-9.14.43-18.56-.78-27.66-.51-3.92-1.18-7.82-1.85-11.72-.6-3.55-1.38-7.2-3.45-10.2a1.75,1.75,0,0,0-3,1c.3,7.1,1.17,14.19,1.05,21.3A98.58,98.58,0,0,1,138.94,85c-2.92,13-11,23.78-16.07,36a101.15,101.15,0,0,0-5.7,19c-1.37,6.86-2,13.85-3.13,20.75-.73,4.48-1.51,9-2.12,13.49a121.54,121.54,0,0,0-5.06-15.91c-2.4-6.27-5.88-12-9.15-17.85-.16-.27-.3-.54-.45-.81a1.88,1.88,0,0,0-.07-1.26,18.45,18.45,0,0,1-.91-2.62c-.25-1.1-.66-2.16-1-3.22-.71-2.12-1-4.36-1.58-6.53a98.27,98.27,0,0,1-2.07-13.44,237.91,237.91,0,0,1-1-27.61q.18-14-.74-27.87c-.58-9.2-1.63-18.37-1.9-27.58-.15-5.2-.17-10.41-.43-15.61-.12-2.5-.26-5-.28-7.51,0-1.9.72-4.26-.6-5.86A1.71,1.71,0,0,0,85.09,0,1.69,1.69,0,0,0,83.83,1.1C78.82,12.66,74.43,24.55,72,37a111.75,111.75,0,0,0-.12,39.87,183.73,183.73,0,0,0,4.85,20.46c2,6.83,4.13,13.59,6.58,20.26a158,158,0,0,0,8.27,18.74c3.15,6,6.77,11.78,9.79,17.87a97.54,97.54,0,0,1,3.94,9.45,91.72,91.72,0,0,1,3.21,9.92,117.09,117.09,0,0,1,2.4,14.17c-.06,5,.18,10.06.5,15.08a177.17,177.17,0,0,0,2,18.09c-.53-1.13-1.1-2.24-1.69-3.34-.43-1.32-.86-2.64-1.28-4a30.37,30.37,0,0,0-6.43-11.66c.15-1,.3-2,.4-3a61.25,61.25,0,0,0-.61-16.28A64.37,64.37,0,0,0,98,164.28c-1.5-3-3.11-6-4.65-9-.77-1.49-1.54-3-2.38-4.46a24.51,24.51,0,0,1-2.38-4.39,1.74,1.74,0,0,0-2-1.34,1.7,1.7,0,0,0-1.34,2c.56,2.08.95,4.2,1.37,6.31s1,4.25,1.4,6.39a55.27,55.27,0,0,1,1.12,12.37,78.38,78.38,0,0,1-1.65,13.3c-4.75-4-9.79-7.67-14.73-11.46A136.89,136.89,0,0,1,59,161.19a138,138,0,0,0-14.21-12.92c-4.93-3.81-10.12-7.27-15.23-10.84C24.23,133.72,19,129.84,14,125.72c-4.5-3.69-9.5-8.29-10.44-14.33-.31-2-3.18-1.68-3.42.2-.65,5,1.35,9.74,3,14.35A129.7,129.7,0,0,0,9,140.13a60.84,60.84,0,0,0,18.06,21.41c7.24,5.35,15.42,9.23,23.55,13,4.44,2.06,8.92,3.94,13.48,5.7a116.27,116.27,0,0,1,13.62,5.88,55.66,55.66,0,0,1,8.3,5.52c-.39,1.45-.8,2.88-1.24,4.31-2.35,7.55-5.81,14.66-8.34,22.15a99.34,99.34,0,0,0-4.88,22.54,87.9,87.9,0,0,0,1.06,23.13c.75,4.29,1.55,8.59,2.66,12.8a99.84,99.84,0,0,0,3.4,10.24c.16.73.32,1.47.49,2.2s.39,1.65.6,2.47a86.35,86.35,0,0,0-6.23-7.28c-5.66-6-11.84-11.66-15.82-19-4.45-8.2-5.89-17.58-8.25-26.5a61.22,61.22,0,0,0-4.65-12.93,117.37,117.37,0,0,0-7.09-11.67,32.9,32.9,0,0,0-7.65-8.18,47.82,47.82,0,0,0-4.28-2.6c-1.29-.71-2.88-1.49-4.34-.76-2,1-1.63,3.37-1.34,5.17.37,2.32.89,4.62,1.45,6.89,1.13,4.57,2.41,9.1,3.44,13.7,2,9.17,3.65,18.46,7.2,27.21,3.16,7.78,7.41,15.39,13.31,21.43,6.06,6.21,13.81,10,21.19,14.37a56.66,56.66,0,0,1,10.45,7.76c2.92,2.75,6.17,5.59,7.89,9.3a11.87,11.87,0,0,0,2.79,4.42,1.36,1.36,0,0,0,1,.29,127.66,127.66,0,0,1,6.23,25.12,60.33,60.33,0,0,1-1.64,23,79.8,79.8,0,0,1-4,11.4c-1.54,3.56-3.24,7-4.68,10.65l-.21.32c-1.06,1.52-2.35,3.05-2.47,5a1.73,1.73,0,0,0,3.13,1.09,19.26,19.26,0,0,0,2.58-4.76,45.41,45.41,0,0,0,2.62-5.39,35.29,35.29,0,0,1,2.4-5.14c1-1.56,2.13-3,3-4.6.22-.37.41-.75.61-1.13a1.57,1.57,0,0,0,.88-1l1-2.95a27.61,27.61,0,0,0,2.43-2.75c1.79-2.2,4.43-3.73,6.79-5.25,5.35-3.43,11.1-6.23,16.67-9.26A100.9,100.9,0,0,1,142,339.53c6-1.87,12-3.29,18-5.08,11.63-3.47,23.22-7.3,34.08-12.77a107,107,0,0,0,15.42-9.32,39.16,39.16,0,0,0,10.61-11.19,36.53,36.53,0,0,0,4.18-11.72c.64-3.21,1.53-8.28-2.06-10.06a1.72,1.72,0,0,0-2,.66c-5.39,6.48-9.64,14.09-16.25,19.46a28.72,28.72,0,0,1-12.67,6.07c-5.21,1-10.54.52-15.79.2a62.36,62.36,0,0,0-15.5.47,46.58,46.58,0,0,0-13.61,5c-8.77,4.81-16.22,11.78-23.5,18.56-4.5,4.19-8.92,8.5-13,13.11-2.3,2.61-4.38,5.4-6.5,8.15.54-1.16,1.06-2.33,1.49-3.55.7-1.92,1.2-3.91,1.81-5.86Zm20.79-100.43a.81.81,0,0,0,.46,0c-.13.39-.28.77-.4,1.17,0-.39,0-.78-.06-1.18ZM136,223.54a68.94,68.94,0,0,1,8.7-10.8,59.78,59.78,0,0,1,11.41-8.47c4.14-2.49,8.37-4.81,12.38-7.5a53.4,53.4,0,0,0,10.62-9.34,63.37,63.37,0,0,0,9.64-14.25c.46-1,.88-2,1.25-3a36,36,0,0,1-1.5,4.27c-2.51,5.79-6.6,10.86-10.54,15.73-4.33,5.36-9,10.47-13.72,15.43-4.44,4.63-9,9.24-13.74,13.51-7.16,6.37-14.94,12.28-21.05,19.71a115.15,115.15,0,0,1,9.43-11q2.94-3,6-5.94a66.11,66.11,0,0,1,5.79-4.61,22.85,22.85,0,0,0,5.83-5.69.69.69,0,0,0-1.14-.77c-3,3.88-7.6,6.11-11.17,9.43a144.89,144.89,0,0,0-11.76,12.26c-1.17,1.37-2.31,2.78-3.41,4.21a76.63,76.63,0,0,1,7-13.12ZM74.58,42.21C76.24,31,79.83,20.13,84,9.58c.06,1.56.13,3.12.2,4.68.22,4.62.25,9.24.36,13.86.23,9.13,1.21,18.2,1.81,27.31s1,18.48.84,27.74A253.28,253.28,0,0,0,88,110.72c.3,3.11.59,6.24,1,9.34-1-1.47-2-3-2.83-4.53-1.59-4.37-3.05-8.79-4.41-13.23-.35-1.13-.69-2.26-1-3.4-.08-.47-.15-.94-.22-1.42A148,148,0,0,1,79.3,81.33c-.09-2.63-.22-5.27-.12-7.9A48.1,48.1,0,0,1,80.1,66a52.78,52.78,0,0,1,2.26-8c.48-1.3,1.15-2.52,1.6-3.83s.41-2.56,1-3.7a.75.75,0,0,0-1.24-.84,6.77,6.77,0,0,0-1.18,3.11,19.29,19.29,0,0,1-1.35,3.45,43.26,43.26,0,0,0-2.33,7.29A51.37,51.37,0,0,0,77.6,71a70.94,70.94,0,0,0-.1,8.12c.09,3.23.21,6.46.42,9.68q-.86-3.33-1.57-6.7C73.6,69,72.63,55.47,74.58,42.21ZM89.75,123c.16.21.31.42.48.62-.13.42-.25.84-.35,1.25-.06-.61-.08-1.25-.13-1.87Zm24.62,67.29c0-1,0-2,0-2.92a147.66,147.66,0,0,1,2.26-21.08l.15-.93a.79.79,0,0,0,.58-.72,114,114,0,0,1,5-23.48,101.41,101.41,0,0,1,10.89-22.41,55.64,55.64,0,0,1,4.06-5.62,37.78,37.78,0,0,0,4-5.43c.47-.83-.7-1.65-1.24-.84-2.3,3.44-5.24,6.37-7.52,9.82a120.31,120.31,0,0,0-6.63,11.56,92.38,92.38,0,0,0-5.45,13.28,101.89,101.89,0,0,1,4.26-15.83c4.57-12.44,12.93-23.24,16.56-36a97.09,97.09,0,0,0,3.17-21.24c.1-2,.12-3.9.08-5.84.1.66.2,1.32.29,2a117.75,117.75,0,0,1,1.2,24.6,72.24,72.24,0,0,1-4.77,21c-2.78,7.19-6.67,13.91-10.23,20.74-7.15,13.72-13.23,27.77-14.95,43.3-.89,8-.57,16-.78,24,0,.29,0,.57,0,.86-.32-2.91-.61-5.83-.92-8.74Zm.32,10.32a1.69,1.69,0,0,0,.58-.94c-.07,2.13-.13,4.25-.2,6.38-.15-1.81-.28-3.63-.39-5.45ZM38.05,164.47c-8-4.47-15.31-10-20.77-17.4a67,67,0,0,1-7.5-13.43c-1.57-3.67-3.06-7.47-4.35-11.29a42,42,0,0,0,3,3.1,151.53,151.53,0,0,0,12.45,10c10.16,7.65,21.21,14.11,30.43,23,3.31,3.18,6.46,6.52,9.72,9.75-1.76-1-3.52-2.08-5.25-3.18-3.48-2.21-7-4.33-10.67-6.26A105.62,105.62,0,0,0,32.53,153a.86.86,0,0,0-.57,1.63,121.83,121.83,0,0,1,21.57,11c3.52,2.2,7.09,4.31,10.65,6.45q1.68,1,3.33,2.1c2.37,2,4.83,3.89,7.32,5.76.68.66,1.34,1.33,2,2-4.29-2.11-8.76-3.88-13.3-5.63a199.46,199.46,0,0,1-25.46-11.86Zm72.73,182.69A138.66,138.66,0,0,1,122.39,335c7.31-7,14.85-14.3,23.56-19.54a45,45,0,0,1,13.68-5.62c5.16-1.11,10.37-.95,15.61-.63s10.46.73,15.64-.06a31.82,31.82,0,0,0,13.39-5.57c7.18-5,11.77-12.62,17.07-19.43a11.22,11.22,0,0,1,0,1.16,27,27,0,0,1-.8,5.13,31.23,31.23,0,0,1-3.82,9.61,38.49,38.49,0,0,1-10.31,10.28,107.16,107.16,0,0,1-14.88,8.74c-10.31,5.08-21.22,8.7-32.21,12-5.7,1.7-11.48,3.08-17.17,4.82a95.15,95.15,0,0,0-16.28,6.74c-3.11,1.63-6.25,3.25-9.36,4.92,3.81-3.12,7.68-6.17,11.66-9.09,3.6-2.63,7.29-5.16,11.09-7.51s7.54-5,11.41-7.31c4.43-2.66,9.24-4.59,13.59-7.39.77-.5.18-1.8-.66-1.31-4,2.32-8.37,4.1-12.43,6.41s-7.59,4.9-11.43,7.28a217.71,217.71,0,0,0-21.86,15.58c-3.32,2.66-6.58,5.37-9.83,8.11l-.07,0-2.41,1.49c1.73-2.23,3.42-4.5,5.21-6.69ZM128,288.3a107.59,107.59,0,0,1,20.46-26.13c8.11-7.48,17.77-12.49,27.39-17.71,9.26-5,18.87-10.56,25.35-19.1a47.19,47.19,0,0,0,7.42-14.56c.59-2,.93-4,1.49-5.93a13.53,13.53,0,0,1,1.33-3.47c2.11,5.28,2.08,11.33,1.19,16.88a39.41,39.41,0,0,1-8.25,18.21,229.49,229.49,0,0,1-15.09,17.87,225.26,225.26,0,0,1-17.08,16.05,104.33,104.33,0,0,1-18.91,13c-6.88,3.6-14.17,6.38-20.8,10.46a61.45,61.45,0,0,0-7,5.07c4.27-4.8,8.45-9.69,12.91-14.32A104.5,104.5,0,0,1,154.48,271c3.37-2.33,6.86-4.47,10.35-6.6.77-.47.18-1.71-.63-1.27A114.38,114.38,0,0,0,146,275.14,140.78,140.78,0,0,0,131.2,290c-2.66,3-5.27,6-7.94,9a1,1,0,0,0-.19.92,1,1,0,0,0,.69.63c-1.35,1.2-2.65,2.44-3.91,3.74.09-.19.19-.37.28-.55,2.67-5.11,5.07-10.35,7.9-15.36ZM74.61,246.76A91.18,91.18,0,0,1,78,223.84c2.14-7.63,5.53-14.7,8.23-22.12.92-2.55,1.76-5.12,2.51-7.73.14.11.27.24.4.36,0-.25.1-.5.16-.76q.38-3.28.81-6.57a1.78,1.78,0,0,1,.65-1.19c.55-2.66,1-5.34,1.29-8a60.36,60.36,0,0,0,.2-12.39,61.21,61.21,0,0,0-1.07-6.71q1.11,2.19,2.25,4.36a66.54,66.54,0,0,1,6.22,16.19A60.17,60.17,0,0,1,101.18,195a14,14,0,0,1-.28,6.07,26.62,26.62,0,0,1-.69,4.35,1.79,1.79,0,0,1-.62,1c-.33,1.34-.69,2.68-1.11,4-3,9.43-7.66,18.19-11.67,27.21a84.07,84.07,0,0,0-5.3,14.6c-1,4.36-2.15,8.75-2.85,13.19,0-.34,0-.68,0-1a95.4,95.4,0,0,1,1.41-16.7,156.36,156.36,0,0,1,3.85-16.1c1.68-5.91,3.56-11.77,5-17.74.23-.94-1.16-1.45-1.44-.5-3.14,10.49-6.59,21-8.73,31.74A99.94,99.94,0,0,0,77,268.65a100.77,100.77,0,0,1-2.41-21.89ZM53.74,279.54c-6.42-4.61-11.21-11-14.88-17.89a82.5,82.5,0,0,1-5.18-12,120,120,0,0,1-3.33-12.95c-1-4.45-1.89-8.92-3-13.35s-2.35-8.76-3.32-13.2c-.24-1.1-.46-2.2-.64-3.31,0-.12,0-.52-.07-.86,1,.56,2.05,1,3,1.58a26.8,26.8,0,0,1,7.6,7.1,92.67,92.67,0,0,1,6.88,10.84,59.15,59.15,0,0,1,4.91,12.3c2.47,8.56,3.82,17.46,7.48,25.65,3.25,7.3,8.59,13.2,14.18,18.8,2.5,2.51,5,5,7.32,7.69-1.13-.66-2.29-1.29-3.48-1.87-4.32-2.12-8.88-4-12.19-7.63-.83-.91-1.61-1.86-2.47-2.75s-1.66-1.63-2.43-2.52a35.11,35.11,0,0,1-3.79-5.42A154.21,154.21,0,0,1,43,255.42c-2.57-5.62-4.93-11.34-7.42-17-.45-1-2-.25-1.55.77,4.43,10.08,8.49,20.37,14,29.95a52.71,52.71,0,0,0,3.65,5.72c1.42,1.86,3.16,3.42,4.71,5.17q1.41,1.62,3,3.09c-1.91-1.12-3.8-2.29-5.6-3.58Zm21.17,13c-1.13-.88-2.31-1.69-3.51-2.48,1.32.67,2.63,1.36,3.88,2.15,1,.62,2,1.31,2.93,2,.64.89,1.26,1.8,1.84,2.73a66.37,66.37,0,0,0-5.14-4.42ZM100.2,345c-.46,1.06-.9,2.12-1.31,3.2,0-.91.07-1.82.07-2.73,0-8.46-1.92-16.85-4.25-24.95A255.07,255.07,0,0,0,86,295.76c-1.35-3.35-2.77-6.69-4.08-10.06-.31-1.56-.57-3.14-.76-4.72a40,40,0,0,1,.17-8.75c.29-2.88.55-5.75,1.11-8.6s1.26-5.54,1.87-8.31a82.41,82.41,0,0,1,5-14.83c3.92-9.06,8.64-17.8,11.84-27.17q.66-2,1.23-4a90.35,90.35,0,0,1,6.07,9.37c.12.39.24.78.37,1.16,1.2,3.7,2.53,7.34,3.86,11,.92,2.55,1.82,5.12,2.75,7.67.48,3,.79,5.95,1,8.95q.65,8,1.09,16c.12,2.31.22,4.62.28,6.94a49.48,49.48,0,0,0,0,7.7,98.73,98.73,0,0,1-1.65,16.36c-1,5.41-2.73,10.72-4.26,16-.28,1-.57,1.94-.85,2.9a11.26,11.26,0,0,0-1,3.25l-.18.63a38.15,38.15,0,0,0-3.39,8.42c-1.06,4-1.75,8-3.13,11.93-.91,2.53-2.16,4.9-3.23,7.35Z" style="fill:#f2d898;fill-opacity:0.6000000238418579;fill-rule:evenodd"/></svg>