<svg xmlns="http://www.w3.org/2000/svg" width="27.819" height="27.815" viewBox="0 0 27.819 27.815"><g transform="translate(0.25 0.25)"><path d="M4997.713-1238.294a13.634,13.634,0,0,1,13.639-13.644,13.661,13.661,0,0,1,13.681,13.679,13.65,13.65,0,0,1-13.714,13.637A13.621,13.621,0,0,1,4997.713-1238.294Zm16.866,7.1a3.6,3.6,0,0,0,3.083-1.7,1.02,1.02,0,0,0-.134-1.412c-.441-.406-.944-.744-1.4-1.131a2.326,2.326,0,0,0-3.232-.258,1.834,1.834,0,0,1-2.63-.4c-.424-.428-.817-.886-1.2-1.348a1.824,1.824,0,0,1-.025-2.634,1.3,1.3,0,0,0,.163-1.7c-.478-.826-1-1.625-1.53-2.42s-1.066-.863-1.833-.3a3.6,3.6,0,0,0-1.426,3.906,9.12,9.12,0,0,0,.659,1.742,15.185,15.185,0,0,0,7.211,6.97A13.972,13.972,0,0,0,5014.579-1231.19Z" transform="translate(-4997.713 1251.938)" fill="none" stroke="#fff" stroke-width="0.5"/><path d="M5060.686-1181.528a13.991,13.991,0,0,1-2.3-.691,15.186,15.186,0,0,1-7.211-6.97,9.118,9.118,0,0,1-.659-1.742,3.6,3.6,0,0,1,1.426-3.906c.767-.56,1.312-.482,1.833.3s1.053,1.594,1.529,2.419a1.3,1.3,0,0,1-.162,1.7,1.824,1.824,0,0,0,.025,2.634c.387.461.781.92,1.2,1.347a1.834,1.834,0,0,0,2.63.4,2.326,2.326,0,0,1,3.232.258c.459.387.961.726,1.4,1.131a1.02,1.02,0,0,1,.134,1.412A3.6,3.6,0,0,1,5060.686-1181.528Z" transform="translate(-5043.821 1202.276)" fill="none" stroke="#fff" stroke-width="0.5"/></g></svg>